<?xml version="1.0" standalone="no"?>
<!DOCTYPE svg PUBLIC "-//W3C//DTD SVG 1.1//EN" "http://www.w3.org/Graphics/SVG/1.1/DTD/svg11.dtd" >
<svg>
<metadata>
Created by FontForge 20090622 at Fri Jun  8 14:48:17 2018
 By deploy user
Copyright &#194;&#169; 2011 by Jonathan Hill. All rights reserved.
</metadata>
<defs>
<font id="Kuro-Light" horiz-adv-x="618" >
  <font-face 
    font-family="Kuro Light"
    font-weight="300"
    font-stretch="normal"
    units-per-em="1000"
    panose-1="0 0 4 0 0 0 0 0 0 0"
    ascent="800"
    descent="-200"
    x-height="499"
    cap-height="700"
    bbox="-64 -251 970 1068"
    underline-thickness="50"
    underline-position="-50"
    unicode-range="U+000D-U+FB02"
  />
<missing-glyph horiz-adv-x="500" 
d="M80 180h340v340h-340v-340zM50 550h400v-400h-400v400z" />
    <glyph glyph-name="fi" unicode="fi" horiz-adv-x="487" 
d="M379 700h39v-55h-39v55zM114 500l1 35q0 54 7 88t24 50t35 21t48 5q43 0 76 -12l-6 -28q-39 10 -70 10q-29 0 -44 -8t-23.5 -37.5t-8.5 -88.5v-35h115v-32h-115v-468h-39v468h-104v32h104zM379 500h39v-500h-39v500z" />
    <glyph glyph-name="fl" unicode="fl" horiz-adv-x="487" 
d="M379 0v700h39v-700h-39zM114 500l1 35q0 54 7 88t24 50t35 21t48 5q43 0 76 -12l-6 -28q-39 10 -70 10q-29 0 -44 -8t-23.5 -37.5t-8.5 -88.5v-35h115v-32h-115v-468h-39v468h-104v32h104z" />
    <glyph glyph-name=".notdef" horiz-adv-x="500" 
d="M80 180h340v340h-340v-340zM50 550h400v-400h-400v400z" />
    <glyph glyph-name="NULL" horiz-adv-x="0" 
 />
    <glyph glyph-name="NULL" horiz-adv-x="0" 
 />
    <glyph glyph-name="nonmarkingreturn" unicode="&#xd;" horiz-adv-x="333" 
 />
    <glyph glyph-name="space" unicode=" " horiz-adv-x="365" 
 />
    <glyph glyph-name="exclam" unicode="!" horiz-adv-x="164" 
d="M62 213v486h39v-486h-39zM60 0v80h44v-80h-44z" />
    <glyph glyph-name="quotedbl" unicode="&#x22;" horiz-adv-x="313" 
d="M98 501h-38v199h38v-199zM254 501h-39v199h39v-199z" />
    <glyph glyph-name="numbersign" unicode="#" horiz-adv-x="670" 
d="M610 190h-132v-190h-40v190h-206v-190h-40v190h-132v32h132v226h-132v32h132v190h40v-190h206v190h40v-190h132v-32h-132v-226h132v-32zM438 222v226h-206v-226h206z" />
    <glyph glyph-name="dollar" unicode="$" horiz-adv-x="527" 
d="M268 793h35v-83q91 0 165 -10l-7 -34q-72 9 -165 9q-92 0 -137.5 -30.5t-48.5 -74.5v-19q0 -49 22 -76t86 -67q138 -87 188 -124q33 -25 47.5 -64.5t14.5 -72.5q0 -41 -13.5 -70.5t-38 -45.5t-51 -24t-61.5 -11v-81h-35v78q-17 -1 -35 -1q-78 0 -174 15l6 34
q100 -14 166 -14q13 0 25 1q34 1 55 3.5t46 9.5t38.5 19t23 34t9.5 53q0 61 -48 110q-10 10 -32 25.5t-41.5 27.5l-57.5 35.5l-54 33.5q-35 22 -55 37t-38 35.5t-25 44.5t-7 56q0 9 1 20q3 54 52 93t144 44v84z" />
    <glyph glyph-name="percent" unicode="%" horiz-adv-x="726" 
d="M605 716h44l-531 -733h-46zM177 700q116 0 116 -137q0 -77 -25 -111.5t-91 -34.5t-91.5 33t-25.5 114q0 73 28.5 104.5t88.5 31.5zM177 667q-47 0 -64.5 -21t-17.5 -82q0 -67 15.5 -90.5t66.5 -23.5q50 0 65 24.5t15 88.5q0 57 -19.5 80.5t-60.5 23.5zM551 283
q116 0 116 -137q0 -77 -25 -111.5t-91 -34.5t-91.5 33t-25.5 114q0 73 28.5 104.5t88.5 31.5zM551 250q-47 0 -64.5 -21t-17.5 -82q0 -67 15.5 -90.5t66.5 -23.5q50 0 65 24t15 89q0 57 -19.5 80.5t-60.5 23.5z" />
    <glyph glyph-name="ampersand" unicode="&#x26;" horiz-adv-x="725" 
d="M233 378l-31 31q-36 35 -46.5 65t-10.5 76q0 65 43 104.5t126 39.5q86 0 127 -39t41 -106q0 -72 -42 -112.5t-139 -69.5l205 -185q23 58 34 146h39q-16 -109 -43 -172l129 -114l-7 -42l-139 123q-72 -131 -219 -131q-240 0 -240 204q0 80 42 119.5t131 62.5zM233 427
l40 -36q96 30 133.5 63t37.5 96q0 112 -130 112t-130 -112q0 -78 49 -123zM491 148l-227 205q-94 -23 -131.5 -57t-37.5 -101q0 -88 51 -129.5t155 -41.5q128 0 190 124z" />
    <glyph glyph-name="quotesingle" unicode="'" horiz-adv-x="158" 
d="M98 501h-38v199h38v-199z" />
    <glyph glyph-name="parenleft" unicode="(" horiz-adv-x="265" 
d="M167 750h38l-11 -29.5t-25 -73.5t-32 -107t-25 -119t-11 -120q0 -52 10.5 -115t26 -116t31 -98t25.5 -71l11 -26h-38q-5 9 -12 25.5t-25.5 66.5t-32.5 98.5t-25.5 114t-11.5 121.5t11 123t26.5 122.5t31.5 102.5t27 74z" />
    <glyph glyph-name="parenright" unicode=")" horiz-adv-x="265" 
d="M60 755h38q5 -9 12 -25.5t25.5 -66.5t32.5 -98.5t25.5 -114t11.5 -121.5t-11 -123t-26.5 -122.5t-31.5 -102.5t-27 -74l-11 -27h-38l11 29.5t25 73.5t32 107t25 119t11 120q0 52 -10.5 115t-26 116t-30.5 98t-26 71z" />
    <glyph glyph-name="asterisk" unicode="*" horiz-adv-x="464" 
d="M404 573l-143 -43l88 -109l-30 -20l-88 111l-89 -110l-29 20l88 110l-141 42l12 32l142 -43v136h38v-136l141 42z" />
    <glyph glyph-name="plus" unicode="+" horiz-adv-x="672" 
d="M60 234v34h255v232h40v-232h257v-34h-257v-234h-40v234h-255z" />
    <glyph glyph-name="comma" unicode="," horiz-adv-x="210" 
d="M60 -123l46 210h44l-56 -210h-34z" />
    <glyph glyph-name="hyphen" unicode="-" horiz-adv-x="472" 
d="M60 264v34h352v-34h-352z" />
    <glyph glyph-name="period" unicode="." horiz-adv-x="164" 
d="M60 0v80h44v-80h-44z" />
    <glyph glyph-name="slash" unicode="/" horiz-adv-x="447" 
d="M387 700l-281 -700h-46l283 700h44z" />
    <glyph glyph-name="zero" unicode="0" horiz-adv-x="648" 
d="M324 670q65 0 109 -15.5t77 -55t48 -109.5t15 -176q0 -94 -16 -158t-49.5 -99.5t-77.5 -50.5t-105.5 -15t-105.5 15t-77.5 51t-50 100t-16.5 159q0 85 11 146.5t30.5 101.5t51.5 63.5t69 33t87 9.5zM324 636q-56 0 -92.5 -14t-63.5 -49t-39 -98.5t-12 -160.5
q0 -87 13.5 -144.5t41.5 -89t64 -43.5t88.5 -12t88.5 12.5t64 43.5t41.5 89t13.5 146q0 96 -12 158t-39 98t-64 50t-93 14z" />
    <glyph glyph-name="one" unicode="1" horiz-adv-x="348" 
d="M15 539l199 121h39v-660h-39v621l-187 -115z" />
    <glyph glyph-name="two" unicode="2" horiz-adv-x="589" 
d="M100 626l-7 32q79 10 177 10q114 0 171.5 -38t61.5 -92q2 -36 -4 -62t-24.5 -47.5t-40 -37.5t-60.5 -39l-75.5 -43.5l-68.5 -39.5t-47 -29t-33 -24q-50 -46 -50 -103v-78h414v-35h-454v117q0 31 15 68t49 60q38 26 227 138q37 21 56.5 34.5t34.5 31t19 37.5t2 50
q-3 41 -50 70t-143 29q-95 0 -170 -9z" />
    <glyph glyph-name="three" unicode="3" horiz-adv-x="582" 
d="M56 613l-6 34q109 23 219 23q117 0 167.5 -39.5t50.5 -125.5q0 -35 -13 -63.5t-30.5 -44t-37 -26.5t-31 -14.5t-13.5 -3.5q35 -8 58.5 -18.5t45 -29.5t32 -49.5t10.5 -73.5q0 -97 -56.5 -144t-172.5 -47q-53 0 -112.5 5.5t-93.5 11.5l-33 6l7 34q115 -23 232 -23
q96 1 141.5 39t45.5 115q0 43 -14 73t-40 46.5t-55.5 24t-68.5 9.5h-148v34h146q33 0 68 14t63 47.5t28 78.5q0 71 -39 100.5t-136 29.5q-48 0 -101.5 -6t-82.5 -11z" />
    <glyph glyph-name="four" unicode="4" horiz-adv-x="617" 
d="M432 0v132h-372v30l238 498h42l-233 -494h325v179h39v-179h102v-34h-102v-132h-39z" />
    <glyph glyph-name="five" unicode="5" horiz-adv-x="569" 
d="M66 660h410l-13 -35h-359l-19 -246q113 33 196 33q110 0 169.5 -45t59.5 -147q0 -113 -63.5 -170t-176.5 -57q-49 0 -106.5 6t-90.5 12l-33 6l6 34q121 -24 223 -24q91 0 145 50t54 143q0 86 -50 122t-138 36q-66 0 -166 -29l-68 -22z" />
    <glyph glyph-name="six" unicode="6" horiz-adv-x="591" 
d="M507 651l-5 -33q-75 18 -171 18q-112 0 -170 -65.5t-59 -212.5q0 1 31 12.5t84 23.5t96 12q117 0 173 -49t56 -149q0 -104 -58.5 -160.5t-177.5 -56.5q-128 0 -187 84t-59 262q0 92 19 157.5t55.5 103.5t84.5 55t112 17q41 0 85 -5t67 -9zM101 323v-22q6 -138 54 -207
t151 -69q194 0 194 183q0 164 -188 164q-28 -1 -60.5 -6.5t-58 -12.5t-47 -13.5t-33.5 -11.5z" />
    <glyph glyph-name="seven" unicode="7" horiz-adv-x="487" 
d="M472 660v-34q-25 -28 -49.5 -61.5t-44.5 -64.5t-40 -71t-34 -70.5t-30.5 -73t-25.5 -68t-22 -67l-18 -57.5t-15 -52.5t-11 -40.5h-46l18 60.5l26 84.5l30.5 90.5t41 104.5t47.5 99t59 101t67 86h-389l-6 34h442z" />
    <glyph glyph-name="eight" unicode="8" horiz-adv-x="677" 
d="M576 506q0 -115 -113 -152q140 -35 140 -175q0 -55 -18 -92t-54.5 -58t-82.5 -29.5t-109.5 -8.5t-109.5 8.5t-82 29.5t-54 58t-18 92q0 137 134 173q-115 36 -115 154q0 86 56 125t182.5 39t185 -39t58.5 -125zM333 636q-108 0 -152.5 -28.5t-44.5 -102.5q0 -76 45 -107
t158 -31q104 0 149 33t45 105q0 73 -45 102t-155 29zM506 297q-54 34 -167 34t-167.5 -33.5t-54.5 -119.5t54.5 -119.5t167.5 -33.5t167.5 33.5t54.5 119.5t-55 119z" />
    <glyph glyph-name="nine" unicode="9" horiz-adv-x="606" 
d="M86 10l5 33q75 -18 171 -18q112 0 170 65.5t59 211.5q-3 -1 -32 -12q-31 -11 -83.5 -23t-95.5 -12q-117 0 -173 49t-56 149q0 104 58.5 160.5t176.5 56.5q128 0 187.5 -84t59.5 -262q0 -92 -19 -157.5t-55.5 -103.5t-84.5 -55t-112 -17q-41 0 -85 4.5t-67 9.5zM491 338
v22q-5 138 -53 207t-152 69q-193 0 -193 -183q0 -164 188 -164q28 1 60 6.5t58 12.5t47.5 13.5t33.5 11.5t11 5z" />
    <glyph glyph-name="colon" unicode=":" horiz-adv-x="164" 
d="M60 344v80h44v-80h-44zM60 0v80h44v-80h-44z" />
    <glyph glyph-name="semicolon" unicode=";" horiz-adv-x="211" 
d="M102 424h44v-80h-44v80zM105 87h46l-57 -210h-34z" />
    <glyph glyph-name="less" unicode="&#x3c;" horiz-adv-x="501" 
d="M442 630v-39l-347 -206l347 -217v-41l-382 238v36z" />
    <glyph glyph-name="equal" unicode="=" horiz-adv-x="610" 
d="M60 343v34h490v-34h-490zM61 174v34h490v-34h-490z" />
    <glyph glyph-name="greater" unicode="&#x3e;" horiz-adv-x="501" 
d="M406 385l-346 206v39l382 -229v-36l-382 -238v41z" />
    <glyph glyph-name="question" unicode="?" horiz-adv-x="522" 
d="M65 648l-5 34q123 27 182 27q110 0 165 -36.5t55 -121.5q0 -38 -16 -72.5t-40.5 -59t-53 -49.5l-52.5 -45t-40.5 -45.5t-16.5 -51.5v-38h-38v41q0 34 22.5 66.5t54.5 59.5l64.5 55t55 64t22.5 75q0 69 -45 97t-137 28q-23 0 -67.5 -7t-76.5 -14zM203 81h44v-80h-44v80z
" />
    <glyph glyph-name="at" unicode="@" horiz-adv-x="642" 
d="M447 -40l6 -35q-52 -24 -131 -24q-65 0 -111 15.5t-81 53.5t-52.5 105.5t-17.5 167.5q0 89 11.5 154t32 107t54 67t72 34.5t91.5 9.5q54 0 94 -10t73 -35t53 -67.5t31 -107.5t11 -155q0 -38 -21.5 -69.5t-54 -51t-74 -32.5t-79.5 -18t-72 -5q-50 0 -79.5 29t-29.5 84
q0 101 117 112l124 12v35q0 83 -84 83q-45 0 -122 -8l-7 36q84 9 129 9q124 0 124 -120v-202q43 20 66 45t23 61q0 101 -13 168t-41.5 105.5t-68.5 54t-99 15.5t-98 -14.5t-68 -52.5t-42 -105t-13 -170q0 -92 14.5 -153.5t44.5 -95t68.5 -46.5t94.5 -13q80 0 125 27z
M414 119v145l-119 -10q-43 -4 -61.5 -23.5t-18.5 -53.5q0 -37 18.5 -57.5t49.5 -20.5q59 0 131 20z" />
    <glyph glyph-name="A" unicode="A" 
d="M252 700h116l235 -700h-39l-75 215h-361l-73 -215h-40zM478 249l-140 417h-59l-140 -417h339z" />
    <glyph glyph-name="B" unicode="B" horiz-adv-x="644" 
d="M115 700h240q102 0 152 -41t50 -129q0 -133 -97 -169q124 -34 124 -165q0 -108 -54 -152t-156 -44h-259v700zM355 666h-204v-292h215q80 0 117 39t37 117q0 72 -40 104t-125 32zM366 341h-215v-307h223q83 0 128 36.5t45 125.5q0 145 -181 145z" />
    <glyph glyph-name="C" unicode="C" horiz-adv-x="632" 
d="M569 45l3 -34q-116 -20 -203 -20q-67 0 -115.5 16t-79 44.5t-48.5 74.5t-24.5 98t-6.5 123t6 122t23 99t47 77t79.5 46.5t118.5 17.5q46 0 97 -4.5t79 -9.5l27 -5l-3 -35q-111 20 -200 20q-61 0 -103.5 -16t-67.5 -41.5t-39 -70t-18 -89.5t-4 -111t4.5 -111t18.5 -88
t39.5 -68t67.5 -40t102 -15q35 0 85 5t82 10z" />
    <glyph glyph-name="D" unicode="D" horiz-adv-x="753" 
d="M401 0h-286v700h286q56 0 101 -18.5t73.5 -50t47.5 -76t27 -92.5t8 -103t-8 -105t-27 -97.5t-47.5 -82t-73.5 -55t-101 -20.5zM155 34h246q48 0 86 19.5t61.5 51.5t39.5 75.5t22.5 87.5t6.5 92q0 47 -6.5 89.5t-22.5 83t-40 69.5t-61.5 46.5t-85.5 17.5h-246v-632z" />
    <glyph glyph-name="E" unicode="E" horiz-adv-x="624" 
d="M115 0v700h450v-34h-410v-289h344v-34h-344v-309h410v-34h-450z" />
    <glyph glyph-name="F" unicode="F" horiz-adv-x="610" 
d="M115 0v700h435v-34h-395v-316h329v-34h-329v-316h-40z" />
    <glyph glyph-name="G" unicode="G" horiz-adv-x="730" 
d="M584 656q-37 6 -96.5 12.5t-104.5 6.5q-61 0 -105 -15.5t-71 -42t-43 -69.5t-21.5 -90t-5.5 -111t6 -111t22.5 -88.5t43.5 -67.5t70.5 -40.5t103.5 -14.5q35 0 83.5 5t83.5 10t36 5v268h-165v34h204v-331l-41 -6q-41 -6 -101.5 -12.5t-99.5 -6.5q-83 0 -140 23.5
t-89 71.5t-45.5 111t-13.5 150q0 69 7.5 121.5t26.5 99.5t51 77t83 47t120 17q115 0 242 -25l-3 -35z" />
    <glyph glyph-name="H" unicode="H" horiz-adv-x="769" 
d="M614 0v334h-459v-334h-40v700h40v-332h459v332h40v-700h-40z" />
    <glyph glyph-name="I" unicode="I" horiz-adv-x="269" 
d="M115 0v700h40v-700h-40z" />
    <glyph glyph-name="J" unicode="J" horiz-adv-x="306" 
d="M151 701h39q0 -106 0.5 -297.5t0.5 -298.5q0 -123 -46 -156q-30 -21 -119 -22h-26v34q89 0 111 11q32 15 37 78q3 24 3 65v586z" />
    <glyph glyph-name="K" unicode="K" 
d="M538 700h48l-254 -352l271 -348h-50l-254 329h-144v-329h-40v700h40v-337h141z" />
    <glyph glyph-name="L" unicode="L" horiz-adv-x="544" 
d="M530 0h-415v700h40v-666h375v-34z" />
    <glyph glyph-name="M" unicode="M" horiz-adv-x="929" 
d="M731 700h83v-700h-39v666h-15l-274 -645h-55l-271 645h-15v-666h-40v700h85l269 -645z" />
    <glyph glyph-name="N" unicode="N" horiz-adv-x="739" 
d="M594 700h40v-700h-93l-368 666h-28v-666h-40v700h93l367 -666h29v666z" />
    <glyph glyph-name="O" unicode="O" horiz-adv-x="767" 
d="M387 708q143 0 214 -81t71 -265q0 -102 -12 -168t-44 -114t-87.5 -68.5t-141.5 -20.5q-89 0 -144.5 18.5t-89 64.5t-46 114t-12.5 177q0 128 31 203t93.5 107.5t167.5 32.5zM387 25q62 0 106 14.5t71 39.5t42.5 69t21 93t5.5 121q0 164 -63.5 238.5t-182.5 74.5
q-92 0 -146 -28t-80.5 -96t-26.5 -186q0 -76 6.5 -128t22.5 -95t44.5 -67t72.5 -37t107 -13z" />
    <glyph glyph-name="P" unicode="P" horiz-adv-x="708" 
d="M396 257h-241v-257h-40v700h281q119 0 173 -51t54 -160q0 -232 -227 -232zM155 291h241q185 0 185 198q0 92 -43.5 134.5t-141.5 42.5h-241v-375z" />
    <glyph glyph-name="Q" unicode="Q" horiz-adv-x="767" 
d="M581 -138l-85 140q-48 -11 -109 -11q-89 0 -144.5 18.5t-89 64.5t-46 114t-12.5 177q0 128 31 203t93.5 107.5t167.5 32.5q143 0 214 -81t71 -265q0 -151 -30 -233t-108 -114l83 -136zM134 365q0 -76 6.5 -128t22.5 -95t44.5 -67t72.5 -37t107 -13q62 0 106 14.5t71 39.5
t42.5 69t21 93t5.5 121q0 164 -63.5 238.5t-182.5 74.5q-92 0 -146 -28t-80.5 -96t-26.5 -186z" />
    <glyph glyph-name="R" unicode="R" horiz-adv-x="704" 
d="M418 290h-263v-290h-40v700h276q116 0 172.5 -48t56.5 -152q0 -87 -37.5 -139t-122.5 -66l174 -295h-45zM155 324h236q103 0 145 45t42 131q0 87 -45 126.5t-142 39.5h-236v-342z" />
    <glyph glyph-name="S" unicode="S" horiz-adv-x="527" 
d="M60 7l6 34q100 -14 166 -14q13 0 25 1q34 1 55 3.5t46 9.5t38.5 19t23 34t9.5 53q0 61 -48 110q-10 10 -32 25.5t-41.5 27.5l-57.5 35.5l-54 33.5q-35 22 -55 37.5t-38 35.5t-25 44t-7 56q0 9 1 20q4 58 59.5 98t164.5 40q96 0 172 -10l-7 -34q-72 9 -165 9
q-92 0 -137.5 -30.5t-48.5 -74.5v-19q0 -49 22 -76t86 -67q138 -86 188 -124q33 -25 47.5 -64.5t14.5 -72.5q0 -39 -13.5 -68t-32 -44.5t-49 -25t-55 -12.5t-60.5 -4q-14 -1 -29 -1q-70 0 -169 15z" />
    <glyph glyph-name="T" unicode="T" horiz-adv-x="580" 
d="M15 666v34h550v-34h-254v-666h-40v666h-256z" />
    <glyph glyph-name="U" unicode="U" horiz-adv-x="728" 
d="M155 700v-504q0 -91 53.5 -131t155.5 -40q108 0 164 39.5t56 131.5v504h39v-504q0 -109 -65.5 -157t-193.5 -48q-122 0 -185.5 48t-63.5 157v504h40z" />
    <glyph glyph-name="V" unicode="V" horiz-adv-x="589" 
d="M535 700h40l-213 -700h-128l-219 700h40l211 -666h64z" />
    <glyph glyph-name="W" unicode="W" horiz-adv-x="890" 
d="M837 700h38l-158 -700h-106l-166 643l-160 -643h-106l-164 700h39l157 -666h42l170 656h44l176 -656h42z" />
    <glyph glyph-name="X" unicode="X" horiz-adv-x="581" 
d="M62 700l229 -326l228 326h47l-245 -353l245 -347h-47l-227 322l-230 -322h-47l249 347l-249 353h47z" />
    <glyph glyph-name="Y" unicode="Y" horiz-adv-x="569" 
d="M305 301v-301h-39v301l-251 399h45l226 -359l222 359h46z" />
    <glyph glyph-name="Z" unicode="Z" horiz-adv-x="615" 
d="M60 700h495v-46l-454 -621h454v-34h-495v47l454 620h-454v34z" />
    <glyph glyph-name="bracketleft" unicode="[" horiz-adv-x="321" 
d="M261 749v-32h-161v-808h161v-32h-201v872h201z" />
    <glyph glyph-name="backslash" unicode="\" horiz-adv-x="447" 
d="M387 0h-45l-282 700h44z" />
    <glyph glyph-name="bracketright" unicode="]" horiz-adv-x="321" 
d="M60 749h201v-872h-201v32h162v808h-162v32z" />
    <glyph glyph-name="asciicircum" unicode="^" horiz-adv-x="430" 
d="M215 668l-114 -315h-41l124 347h61l125 -347h-40z" />
    <glyph glyph-name="underscore" unicode="_" horiz-adv-x="590" 
d="M60 -34h471v-34h-471v34z" />
    <glyph glyph-name="grave" unicode="`" horiz-adv-x="286" 
d="M60 732h58l108 -113h-46z" />
    <glyph glyph-name="a" unicode="a" horiz-adv-x="495" 
d="M106 464l-6 33q105 12 165 12q82 0 121 -39t39 -117v-322q-120 -40 -225 -40q-66 0 -103 37.5t-37 108.5q0 65 36 101t116 43l175 17v55q0 64 -30.5 93t-91.5 29q-60 0 -159 -11zM387 52v213l-171 -15q-115 -11 -115 -113q0 -54 26.5 -84t73.5 -30q84 0 186 29z" />
    <glyph glyph-name="b" unicode="b" horiz-adv-x="523" 
d="M81 700h39v-219q83 28 157 28q108 0 147.5 -57t39.5 -191q0 -74 -10.5 -121.5t-38 -82.5t-76.5 -50.5t-126 -15.5q-38 0 -132 6v703zM120 449v-422q65 -4 92 -4q55 0 92.5 10t61 27t36.5 47.5t17 65t4 86.5q0 60 -5.5 98t-21.5 66.5t-45 41t-74 12.5q-74 0 -157 -28z" />
    <glyph glyph-name="c" unicode="c" horiz-adv-x="445" 
d="M403 43l3 -33q-84 -17 -129 -19q-66 -3 -108 9.5t-66.5 45.5t-33.5 80.5t-9 123t9 123.5t33.5 81t66.5 45.5t108 9.5q20 -1 52 -5.5t54 -9.5l23 -4l-3 -31l-22 4l-54 9.5t-50 5.5q-56 3 -90.5 -8.5t-53.5 -42t-26 -71t-7 -106.5t7 -107t26 -71t53.5 -41.5t90.5 -8.5
q19 1 50.5 6t53.5 10z" />
    <glyph glyph-name="d" unicode="d" horiz-adv-x="523" 
d="M404 481v219h40v-703q-98 -6 -133 -6q-77 0 -126 15.5t-76.5 50.5t-38 82.5t-10.5 121.5q0 135 39.5 191.5t147.5 56.5q74 0 157 -28zM404 27v422q-83 28 -157 28q-45 0 -74 -12.5t-45 -41t-21.5 -66.5t-5.5 -98q0 -52 4 -86t17 -65t36.5 -48t61 -27t92.5 -10q27 0 92 4z
" />
    <glyph glyph-name="e" unicode="e" horiz-adv-x="515" 
d="M442 49l6 -31q-112 -27 -181 -27q-61 0 -101.5 17.5t-63.5 52t-32.5 80t-9.5 109.5q0 142 50.5 200.5t150.5 58.5q104 0 154.5 -56.5t50.5 -183.5v-33h-365q0 -108 37.5 -160.5t129.5 -52.5q65 0 174 26zM101 268h324q0 113 -38.5 161t-125.5 48q-84 0 -122 -48.5
t-38 -160.5z" />
    <glyph glyph-name="f" unicode="f" horiz-adv-x="294" 
d="M114 500l1 35q0 54 7 88t24 50t35 21t48 5q43 0 76 -12l-6 -28q-39 10 -70 10q-29 0 -44 -8t-23.5 -37.5t-8.5 -88.5v-35h115v-32h-115v-468h-39v468h-104v32h104z" />
    <glyph glyph-name="g" unicode="g" horiz-adv-x="523" 
d="M73 -146l6 31q107 -26 174 -26q87 0 118 40t33 136q-84 -28 -157 -28q-56 0 -92.5 14t-57 44t-29 71.5t-8.5 102.5q0 74 10.5 122t38 83t76.5 50t126 15q38 0 132 -6v-431q0 -52 -4 -87.5t-15.5 -67.5t-32 -50.5t-54.5 -29t-83 -10.5q-75 0 -181 27zM404 67v406
q-65 4 -92 4q-55 0 -92.5 -10t-61 -27t-36.5 -47.5t-17 -65t-4 -86.5q0 -54 5.5 -89t21.5 -62t45 -39t74 -12q73 0 157 28z" />
    <glyph glyph-name="h" unicode="h" horiz-adv-x="538" 
d="M125 700v-219q83 28 157 28q108 0 147.5 -57t39.5 -191v-261h-41v261q0 60 -5.5 97.5t-21.5 66t-44.5 40.5t-74.5 12q-74 0 -157 -28v-449h-39v700h39z" />
    <glyph glyph-name="i" unicode="i" horiz-adv-x="193" 
d="M85 645v55h39v-55h-39zM85 0v500h39v-500h-39z" />
    <glyph glyph-name="j" unicode="j" horiz-adv-x="209" 
d="M92 700h39v-55h-39v55zM92 500h39v-507q0 -54 -7.5 -88t-24 -50.5t-35 -21.5t-48.5 -5q-42 0 -75 13l5 28l39 -8q18 -3 31 -3q30 0 44.5 8.5t23 38t8.5 88.5v507z" />
    <glyph glyph-name="k" unicode="k" horiz-adv-x="492" 
d="M124 0h-39v700h39v-408h103l200 208h45l-211 -226l211 -274h-45l-200 257h-103v-257z" />
    <glyph glyph-name="l" unicode="l" horiz-adv-x="193" 
d="M85 0v700h39v-700h-39z" />
    <glyph glyph-name="m" unicode="m" horiz-adv-x="875" 
d="M80 0v469q103 40 196 40q95 0 137 -44q62 25 108 34.5t97 9.5q108 0 147.5 -57t39.5 -191v-261h-41v261q0 60 -5.5 97.5t-21.5 66t-44.5 40.5t-74.5 12q-84 0 -186 -38q31 -54 31 -178v-261h-41v261q0 60 -6 97.5t-21.5 66t-44.5 40.5t-74 12q-74 0 -158 -28v-449h-38z
" />
    <glyph glyph-name="n" unicode="n" horiz-adv-x="550" 
d="M81 0v468q107 41 196 41q110 0 156.5 -58.5t46.5 -189.5v-261h-41v261q0 115 -36 165.5t-126 50.5q-74 0 -157 -28v-449h-39z" />
    <glyph glyph-name="o" unicode="o" horiz-adv-x="542" 
d="M274 509q103 0 156 -59t53 -191q0 -73 -9.5 -121t-33 -82.5t-64 -49.5t-102.5 -15q-124 0 -169 58.5t-45 211.5q0 136 50 192t164 56zM274 23q43 0 73.5 9.5t49.5 27t29.5 48t14 65.5t3.5 86q0 116 -43.5 167t-126.5 51q-97 0 -136 -46t-39 -170q0 -69 6.5 -110.5
t25.5 -72t53 -43t90 -12.5z" />
    <glyph glyph-name="p" unicode="p" horiz-adv-x="528" 
d="M125 20v-219h-40v703q98 6 133 6q77 0 126 -15t76.5 -50t38 -83t10.5 -122q0 -134 -39.5 -191t-147.5 -57q-73 0 -157 28zM125 474v-422q83 -28 157 -28q45 0 74 12.5t45 41t21.5 66.5t5.5 98q0 52 -4.5 86.5t-17 65t-36 48t-61 27t-92.5 9.5q-27 0 -92 -4z" />
    <glyph glyph-name="q" unicode="q" horiz-adv-x="523" 
d="M443 -199h-39v219q-84 -28 -157 -28q-108 0 -147.5 57t-39.5 191q0 74 10.5 122t38 83t76.5 50t126 15q38 0 132 -6v-703zM404 52v422q-65 4 -92 4q-55 0 -92.5 -9.5t-61 -27t-36.5 -48t-17 -65t-4 -86.5q0 -60 5.5 -98t21.5 -66.5t45 -41t74 -12.5q73 0 157 28z" />
    <glyph glyph-name="r" unicode="r" horiz-adv-x="335" 
d="M81 0v468q107 41 196 41q21 0 39 -2l-6 -32q-15 2 -33 2q-74 0 -157 -28v-449h-39z" />
    <glyph glyph-name="s" unicode="s" horiz-adv-x="402" 
d="M60 6l6 30q66 -10 109 -10h16q29 1 45.5 4t34 11t25.5 26t8 45q0 42 -31.5 68.5t-120.5 88.5q-45 31 -63.5 57t-18.5 70v15q3 41 39.5 70t107.5 29q67 0 123 -9l-7 -29q-53 8 -116 8q-54 0 -80 -20t-28 -51q-1 -7 -1 -14q0 -34 14 -53t53 -46q93 -64 124 -90
q44 -37 44 -94q0 -29 -10 -50.5t-24 -33.5t-35.5 -19t-39 -9.5t-41.5 -3.5h-17q-42 0 -116 10z" />
    <glyph glyph-name="t" unicode="t" horiz-adv-x="283" 
d="M110 632h38v-133h115v-32h-115v-312q0 -84 10.5 -109t46.5 -25q24 0 57 7l-6 -31q-27 -6 -51 -6q-59 0 -77 34t-18 130v312h-105v32h105v133z" />
    <glyph glyph-name="u" unicode="u" horiz-adv-x="524" 
d="M453 499v-468q-107 -41 -180 -41q-110 0 -156.5 58.5t-46.5 189.5v261h41v-261q0 -115 36 -165.5t126 -50.5q58 0 141 28v449h39z" />
    <glyph glyph-name="v" unicode="v" horiz-adv-x="450" 
d="M15 500h41l160 -468h17l162 468h40l-172 -500h-77z" />
    <glyph glyph-name="w" unicode="w" horiz-adv-x="783" 
d="M15 500h41l139 -468h13l162 458h43l162 -458h12l141 468h40l-150 -500h-75l-152 448l-153 -448h-74z" />
    <glyph glyph-name="x" unicode="x" horiz-adv-x="448" 
d="M15 500h44l165 -223l165 223h44l-186 -250l186 -250h-45l-164 223l-164 -223h-45l186 250z" />
    <glyph glyph-name="y" unicode="y" horiz-adv-x="450" 
d="M395 500h40l-229 -664h-41l57 164h-37l-170 500h41l160 -468h17z" />
    <glyph glyph-name="z" unicode="z" horiz-adv-x="508" 
d="M50 468v32h408v-32l-361 -436h361v-32h-408v32l361 436h-361z" />
    <glyph glyph-name="braceleft" unicode="{" horiz-adv-x="422" 
d="M361 751l2 -32q-90 -4 -124 -38.5t-34 -106.5q0 -17 4 -61t4 -58q0 -65 -24 -95.5t-86 -48.5q61 -18 85.5 -49t24.5 -93q-1 -19 -3.5 -58t-4.5 -58q0 -71 34 -106t124 -39l-2 -32q-105 4 -149.5 45.5t-44.5 131.5q0 21 4 66.5t4 56.5q0 48 -26 75t-89 43v32q63 14 89 42
t26 78q0 13 -4 60.5t-4 67.5q0 90 44.5 131.5t149.5 45.5z" />
    <glyph glyph-name="bar" unicode="|" horiz-adv-x="155" 
d="M60 -59v759h35v-759h-35z" />
    <glyph glyph-name="braceright" unicode="}" horiz-adv-x="422" 
d="M60 715l2 32q105 -4 149.5 -45.5t44.5 -131.5q0 -21 -4 -66.5t-4 -56.5q0 -48 26 -75t89 -43v-32q-63 -14 -89 -42t-26 -78q0 -13 4 -60.5t4 -67.5q0 -90 -44.5 -131.5t-149.5 -45.5l-2 32q90 4 124 38.5t34 106.5q0 17 -4 61t-4 58q0 65 24 95.5t86 48.5
q-61 18 -85.5 49t-24.5 93q1 20 3.5 58t4.5 58q0 71 -34 106t-124 39z" />
    <glyph glyph-name="asciitilde" unicode="~" horiz-adv-x="654" 
d="M89 262l-29 19q93 80 160 80q39 0 73 -14t54.5 -31t49.5 -31t60 -14q37 0 113 65l25 -17q-41 -39 -74 -60t-64 -21q-33 0 -59.5 9t-45.5 22.5l-37 27t-42.5 22.5t-54.5 9q-49 0 -129 -66z" />
    <glyph glyph-name="exclamdown" unicode="&#xa1;" horiz-adv-x="164" 
d="M104 456h-44v80h44v-80zM101 -163h-39v486h39v-486z" />
    <glyph glyph-name="cent" unicode="&#xa2;" horiz-adv-x="465" 
d="M245 592h35v-83q20 -1 51.5 -6t52.5 -9l22 -4l-3 -31l-22 4l-54 9.5t-50 5.5q-55 3 -90 -8.5t-54 -42t-26 -71t-7 -106.5t7 -107t26 -71t53.5 -41.5t90.5 -8.5q19 1 50.5 6t53.5 10l22 5l3 -33q-81 -16 -126 -19v-81h-35v80q-56 1 -92 16t-56.5 48t-28.5 79t-8 116.5
t8 116.5t28.5 79.5t56.5 48.5t92 16v82z" />
    <glyph glyph-name="sterling" unicode="&#xa3;" horiz-adv-x="515" 
d="M136 406v63q0 87 15 132.5t46 62t90 16.5q18 0 51 -3t57 -6l24 -3l-6 -31q-86 11 -126 11q-27 0 -44 -3.5t-30.5 -15t-20.5 -26.5t-11 -45t-5.5 -63.5t-1.5 -88.5h201v-32h-201v-210q0 -93 -25 -130h306v-34h-395v34q23 0 35 3.5t22.5 16.5t14.5 39t4 71v210h-76v32h76z
" />
    <glyph glyph-name="yen" unicode="&#xa5;" horiz-adv-x="659" 
d="M553 660h46l-210 -295h185v-34h-209l-15 -20v-95h225v-34h-225v-182h-39v182h-226v34h226v95l-15 20h-212v34h188l-212 295h45l226 -309z" />
    <glyph glyph-name="brokenbar" unicode="&#xa6;" horiz-adv-x="157" 
d="M60 750h37v-356h-37v356zM60 296h37v-356h-37v356z" />
    <glyph glyph-name="section" unicode="&#xa7;" horiz-adv-x="402" 
d="M60 -159l6 30q64 -10 108 -10h17q28 1 45 4t34.5 11.5t25.5 26t8 44.5q0 42 -31 69q-32 26 -121 88q-45 31 -63.5 57t-18.5 70v15q3 49 49 77q-26 21 -37.5 44t-11.5 58v15q3 42 39.5 70.5t107.5 28.5q67 0 123 -8l-7 -30q-53 8 -116 8q-54 0 -80 -19.5t-28 -51.5
q-1 -7 -1 -14q0 -33 13 -51.5t47 -42.5q94 -64 131 -95q44 -37 44 -94q0 -67 -51 -95q51 -42 51 -99q0 -29 -10 -50.5t-24 -33.5t-35.5 -19t-39 -9.5t-41.5 -3.5h-17q-42 0 -116 10zM152 298l-5 3q-36 -18 -38 -57q-1 -7 -1 -14q0 -34 14 -53t53 -46l89 -64q40 18 40 74
q0 43 -31.5 69.5t-120.5 87.5z" />
    <glyph glyph-name="dieresis" unicode="&#xa8;" horiz-adv-x="345" 
d="M60 638v62h38v-62h-38zM247 638v62h39v-62h-39z" />
    <glyph glyph-name="copyright" unicode="&#xa9;" horiz-adv-x="847" 
d="M787 350q0 -100 -47 -183t-130.5 -131t-185.5 -48t-185.5 48t-131 131t-47.5 183q0 154 104 257.5t260 103.5t259.5 -103.5t103.5 -257.5zM100 350q0 -88 42.5 -162t117 -117t164.5 -43q137 0 230 94t93 228q0 136 -92.5 228.5t-230 92.5t-231 -92.5t-93.5 -228.5z
M542 197l1 -38q-60 -14 -108 -16q-104 -5 -141.5 42t-37.5 164t37.5 164.5t141.5 42.5q41 -2 108 -16l-1 -34q-79 12 -108 13q-42 2 -68.5 -6t-41 -30.5t-19 -53t-4.5 -81t4.5 -80.5t19 -52.5t41 -30.5t68.5 -6q35 2 108 18z" />
    <glyph glyph-name="ordfeminine" unicode="&#xaa;" horiz-adv-x="269" 
d="M56 630l-6 28q61 7 94 7q91 0 91 -88v-176q-68 -22 -125 -22q-37 0 -58.5 21.5t-21.5 61.5q0 73 86 81l88 9v25q0 32 -14.5 46t-45.5 14q-33 0 -88 -7zM204 420v104l-85 -7q-31 -3 -44 -17t-13 -38q0 -56 48 -56q43 0 94 14z" />
    <glyph glyph-name="guillemotleft" unicode="&#xab;" horiz-adv-x="491" 
d="M244 380l-149 -106l149 -117v-41l-184 138v36l184 129v-39zM432 380l-149 -106l149 -117v-41l-184 138v36l184 129v-39z" />
    <glyph glyph-name="registered" unicode="&#xae;" horiz-adv-x="847" 
d="M787 350q0 -100 -47 -183t-130.5 -131t-185.5 -48t-185.5 48t-131 131t-47.5 183q0 154 104 257.5t260 103.5t259.5 -103.5t103.5 -257.5zM100 350q0 -88 42.5 -162t117 -117t164.5 -43q137 0 230 94t93 228q0 136 -92.5 228.5t-230 92.5t-231 -92.5t-93.5 -228.5z
M451 305h-136v-164h-38v411h163q138 0 138 -121q0 -101 -86 -121l100 -169h-44zM315 340h125q54 0 76 23t22 68t-23.5 65.5t-74.5 20.5h-125v-177z" />
    <glyph glyph-name="macron" unicode="&#xaf;" horiz-adv-x="433" 
d="M373 662h-313v38h313v-38z" />
    <glyph glyph-name="degree" unicode="&#xb0;" horiz-adv-x="419" 
d="M101 466q-41 37 -41 98t41.5 98.5t108 37.5t108 -37.5t41.5 -98.5t-41 -98t-108 -37t-109 37zM210 461q51 0 82.5 28.5t31.5 74.5t-31.5 75t-82.5 29t-82 -28.5t-31 -75.5t31 -75t82 -28z" />
    <glyph glyph-name="plusminus" unicode="&#xb1;" horiz-adv-x="591" 
d="M60 330v34h212v138h40v-138h219v-34h-219v-144h-40v144h-212zM61 114h471v-34h-471v34z" />
    <glyph glyph-name="twosuperior" unicode="&#xb2;" horiz-adv-x="378" 
d="M58 663l-7 37q57 7 127 7q78 0 119 -27.5t44 -66.5q4 -47 -17 -73.5t-73 -57.5l-50 -29l-45 -26t-31 -19l-22 -15q-30 -29 -30 -63v-44h276v-40h-319v86q0 22 11 49t35 43q26 18 152 93q47 26 60 42.5t11 51.5q-2 25 -31 41.5t-90 16.5q-66 0 -120 -6z" />
    <glyph glyph-name="threesuperior" unicode="&#xb3;" horiz-adv-x="381" 
d="M44 656l-8 38q74 16 148 16q80 0 116.5 -29t36.5 -89q0 -68 -61 -101q75 -27 75 -115q0 -135 -160 -135q-36 0 -76 4t-63 8l-22 4l7 38q77 -15 154 -15q61 0 88.5 23t27.5 71q0 51 -28.5 71.5t-82.5 22.5h-106v39h106q34 0 65.5 22.5t31.5 62.5q0 45 -23 62t-85 17
q-32 0 -67 -4t-55 -7z" />
    <glyph glyph-name="acute" unicode="&#xb4;" horiz-adv-x="286" 
d="M60 619l108 113h58l-120 -113h-46z" />
    <glyph glyph-name="paragraph" unicode="&#xb6;" horiz-adv-x="645" 
d="M265 700h321v-33h-107v-667h-39v667h-128v-667h-40v350q-93 0 -152.5 47.5t-59.5 126.5q0 77 59 126.5t146 49.5z" />
    <glyph glyph-name="periodcentered" unicode="&#xb7;" horiz-adv-x="164" 
d="M60 283v80h44v-80h-44z" />
    <glyph glyph-name="cedilla" unicode="&#xb8;" horiz-adv-x="229" 
d="M145 1l-27 -48q32 -1 42 -13t10 -47q0 -36 -14 -50t-54 -14q-21 0 -42 4l2 26q10 -2 39 -2q21 0 26 7t5 29q0 21 -4.5 26.5t-26.5 5.5h-27l37 76h34z" />
    <glyph glyph-name="onesuperior" unicode="&#xb9;" horiz-adv-x="236" 
d="M170 699h37v-456h-43v408l-120 -74l-14 38z" />
    <glyph glyph-name="ordmasculine" unicode="&#xba;" horiz-adv-x="287" 
d="M145 661q112 0 112 -134q0 -76 -24 -109.5t-88 -33.5q-66 0 -90.5 32t-24.5 112q0 72 27.5 102.5t87.5 30.5zM145 411q51 0 66.5 25.5t15.5 90.5q0 58 -20.5 82.5t-61.5 24.5q-48 0 -66.5 -22t-18.5 -84q0 -68 16 -92.5t69 -24.5z" />
    <glyph glyph-name="guillemotright" unicode="&#xbb;" horiz-adv-x="491" 
d="M60 157l148 117l-148 106v39l184 -129v-36l-184 -138v41zM248 157l149 117l-149 106v39l184 -129v-36l-184 -138v41z" />
    <glyph glyph-name="onequarter" unicode="&#xbc;" horiz-adv-x="843" 
d="M515 716h45l-296 -733h-46zM170 701h37v-456h-43v408l-120 -74l-14 38zM617 456h46l-155 -329h195v119h43v-119h67v-39h-67v-88h-43v88h-248v30z" />
    <glyph glyph-name="onehalf" unicode="&#xbd;" horiz-adv-x="877" 
d="M516 716h44l-296 -733h-46zM170 701h37v-456h-42v408l-121 -74l-14 38zM557 416l-7 38q57 7 127 7q78 0 119.5 -27.5t43.5 -66.5q4 -47 -16.5 -73.5t-73.5 -57.5l-50 -29.5l-45 -25.5t-31 -19t-22 -16q-30 -28 -30 -63v-44h276v-39h-319v86q0 22 11 48.5t35 43.5
q26 18 152 92q47 27 60 43.5t11 51.5q-2 25 -31 41.5t-90 16.5q-66 0 -120 -7z" />
    <glyph glyph-name="threequarters" unicode="&#xbe;" horiz-adv-x="932" 
d="M604 716h45l-296 -733h-46zM44 656l-8 38q74 16 148 16q80 0 116.5 -29t36.5 -89q0 -68 -61 -101q75 -27 75 -115q0 -135 -160 -135q-36 0 -76 4t-63 8l-22 4l7 38q77 -15 154 -15q61 0 88.5 23t27.5 71q0 51 -28.5 71.5t-81.5 22.5h-107v39h106q34 0 65.5 22.5
t31.5 62.5q0 45 -23 62t-85 17q-32 0 -67 -4t-55 -7zM706 456h46l-155 -329h195v119h43v-119h67v-39h-67v-88h-43v88h-248v30z" />
    <glyph glyph-name="questiondown" unicode="&#xbf;" horiz-adv-x="522" 
d="M320 535v-80h-44v80h44zM457 -112l5 -34q-123 -27 -182 -27q-109 0 -164.5 36.5t-55.5 121.5q0 38 16 72.5t40.5 59t53 49.5l52.5 45t40.5 45.5t16.5 51.5v38h38v-41q0 -29 -16 -57t-40.5 -49.5l-52.5 -46.5l-52.5 -48t-41 -54.5t-16.5 -64.5q0 -69 45 -97t137 -28
q23 0 67.5 7t77.5 14z" />
    <glyph glyph-name="Agrave" unicode="&#xc0;" 
d="M226 932h58l108 -113h-46zM15 0l236 700h117l235 -700h-39l-75 215h-361l-73 -215h-40zM279 666l-140 -417h339l-140 417h-59z" />
    <glyph glyph-name="Aacute" unicode="&#xc1;" 
d="M226 819l107 113h59l-120 -113h-46zM15 0l236 700h117l235 -700h-39l-75 215h-361l-73 -215h-40zM279 666l-140 -417h339l-140 417h-59z" />
    <glyph glyph-name="Acircumflex" unicode="&#xc2;" 
d="M165 800l128 132h31l129 -132h-46l-98 98l-98 -98h-46zM15 0l237 700h116l235 -700h-39l-75 215h-361l-73 -215h-40zM279 666l-140 -417h339l-140 417h-59z" />
    <glyph glyph-name="Atilde" unicode="&#xc3;" 
d="M453 900l24 -17q-56 -55 -91 -55q-28 0 -52.5 13.5t-46.5 27t-43 13.5q-28 0 -76 -41l-28 18q62 54 105 54q29 0 54.5 -13t46.5 -26.5t40 -13.5q20 0 67 40zM15 0l236 700h117l235 -700h-39l-75 215h-361l-73 -215h-40zM279 666l-140 -417h339l-140 417h-59z" />
    <glyph glyph-name="Adieresis" unicode="&#xc4;" 
d="M196 838v62h38v-62h-38zM383 838v62h38v-62h-38zM15 0l236 700h117l235 -700h-39l-75 215h-361l-73 -215h-40zM279 666l-140 -417h339l-140 417h-59z" />
    <glyph glyph-name="Aring" unicode="&#xc5;" 
d="M205 848q0 40 29.5 67t74.5 27q43 0 73 -27t30 -67t-29.5 -67t-73.5 -27q-45 0 -74.5 27t-29.5 67zM243 848q0 -26 19 -44t48 -18q28 0 47 18t19 44t-19 43.5t-47 17.5q-29 0 -48 -17.5t-19 -43.5zM15 0l236 700h117l235 -700h-39l-75 215h-361l-73 -215h-40zM279 666
l-140 -417h339l-140 417h-59z" />
    <glyph glyph-name="AE" unicode="&#xc6;" horiz-adv-x="898" 
d="M245 700h519v-34h-411v-289h345v-34h-345v-309h411v-34h-450v215h-192l-74 -215h-40zM314 249v417h-42l-139 -417h181z" />
    <glyph glyph-name="Ccedilla" unicode="&#xc7;" horiz-adv-x="631" 
d="M539 660q-30 5 -80 10t-90 5q-61 0 -103.5 -16t-67.5 -41.5t-39 -70t-18 -89.5t-4 -111t4.5 -111t18.5 -88t39.5 -68t67.5 -40t102 -15q78 0 200 20l3 -34l-31 -5q-32 -5 -82.5 -10t-89.5 -5h-17l-21 -38q32 -1 41.5 -13t9.5 -47q0 -36 -13.5 -50t-53.5 -14q-22 0 -42 4
l2 26q10 -2 39 -2q21 0 26 7t5 29q0 21 -4.5 26.5t-26.5 5.5h-27l33 68q-54 6 -94 25t-65 48t-40 73.5t-20.5 93.5t-5.5 114q0 71 6 122t23 99t47 77t79.5 46.5t118.5 17.5q104 0 203 -19l-3 -35z" />
    <glyph glyph-name="Egrave" unicode="&#xc8;" horiz-adv-x="624" 
d="M235 932h59l108 -113h-47zM115 0v700h450v-34h-410v-289h344v-34h-344v-309h410v-34h-450z" />
    <glyph glyph-name="Eacute" unicode="&#xc9;" horiz-adv-x="624" 
d="M235 819l108 113h59l-121 -113h-46zM115 0v700h450v-34h-410v-289h344v-34h-344v-309h410v-34h-450z" />
    <glyph glyph-name="Ecircumflex" unicode="&#xca;" horiz-adv-x="624" 
d="M174 800l129 132h30l130 -132h-47l-97 98l-98 -98h-47zM115 0v700h450v-34h-410v-289h344v-34h-344v-309h410v-34h-450z" />
    <glyph glyph-name="Edieresis" unicode="&#xcb;" horiz-adv-x="624" 
d="M206 838v62h38v-62h-38zM393 838v62h38v-62h-38zM115 0v700h450v-34h-410v-289h344v-34h-344v-309h410v-34h-450z" />
    <glyph glyph-name="Igrave" unicode="&#xcc;" horiz-adv-x="269" 
d="M52 932h58l108 -113h-46zM115 0v700h40v-700h-40z" />
    <glyph glyph-name="Iacute" unicode="&#xcd;" horiz-adv-x="269" 
d="M52 819l108 113h58l-120 -113h-46zM115 0v700h40v-700h-40z" />
    <glyph glyph-name="Icircumflex" unicode="&#xce;" horiz-adv-x="288" 
d="M0 800l128 132h31l129 -132h-46l-97 98l-99 -98h-46zM124 0v700h40v-700h-40z" />
    <glyph glyph-name="Idieresis" unicode="&#xcf;" horiz-adv-x="269" 
d="M22 838v62h38v-62h-38zM209 838v62h39v-62h-39zM115 0v700h40v-700h-40z" />
    <glyph glyph-name="Eth" unicode="&#xd0;" horiz-adv-x="653" 
d="M82 700h286q56 0 101 -18.5t73.5 -50t48 -76t27.5 -92.5t8 -103t-8 -105t-27.5 -97.5t-48 -82t-73.5 -55t-101 -20.5h-286v324h-85v34h85v342zM122 34h246q48 0 86 19.5t61.5 51.5t39.5 75.5t22.5 87.5t6.5 92q0 47 -6.5 89.5t-22.5 83t-39.5 69.5t-61.5 46.5t-86 17.5
h-246v-308h183v-34h-183v-290z" />
    <glyph glyph-name="Ntilde" unicode="&#xd1;" horiz-adv-x="739" 
d="M514 900l24 -17q-56 -55 -91 -55q-28 0 -52.5 13.5t-46.5 27t-43 13.5q-28 0 -76 -41l-27 18q61 54 104 54q29 0 54.5 -13t46.5 -26.5t40 -13.5q20 0 67 40zM105 0v700h93l367 -666h29v666h40v-700h-93l-368 666h-28v-666h-40z" />
    <glyph glyph-name="Ograve" unicode="&#xd2;" horiz-adv-x="767" 
d="M301 932h58l108 -113h-46zM387 708q143 0 214 -81t71 -265q0 -102 -12 -168t-44 -114t-87.5 -68.5t-141.5 -20.5q-89 0 -144.5 18.5t-89 64.5t-46 114t-12.5 177q0 128 31 203t93.5 107.5t167.5 32.5zM387 25q62 0 106 14.5t71 39.5t42.5 69t21 93t5.5 121
q0 164 -63.5 238.5t-182.5 74.5q-92 0 -146 -28t-80.5 -96t-26.5 -186q0 -76 6.5 -128t22.5 -95t44.5 -67t72.5 -37t107 -13z" />
    <glyph glyph-name="Oacute" unicode="&#xd3;" horiz-adv-x="767" 
d="M301 819l108 113h58l-120 -113h-46zM387 708q143 0 214 -81t71 -265q0 -102 -12 -168t-44 -114t-87.5 -68.5t-141.5 -20.5q-89 0 -144.5 18.5t-89 64.5t-46 114t-12.5 177q0 128 31 203t93.5 107.5t167.5 32.5zM387 25q62 0 106 14.5t71 39.5t42.5 69t21 93t5.5 121
q0 164 -63.5 238.5t-182.5 74.5q-92 0 -146 -28t-80.5 -96t-26.5 -186q0 -76 6.5 -128t22.5 -95t44.5 -67t72.5 -37t107 -13z" />
    <glyph glyph-name="Ocircumflex" unicode="&#xd4;" horiz-adv-x="767" 
d="M240 800l128 132h31l129 -132h-46l-97 98l-99 -98h-46zM387 708q143 0 214 -81t71 -265q0 -102 -12 -168t-44 -114t-87.5 -68.5t-141.5 -20.5q-89 0 -144.5 18.5t-89 64.5t-46 114t-12.5 177q0 128 31 203t93.5 107.5t167.5 32.5zM387 25q62 0 106 14.5t71 39.5t42.5 69
t21 93t5.5 121q0 164 -63.5 238.5t-182.5 74.5q-92 0 -146 -28t-80.5 -96t-26.5 -186q0 -76 6.5 -128t22.5 -95t44.5 -67t72.5 -37t107 -13z" />
    <glyph glyph-name="Otilde" unicode="&#xd5;" horiz-adv-x="767" 
d="M528 900l24 -17q-56 -55 -91 -55q-28 0 -52.5 13.5t-46.5 27t-43 13.5q-28 0 -76 -41l-27 18q61 54 104 54q29 0 54.5 -13t47 -26.5t39.5 -13.5q21 0 67 40zM387 708q143 0 214 -81t71 -265q0 -102 -12 -168t-44 -114t-87.5 -68.5t-141.5 -20.5q-89 0 -144.5 18.5
t-89 64.5t-46 114t-12.5 177q0 128 31 203t93.5 107.5t167.5 32.5zM387 25q62 0 106 14.5t71 39.5t42.5 69t21 93t5.5 121q0 164 -63.5 238.5t-182.5 74.5q-92 0 -146 -28t-80.5 -96t-26.5 -186q0 -76 6.5 -128t22.5 -95t44.5 -67t72.5 -37t107 -13z" />
    <glyph glyph-name="Odieresis" unicode="&#xd6;" horiz-adv-x="767" 
d="M271 838v62h39v-62h-39zM458 838v62h39v-62h-39zM387 708q143 0 214 -81t71 -265q0 -102 -12 -168t-44 -114t-87.5 -68.5t-141.5 -20.5q-89 0 -144.5 18.5t-89 64.5t-46 114t-12.5 177q0 128 31 203t93.5 107.5t167.5 32.5zM387 25q62 0 106 14.5t71 39.5t42.5 69t21 93
t5.5 121q0 164 -63.5 238.5t-182.5 74.5q-92 0 -146 -28t-80.5 -96t-26.5 -186q0 -76 6.5 -128t22.5 -95t44.5 -67t72.5 -37t107 -13z" />
    <glyph glyph-name="multiply" unicode="&#xd7;" horiz-adv-x="616" 
d="M92 482l216 -207l216 207l30 -24l-219 -208l221 -211l-28 -23l-220 208l-219 -208l-29 23l221 211l-219 208z" />
    <glyph glyph-name="Oslash" unicode="&#xd8;" horiz-adv-x="656" 
d="M483 760h45l-37 -88q125 -72 125 -310q0 -102 -12.5 -168t-44 -114t-87 -68.5t-142.5 -20.5q-69 0 -119 12l-26 -63h-46l32 76q-74 32 -103 113t-29 236q0 128 30.5 203t93.5 107.5t167 32.5q72 0 124 -19zM186 52l254 603q-47 20 -110 20q-91 0 -145 -28t-80.5 -96
t-26.5 -186q0 -136 23 -209t85 -104zM476 635l-251 -598q44 -12 105 -12q63 0 107 14.5t71 39.5t42.5 69t20.5 93t5 121q0 202 -100 273z" />
    <glyph glyph-name="Ugrave" unicode="&#xd9;" horiz-adv-x="728" 
d="M286 932h58l108 -113h-46zM155 700v-504q0 -91 53.5 -131t155.5 -40q108 0 164 39.5t56 131.5v504h39v-504q0 -109 -65.5 -157t-193.5 -48q-122 0 -185.5 48t-63.5 157v504h40z" />
    <glyph glyph-name="Uacute" unicode="&#xda;" horiz-adv-x="728" 
d="M286 819l108 113h58l-120 -113h-46zM155 700v-504q0 -91 53.5 -131t155.5 -40q108 0 164 39.5t56 131.5v504h39v-504q0 -109 -65.5 -157t-193.5 -48q-122 0 -185.5 48t-63.5 157v504h40z" />
    <glyph glyph-name="Ucircumflex" unicode="&#xdb;" horiz-adv-x="728" 
d="M225 800l128 132h31l129 -132h-46l-97 98l-99 -98h-46zM155 700v-504q0 -91 53.5 -131t155.5 -40q108 0 164 39.5t56 131.5v504h39v-504q0 -109 -65.5 -157t-193.5 -48q-122 0 -185.5 48t-63.5 157v504h40z" />
    <glyph glyph-name="Udieresis" unicode="&#xdc;" horiz-adv-x="728" 
d="M256 838v62h39v-62h-39zM443 838v62h39v-62h-39zM155 700v-504q0 -91 53.5 -131t155.5 -40q108 0 164 39.5t56 131.5v504h39v-504q0 -109 -65.5 -157t-193.5 -48q-122 0 -185.5 48t-63.5 157v504h40z" />
    <glyph glyph-name="Yacute" unicode="&#xdd;" horiz-adv-x="569" 
d="M201 819l108 113h59l-120 -113h-47zM305 301v-301h-39v301l-251 399h45l226 -359l222 359h46z" />
    <glyph glyph-name="Thorn" unicode="&#xde;" horiz-adv-x="615" 
d="M360 135h-240v-135h-40v700h40v-122h240q119 0 173.5 -51t54.5 -160q0 -232 -228 -232zM120 169h240q186 0 186 198q0 92 -43.5 134.5t-142.5 42.5h-240v-375z" />
    <glyph glyph-name="germandbls" unicode="&#xdf;" horiz-adv-x="533" 
d="M75 0v544q0 82 43.5 123t114.5 41q124 0 174 -38t50 -126q0 -115 -113 -152q70 -18 105 -65.5t35 -147.5q0 -55 -18 -92t-54.5 -58t-82.5 -29.5t-109 -8.5v34q113 0 167.5 33.5t54.5 119.5q0 58 -14.5 96.5t-44.5 59t-68 28t-95 7.5v36q105 1 149.5 33t44.5 105
q0 75 -37 103t-144 28q-52 0 -84 -31t-32 -100v-543h-42z" />
    <glyph glyph-name="agrave" unicode="&#xe0;" horiz-adv-x="495" 
d="M166 732h59l108 -113h-46zM106 464l-6 33q105 12 165 12q82 0 121 -39t39 -117v-322q-120 -40 -225 -40q-66 0 -103 37.5t-37 108.5q0 65 36 101t116 43l175 17v55q0 64 -30.5 93t-91.5 29q-60 0 -159 -11zM387 52v213l-171 -15q-115 -11 -115 -113q0 -54 26.5 -84
t73.5 -30q84 0 186 29z" />
    <glyph glyph-name="aacute" unicode="&#xe1;" horiz-adv-x="495" 
d="M274 732h59l-120 -113h-47zM106 464l-6 33q105 12 165 12q82 0 121 -39t39 -117v-322q-120 -40 -225 -40q-66 0 -103 37.5t-37 108.5q0 65 36 101t116 43l175 17v55q0 64 -30.5 93t-91.5 29q-60 0 -159 -11zM387 52v213l-171 -15q-115 -11 -115 -113q0 -54 26.5 -84
t73.5 -30q84 0 186 29z" />
    <glyph glyph-name="acircumflex" unicode="&#xe2;" horiz-adv-x="495" 
d="M106 600l128 132h30l130 -132h-47l-97 98l-98 -98h-46zM106 464l-6 33q105 12 165 12q82 0 121 -39t39 -117v-322q-120 -40 -225 -40q-66 0 -103 37.5t-37 108.5q0 65 36 101t116 43l175 17v55q0 64 -30.5 93t-91.5 29q-60 0 -159 -11zM387 52v213l-171 -15
q-115 -11 -115 -113q0 -54 26.5 -84t73.5 -30q84 0 186 29z" />
    <glyph glyph-name="atilde" unicode="&#xe3;" horiz-adv-x="495" 
d="M394 700l24 -17q-56 -55 -91 -55q-28 0 -53 13.5t-46.5 27t-42.5 13.5q-28 0 -76 -41l-28 18q62 54 105 54q29 0 54.5 -13t46.5 -26.5t40 -13.5q20 0 67 40zM106 464l-6 33q105 12 165 12q82 0 121 -39t39 -117v-322q-120 -40 -225 -40q-66 0 -103 37.5t-37 108.5
q0 65 36 101t116 43l175 17v55q0 64 -30.5 93t-91.5 29q-60 0 -159 -11zM387 52v213l-171 -15q-115 -11 -115 -113q0 -54 26.5 -84t73.5 -30q84 0 186 29z" />
    <glyph glyph-name="adieresis" unicode="&#xe4;" horiz-adv-x="495" 
d="M137 700h38v-62h-38v62zM324 700h38v-62h-38v62zM106 464l-6 33q105 12 165 12q82 0 121 -39t39 -117v-322q-120 -40 -225 -40q-66 0 -103 37.5t-37 108.5q0 65 36 101t116 43l175 17v55q0 64 -30.5 93t-91.5 29q-60 0 -159 -11zM387 52v213l-171 -15q-115 -11 -115 -113
q0 -54 26.5 -84t73.5 -30q84 0 186 29z" />
    <glyph glyph-name="aring" unicode="&#xe5;" horiz-adv-x="495" 
d="M250 742q43 0 73 -27t30 -67t-29.5 -67t-73.5 -27q-45 0 -74.5 27t-29.5 67t29.5 67t74.5 27zM251 709q-29 0 -48 -17.5t-19 -43.5t19 -44t48 -18q28 0 47 18t19 44t-19 43.5t-47 17.5zM106 464l-6 33q105 12 165 12q82 0 121 -39t39 -117v-322q-120 -40 -225 -40
q-66 0 -103 37.5t-37 108.5q0 65 36 101t116 43l175 17v55q0 64 -30.5 93t-91.5 29q-60 0 -159 -11zM387 52v213l-171 -15q-115 -11 -115 -113q0 -54 26.5 -84t73.5 -30q84 0 186 29z" />
    <glyph glyph-name="ae" unicode="&#xe6;" horiz-adv-x="844" 
d="M106 464l-6 33q105 12 165 12q125 0 152 -93q45 93 173 93q103 0 153.5 -56.5t50.5 -183.5v-33h-365q0 -108 37.5 -160.5t129.5 -52.5q65 0 174 26l6 -31q-112 -27 -181 -27q-123 1 -170 76v-36q-120 -40 -225 -40q-66 0 -103 37.5t-37 108.5q0 65 36 101t116 43l175 17
v55q0 64 -30.5 93t-91.5 29q-60 0 -159 -11zM429 268h324q0 113 -38.5 161t-124.5 48q-84 0 -122.5 -48.5t-38.5 -160.5zM387 52v213l-171 -15q-115 -11 -115 -113q0 -54 26.5 -84t73.5 -30q84 0 186 29z" />
    <glyph glyph-name="ccedilla" unicode="&#xe7;" horiz-adv-x="437" 
d="M178 -75l33 66q-94 7 -128.5 66t-34.5 193q0 75 9.5 123t33.5 81t66 45.5t108 9.5q20 -1 52 -5.5t55 -9.5l22 -4l-2 -31l-22 4l-54 9.5t-51 5.5q-55 3 -90 -8.5t-54 -42t-25.5 -71t-6.5 -106.5t6.5 -107t25.5 -71t54 -41.5t90 -8.5q19 1 50.5 6t54.5 10l22 5l2 -33
q-84 -17 -129 -20h-22l-21 -37q32 -1 42 -13t10 -47q0 -36 -14 -50t-53 -14q-22 0 -43 4l2 26l40 -2q21 0 25.5 7t4.5 29q0 21 -4.5 26.5t-25.5 5.5h-28z" />
    <glyph glyph-name="egrave" unicode="&#xe8;" horiz-adv-x="515" 
d="M189 732h59l108 -113h-47zM442 49l6 -31q-112 -27 -181 -27q-61 0 -101.5 17.5t-63.5 52t-32.5 80t-9.5 109.5q0 142 50.5 200.5t150.5 58.5q104 0 154.5 -56.5t50.5 -183.5v-33h-365q0 -108 37.5 -160.5t129.5 -52.5q65 0 174 26zM101 268h324q0 113 -38.5 161
t-125.5 48q-84 0 -122 -48.5t-38 -160.5z" />
    <glyph glyph-name="eacute" unicode="&#xe9;" horiz-adv-x="515" 
d="M297 732h59l-121 -113h-46zM442 49l6 -31q-112 -27 -181 -27q-61 0 -101.5 17.5t-63.5 52t-32.5 80t-9.5 109.5q0 142 50.5 200.5t150.5 58.5q104 0 154.5 -56.5t50.5 -183.5v-33h-365q0 -108 37.5 -160.5t129.5 -52.5q65 0 174 26zM101 268h324q0 113 -38.5 161
t-125.5 48q-84 0 -122 -48.5t-38 -160.5z" />
    <glyph glyph-name="ecircumflex" unicode="&#xea;" horiz-adv-x="515" 
d="M256 732h31l130 -132h-47l-97 98l-98 -98h-47zM442 49l6 -31q-112 -27 -181 -27q-61 0 -101.5 17.5t-63.5 52t-32.5 80t-9.5 109.5q0 142 50.5 200.5t150.5 58.5q104 0 154.5 -56.5t50.5 -183.5v-33h-365q0 -108 37.5 -160.5t129.5 -52.5q65 0 174 26zM101 268h324
q0 113 -38.5 161t-125.5 48q-84 0 -122 -48.5t-38 -160.5z" />
    <glyph glyph-name="edieresis" unicode="&#xeb;" horiz-adv-x="515" 
d="M160 700h38v-62h-38v62zM347 700h38v-62h-38v62zM442 49l6 -31q-112 -27 -181 -27q-61 0 -101.5 17.5t-63.5 52t-32.5 80t-9.5 109.5q0 142 50.5 200.5t150.5 58.5q104 0 154.5 -56.5t50.5 -183.5v-33h-365q0 -108 37.5 -160.5t129.5 -52.5q65 0 174 26zM101 268h324
q0 113 -38.5 161t-125.5 48q-84 0 -122 -48.5t-38 -160.5z" />
    <glyph glyph-name="igrave" unicode="&#xec;" horiz-adv-x="190" 
d="M20 732h58l108 -113h-46zM85 0v500h35v-500h-35z" />
    <glyph glyph-name="iacute" unicode="&#xed;" horiz-adv-x="190" 
d="M20 619l108 113h58l-120 -113h-46zM85 0v500h35v-500h-35z" />
    <glyph glyph-name="icircumflex" unicode="&#xee;" horiz-adv-x="190" 
d="M-41 600l128 132h31l129 -132h-46l-97 98l-99 -98h-46zM85 0v500h35v-500h-35z" />
    <glyph glyph-name="idieresis" unicode="&#xef;" horiz-adv-x="225" 
d="M0 638v62h38v-62h-38zM187 638v62h39v-62h-39zM95 0v500h35v-500h-35z" />
    <glyph glyph-name="eth" unicode="&#xf0;" horiz-adv-x="666" 
d="M507 630l87 68l22 -29l-88 -68q55 -85 55 -244q0 -188 -62.5 -276.5t-197.5 -88.5q-125 0 -186.5 59.5t-61.5 169.5q0 105 59 156.5t182 51.5q46 0 101.5 -12.5t88.5 -24.5t33 -13q-1 126 -43 197l-100 -78l-22 29l101 78q-59 67 -177 67q-44 0 -89 -5t-69 -9l-23 -5
l-5 35q88 20 186 20q139 0 209 -78zM538 300l2 42l-35 13.5t-81 22.5t-107 16q-198 0 -198 -173q0 -193 204 -193q106 0 156.5 68t58.5 204z" />
    <glyph glyph-name="ntilde" unicode="&#xf1;" horiz-adv-x="550" 
d="M429 700l25 -17q-57 -55 -92 -55q-28 0 -52.5 13.5t-46 27t-43.5 13.5q-28 0 -75 -41l-28 18q62 54 105 54q29 0 54 -13t46.5 -26.5t39.5 -13.5q21 0 67 40zM81 0v468q107 41 196 41q110 0 156.5 -58.5t46.5 -189.5v-261h-41v261q0 115 -36 165.5t-126 50.5
q-74 0 -157 -28v-449h-39z" />
    <glyph glyph-name="ograve" unicode="&#xf2;" horiz-adv-x="542" 
d="M188 732h59l107 -113h-46zM274 509q103 0 156 -59t53 -191q0 -73 -9.5 -121t-33 -82.5t-64 -49.5t-102.5 -15q-124 0 -169 58.5t-45 211.5q0 136 50 192t164 56zM274 23q43 0 73.5 9.5t49.5 27t29.5 48t14 65.5t3.5 86q0 116 -43.5 167t-126.5 51q-97 0 -136 -46
t-39 -170q0 -69 6.5 -110.5t25.5 -72t53 -43t90 -12.5z" />
    <glyph glyph-name="oacute" unicode="&#xf3;" horiz-adv-x="542" 
d="M188 619l108 113h58l-120 -113h-46zM274 509q103 0 156 -59t53 -191q0 -73 -9.5 -121t-33 -82.5t-64 -49.5t-102.5 -15q-124 0 -169 58.5t-45 211.5q0 136 50 192t164 56zM274 23q43 0 73.5 9.5t49.5 27t29.5 48t14 65.5t3.5 86q0 116 -43.5 167t-126.5 51
q-97 0 -136 -46t-39 -170q0 -69 6.5 -110.5t25.5 -72t53 -43t90 -12.5z" />
    <glyph glyph-name="ocircumflex" unicode="&#xf4;" horiz-adv-x="542" 
d="M127 600l128 132h31l129 -132h-46l-97 98l-99 -98h-46zM274 509q103 0 156 -59t53 -191q0 -73 -9.5 -121t-33 -82.5t-64 -49.5t-102.5 -15q-124 0 -169 58.5t-45 211.5q0 136 50 192t164 56zM274 23q43 0 73.5 9.5t49.5 27t29.5 48t14 65.5t3.5 86q0 116 -43.5 167
t-126.5 51q-97 0 -136 -46t-39 -170q0 -69 6.5 -110.5t25.5 -72t53 -43t90 -12.5z" />
    <glyph glyph-name="otilde" unicode="&#xf5;" horiz-adv-x="542" 
d="M415 700l25 -17q-57 -55 -92 -55q-28 0 -52.5 13.5t-46 27t-43.5 13.5q-28 0 -76 -41l-27 18q61 54 104 54q30 0 55 -13t46.5 -26.5t39.5 -13.5q21 0 67 40zM273 509q104 0 157 -59t53 -191q0 -73 -9.5 -121t-33 -82.5t-64 -49.5t-103.5 -15q-123 0 -168 58.5t-45 211.5
q0 136 50 192t163 56zM273 23q44 0 74.5 9.5t49.5 27t29.5 48t14 65.5t3.5 86q0 116 -43.5 167t-127.5 51q-96 0 -135 -46t-39 -170q0 -69 6.5 -110.5t25.5 -72t53 -43t89 -12.5z" />
    <glyph glyph-name="odieresis" unicode="&#xf6;" horiz-adv-x="542" 
d="M159 638v62h38v-62h-38zM346 638v62h38v-62h-38zM274 509q103 0 156 -59t53 -191q0 -73 -9.5 -121t-33 -82.5t-64 -49.5t-102.5 -15q-124 0 -169 58.5t-45 211.5q0 136 50 192t164 56zM274 23q43 0 73.5 9.5t49.5 27t29.5 48t14 65.5t3.5 86q0 116 -43.5 167t-126.5 51
q-97 0 -136 -46t-39 -170q0 -69 6.5 -110.5t25.5 -72t53 -43t90 -12.5z" />
    <glyph glyph-name="divide" unicode="&#xf7;" horiz-adv-x="489" 
d="M223 483v80h44v-80h-44zM60 334v36h370v-36h-370zM223 139v80h44v-80h-44z" />
    <glyph glyph-name="oslash" unicode="&#xf8;" horiz-adv-x="526" 
d="M366 561h44l-31 -77q95 -52 95 -225q0 -73 -9 -121t-32.5 -82.5t-64 -49.5t-103.5 -15q-48 0 -80 7l-24 -59h-46l30 73q-52 24 -72.5 82.5t-20.5 166.5q0 136 50 192t163 56q43 0 76 -9zM158 45l170 423q-27 9 -63 9q-96 0 -135.5 -46t-39.5 -170q0 -93 14.5 -143.5
t53.5 -72.5zM366 450l-169 -420q28 -7 68 -7q44 0 74.5 10t49 27t29 47.5t14.5 65.5t4 86q0 143 -70 191z" />
    <glyph glyph-name="ugrave" unicode="&#xf9;" horiz-adv-x="524" 
d="M187 732h59l108 -113h-47zM453 499v-468q-107 -41 -180 -41q-110 0 -156.5 58.5t-46.5 189.5v261h41v-261q0 -115 36 -165.5t126 -50.5q58 0 141 28v449h39z" />
    <glyph glyph-name="uacute" unicode="&#xfa;" horiz-adv-x="524" 
d="M187 619l108 113h59l-121 -113h-46zM453 499v-468q-107 -41 -180 -41q-110 0 -156.5 58.5t-46.5 189.5v261h41v-261q0 -115 36 -165.5t126 -50.5q58 0 141 28v449h39z" />
    <glyph glyph-name="ucircumflex" unicode="&#xfb;" horiz-adv-x="524" 
d="M126 600l128 132h31l129 -132h-46l-97 98l-98 -98h-47zM453 499v-468q-107 -41 -180 -41q-110 0 -156.5 58.5t-46.5 189.5v261h41v-261q0 -115 36 -165.5t126 -50.5q58 0 141 28v449h39z" />
    <glyph glyph-name="udieresis" unicode="&#xfc;" horiz-adv-x="524" 
d="M158 638v62h38v-62h-38zM345 638v62h38v-62h-38zM453 499v-468q-107 -41 -180 -41q-110 0 -156.5 58.5t-46.5 189.5v261h41v-261q0 -115 36 -165.5t126 -50.5q58 0 141 28v449h39z" />
    <glyph glyph-name="yacute" unicode="&#xfd;" horiz-adv-x="450" 
d="M240 732h58l-120 -113h-46zM395 500h40l-229 -664h-41l57 164h-37l-170 500h41l160 -468h17z" />
    <glyph glyph-name="thorn" unicode="&#xfe;" horiz-adv-x="538" 
d="M161 700v-231l28 11t67.5 18t93.5 11q108 0 147.5 -57t39.5 -191q0 -74 -10.5 -121.5t-38 -82.5t-77 -50.5t-125.5 -15.5q-59 0 -125 6v-160h-39v863h39zM161 437v-408q86 -6 124 -6q55 0 92.5 10t61 27t36 48t17 65t4.5 86q0 60 -5.5 98t-21.5 66.5t-45 41t-74 12.5
q-44 0 -91 -10t-73 -20z" />
    <glyph glyph-name="ydieresis" unicode="&#xff;" horiz-adv-x="450" 
d="M102 700h39v-62h-39v62zM289 700h39v-62h-39v62zM395 500h40l-229 -664h-41l57 164h-37l-170 500h41l160 -468h17z" />
    <glyph glyph-name="Amacron" unicode="&#x100;" 
d="M465 862h-313v38h313v-38zM252 700h116l235 -700h-39l-75 215h-361l-73 -215h-40zM478 249l-140 417h-59l-140 -417h339z" />
    <glyph glyph-name="amacron" unicode="&#x101;" horiz-adv-x="495" 
d="M406 662h-313v38h313v-38zM106 464l-6 33q105 12 165 12q82 0 121 -39t39 -117v-322q-120 -40 -225 -40q-66 0 -103 37.5t-37 108.5q0 65 36 101t116 43l175 17v55q0 64 -30.5 93t-91.5 29q-60 0 -159 -11zM387 52v213l-171 -15q-115 -11 -115 -113q0 -54 26.5 -84
t73.5 -30q84 0 186 29z" />
    <glyph glyph-name="Abreve" unicode="&#x102;" 
d="M379 937h33q0 -41 -30 -70.5t-73 -29.5q-44 0 -74 29.5t-30 70.5h35q0 -26 20.5 -44t49.5 -18q28 0 48.5 18t20.5 44zM252 700h116l235 -700h-39l-75 215h-361l-73 -215h-40zM478 249l-140 417h-59l-140 -417h339z" />
    <glyph glyph-name="abreve" unicode="&#x103;" horiz-adv-x="495" 
d="M320 737h33q0 -41 -30 -70.5t-73 -29.5q-44 0 -74 29.5t-30 70.5h35q0 -26 20.5 -44t49.5 -18q28 0 48.5 18t20.5 44zM106 464l-6 33q105 12 165 12q82 0 121 -39t39 -117v-322q-120 -40 -225 -40q-66 0 -103 37.5t-37 108.5q0 65 36 101t116 43l175 17v55q0 64 -30.5 93
t-91.5 29q-60 0 -159 -11zM387 52v213l-171 -15q-115 -11 -115 -113q0 -54 26.5 -84t73.5 -30q84 0 186 29z" />
    <glyph glyph-name="Aogonek" unicode="&#x104;" 
d="M252 700h116l235 -700h-3q-32 -13 -53 -41t-21 -57q0 -14 6 -26q13 -26 57 -26q14 0 28 3l4 -27q-24 -6 -45 -6q-59 0 -77 42q-7 17 -7 35q0 33 20.5 61.5t51.5 41.5l-75 215h-361l-73 -215h-40zM478 249l-140 417h-59l-140 -417h339z" />
    <glyph glyph-name="aogonek" unicode="&#x105;" horiz-adv-x="495" 
d="M432 -115l5 -27q-25 -6 -45 -6q-60 0 -78 42q-7 17 -7 36q0 43 34 77q-68 -16 -141 -16q-66 0 -103 37.5t-37 108.5q0 65 36 101t116 43l175 17v55q0 64 -30.5 93t-91.5 29q-60 0 -159 -11l-6 33q105 12 165 12q82 0 121 -39t39 -117v-322q-17 -6 -33 -10
q-22 -16 -36.5 -39.5t-14.5 -47.5q0 -14 6 -26q13 -26 57 -26q14 0 28 3zM387 52v213l-171 -15q-115 -11 -115 -113q0 -54 26.5 -84t73.5 -30q84 0 186 29z" />
    <glyph glyph-name="Cacute" unicode="&#x106;" horiz-adv-x="632" 
d="M245 819l107 113h59l-120 -113h-46zM569 45l3 -34q-116 -20 -203 -20q-67 0 -115.5 16t-79 44.5t-48.5 74.5t-24.5 98t-6.5 123t6 122t23 99t47 77t79.5 46.5t118.5 17.5q46 0 97 -4.5t79 -9.5l27 -5l-3 -35q-111 20 -200 20q-61 0 -103.5 -16t-67.5 -41.5t-39 -70
t-18 -89.5t-4 -111t4.5 -111t18.5 -88t39.5 -68t67.5 -40t102 -15q35 0 85 5t82 10z" />
    <glyph glyph-name="cacute" unicode="&#x107;" horiz-adv-x="445" 
d="M403 43l3 -33q-84 -17 -129 -19q-66 -3 -108 9.5t-66.5 45.5t-33.5 80.5t-9 123t9 123.5t33.5 81t66.5 45.5t108 9.5q20 -1 52 -5.5t54 -9.5l23 -4l-3 -31l-22 4l-54 9.5t-50 5.5q-56 3 -90.5 -8.5t-53.5 -42t-26 -71t-7 -106.5t7 -107t26 -71t53.5 -41.5t90.5 -8.5
q19 1 50.5 6t53.5 10zM148 619l107 113h59l-120 -113h-46z" />
    <glyph glyph-name="Cdotaccent" unicode="&#x10a;" horiz-adv-x="632" 
d="M308 838v62h39v-62h-39zM569 45l3 -34q-116 -20 -203 -20q-67 0 -115.5 16t-79 44.5t-48.5 74.5t-24.5 98t-6.5 123t6 122t23 99t47 77t79.5 46.5t118.5 17.5q46 0 97 -4.5t79 -9.5l27 -5l-3 -35q-111 20 -200 20q-61 0 -103.5 -16t-67.5 -41.5t-39 -70t-18 -89.5
t-4 -111t4.5 -111t18.5 -88t39.5 -68t67.5 -40t102 -15q35 0 85 5t82 10z" />
    <glyph glyph-name="cdotaccent" unicode="&#x10b;" horiz-adv-x="445" 
d="M403 43l3 -33q-84 -17 -129 -19q-66 -3 -108 9.5t-66.5 45.5t-33.5 80.5t-9 123t9 123.5t33.5 81t66.5 45.5t108 9.5q20 -1 52 -5.5t54 -9.5l23 -4l-3 -31l-22 4l-54 9.5t-50 5.5q-56 3 -90.5 -8.5t-53.5 -42t-26 -71t-7 -106.5t7 -107t26 -71t53.5 -41.5t90.5 -8.5
q19 1 50.5 6t53.5 10zM211 638v62h39v-62h-39z" />
    <glyph glyph-name="Ccaron" unicode="&#x10c;" horiz-adv-x="632" 
d="M343 800h-31l-128 132h46l98 -98l98 98h46zM569 45l3 -34q-116 -20 -203 -20q-67 0 -115.5 16t-79 44.5t-48.5 74.5t-24.5 98t-6.5 123t6 122t23 99t47 77t79.5 46.5t118.5 17.5q46 0 97 -4.5t79 -9.5l27 -5l-3 -35q-111 20 -200 20q-61 0 -103.5 -16t-67.5 -41.5
t-39 -70t-18 -89.5t-4 -111t4.5 -111t18.5 -88t39.5 -68t67.5 -40t102 -15q35 0 85 5t82 10z" />
    <glyph glyph-name="ccaron" unicode="&#x10d;" horiz-adv-x="445" 
d="M403 43l3 -33q-84 -17 -129 -19q-66 -3 -108 9.5t-66.5 45.5t-33.5 80.5t-9 123t9 123.5t33.5 81t66.5 45.5t108 9.5q20 -1 52 -5.5t54 -9.5l23 -4l-3 -31l-22 4l-54 9.5t-50 5.5q-56 3 -90.5 -8.5t-53.5 -42t-26 -71t-7 -106.5t7 -107t26 -71t53.5 -41.5t90.5 -8.5
q19 1 50.5 6t53.5 10zM246 600h-31l-128 132h46l98 -98l98 98h46z" />
    <glyph glyph-name="Dcaron" unicode="&#x10e;" horiz-adv-x="753" 
d="M392 800h-31l-128 132h46l99 -98l97 98h46zM401 0h-286v700h286q56 0 101 -18.5t73.5 -50t47.5 -76t27 -92.5t8 -103t-8 -105t-27 -97.5t-47.5 -82t-73.5 -55t-101 -20.5zM155 34h246q48 0 86 19.5t61.5 51.5t39.5 75.5t22.5 87.5t6.5 92q0 47 -6.5 89.5t-22.5 83
t-40 69.5t-61.5 46.5t-85.5 17.5h-246v-632z" />
    <glyph glyph-name="dcaron" unicode="&#x10f;" horiz-adv-x="523" 
d="M60 527l44 200h42l-54 -200h-32zM404 481v219h40v-703q-98 -6 -133 -6q-77 0 -126 15.5t-76.5 50.5t-38 82.5t-10.5 121.5q0 135 39.5 191.5t147.5 56.5q74 0 157 -28zM404 27v422q-83 28 -157 28q-45 0 -74 -12.5t-45 -41t-21.5 -66.5t-5.5 -98q0 -52 4 -86t17 -65
t36.5 -48t61 -27t92.5 -10q27 0 92 4z" />
    <glyph glyph-name="Dcroat" unicode="&#x110;" horiz-adv-x="753" 
d="M82 700h286q56 0 101 -18.5t73.5 -50t48 -76t27.5 -92.5t8 -103t-8 -105t-27.5 -97.5t-48 -82t-73.5 -55t-101 -20.5h-286v324h-85v34h85v342zM122 34h246q48 0 86 19.5t61.5 51.5t39.5 75.5t22.5 87.5t6.5 92q0 47 -6.5 89.5t-22.5 83t-39.5 69.5t-61.5 46.5t-86 17.5
h-246v-308h183v-34h-183v-290z" />
    <glyph glyph-name="dcroat" unicode="&#x111;" horiz-adv-x="574" 
d="M569 623v-38h-125v-588q-98 -6 -133 -6q-77 0 -126 15.5t-76.5 50.5t-38 82.5t-10.5 121.5q0 135 39.5 191.5t147.5 56.5q74 0 157 -28v104h-148v38h148v77h39v-77h126zM404 27v422q-83 28 -157 28q-45 0 -74 -12.5t-45 -41t-21.5 -66.5t-5.5 -98q0 -52 4 -86t17 -65
t36.5 -48t61 -27t92.5 -10q27 0 92 4z" />
    <glyph glyph-name="Emacron" unicode="&#x112;" horiz-adv-x="624" 
d="M475 862h-313v38h313v-38zM115 0v700h450v-34h-410v-289h344v-34h-344v-309h410v-34h-450z" />
    <glyph glyph-name="emacron" unicode="&#x113;" horiz-adv-x="515" 
d="M429 662h-313v38h313v-38zM442 49l6 -31q-112 -27 -181 -27q-61 0 -101.5 17.5t-63.5 52t-32.5 80t-9.5 109.5q0 142 50.5 200.5t150.5 58.5q104 0 154.5 -56.5t50.5 -183.5v-33h-365q0 -108 37.5 -160.5t129.5 -52.5q65 0 174 26zM101 268h324q0 113 -38.5 161
t-125.5 48q-84 0 -122 -48.5t-38 -160.5z" />
    <glyph glyph-name="Edotaccent" unicode="&#x116;" horiz-adv-x="624" 
d="M299 838v62h39v-62h-39zM115 0v700h450v-34h-410v-289h344v-34h-344v-309h410v-34h-450z" />
    <glyph glyph-name="edotaccent" unicode="&#x117;" horiz-adv-x="515" 
d="M253 638v62h39v-62h-39zM442 49l6 -31q-112 -27 -181 -27q-61 0 -101.5 17.5t-63.5 52t-32.5 80t-9.5 109.5q0 142 50.5 200.5t150.5 58.5q104 0 154.5 -56.5t50.5 -183.5v-33h-365q0 -108 37.5 -160.5t129.5 -52.5q65 0 174 26zM101 268h324q0 113 -38.5 161t-125.5 48
q-84 0 -122 -48.5t-38 -160.5z" />
    <glyph glyph-name="Eogonek" unicode="&#x118;" horiz-adv-x="624" 
d="M115 700h450v-34h-410v-289h344v-34h-344v-309h410v-34h-37q-24 -15 -39.5 -39.5t-15.5 -48.5q0 -14 6 -26q13 -26 57 -26q14 0 28 3l5 -27q-25 -6 -45 -6q-60 0 -78 42q-7 17 -7 35q0 27 14.5 52t38.5 41h-377v700z" />
    <glyph glyph-name="eogonek" unicode="&#x119;" horiz-adv-x="515" 
d="M466 269v-33h-365q0 -108 37.5 -160.5t129.5 -52.5q65 0 174 26l6 -31q-98 -24 -165 -27q-42 -35 -42 -79q0 -14 6 -26q13 -26 57 -26q14 0 27 3l5 -27q-24 -6 -45 -6q-60 0 -77 42q-7 17 -7 35q0 50 41 85q-106 5 -147 68.5t-41 189.5q0 142 50.5 200.5t150.5 58.5
q104 0 154.5 -56.5t50.5 -183.5zM101 268h324q0 113 -38.5 161t-125.5 48q-84 0 -122 -48.5t-38 -160.5z" />
    <glyph glyph-name="Ecaron" unicode="&#x11a;" horiz-adv-x="624" 
d="M333 800h-31l-128 132h47l98 -98l97 98h46zM115 0v700h450v-34h-410v-289h344v-34h-344v-309h410v-34h-450z" />
    <glyph glyph-name="ecaron" unicode="&#x11b;" horiz-adv-x="515" 
d="M287 600h-31l-128 132h47l98 -98l97 98h46zM442 49l6 -31q-112 -27 -181 -27q-61 0 -101.5 17.5t-63.5 52t-32.5 80t-9.5 109.5q0 142 50.5 200.5t150.5 58.5q104 0 154.5 -56.5t50.5 -183.5v-33h-365q0 -108 37.5 -160.5t129.5 -52.5q65 0 174 26zM101 268h324
q0 113 -38.5 161t-125.5 48q-84 0 -122 -48.5t-38 -160.5z" />
    <glyph glyph-name="Gbreve" unicode="&#x11e;" horiz-adv-x="730" 
d="M435 937h33q0 -41 -30 -70.5t-73 -29.5q-44 0 -73.5 29.5t-29.5 70.5h34q0 -26 20.5 -44t49.5 -18q28 0 48.5 18t20.5 44zM584 656q-37 6 -96.5 12.5t-104.5 6.5q-61 0 -105 -15.5t-71 -42t-43 -69.5t-21.5 -90t-5.5 -111t6 -111t22.5 -88.5t43.5 -67.5t70.5 -40.5
t103.5 -14.5q35 0 83.5 5t83.5 10t36 5v268h-165v34h204v-331l-41 -6q-41 -6 -101.5 -12.5t-99.5 -6.5q-83 0 -140 23.5t-89 71.5t-45.5 111t-13.5 150q0 69 7.5 121.5t26.5 99.5t51 77t83 47t120 17q115 0 242 -25l-3 -35z" />
    <glyph glyph-name="gbreve" unicode="&#x11f;" horiz-adv-x="523" 
d="M332 737h33q0 -41 -30 -70.5t-73 -29.5q-44 0 -73.5 29.5t-29.5 70.5h34q0 -26 20.5 -44t49.5 -18q28 0 48.5 18t20.5 44zM73 -146l6 31q107 -26 174 -26q87 0 118 40t33 136q-84 -28 -157 -28q-56 0 -92.5 14t-57 44t-29 71.5t-8.5 102.5q0 74 10.5 122t38 83t76.5 50
t126 15q38 0 132 -6v-431q0 -52 -4 -87.5t-15.5 -67.5t-32 -50.5t-54.5 -29t-83 -10.5q-75 0 -181 27zM404 67v406q-65 4 -92 4q-55 0 -92.5 -10t-61 -27t-36.5 -47.5t-17 -65t-4 -86.5q0 -54 5.5 -89t21.5 -62t45 -39t74 -12q73 0 157 28z" />
    <glyph glyph-name="Gdotaccent" unicode="&#x120;" horiz-adv-x="730" 
d="M346 838v62h38v-62h-38zM584 656q-37 6 -96.5 12.5t-104.5 6.5q-61 0 -105 -15.5t-71 -42t-43 -69.5t-21.5 -90t-5.5 -111t6 -111t22.5 -88.5t43.5 -67.5t70.5 -40.5t103.5 -14.5q35 0 83.5 5t83.5 10t36 5v268h-165v34h204v-331l-41 -6q-41 -6 -101.5 -12.5t-99.5 -6.5
q-83 0 -140 23.5t-89 71.5t-45.5 111t-13.5 150q0 69 7.5 121.5t26.5 99.5t51 77t83 47t120 17q115 0 242 -25l-3 -35z" />
    <glyph glyph-name="gdotaccent" unicode="&#x121;" horiz-adv-x="523" 
d="M243 638v62h38v-62h-38zM73 -146l6 31q107 -26 174 -26q87 0 118 40t33 136q-84 -28 -157 -28q-56 0 -92.5 14t-57 44t-29 71.5t-8.5 102.5q0 74 10.5 122t38 83t76.5 50t126 15q38 0 132 -6v-431q0 -52 -4 -87.5t-15.5 -67.5t-32 -50.5t-54.5 -29t-83 -10.5
q-75 0 -181 27zM404 67v406q-65 4 -92 4q-55 0 -92.5 -10t-61 -27t-36.5 -47.5t-17 -65t-4 -86.5q0 -54 5.5 -89t21.5 -62t45 -39t74 -12q73 0 157 28z" />
    <glyph glyph-name="Gcommaaccent" unicode="&#x122;" horiz-adv-x="730" 
d="M584 656q-37 6 -96.5 12.5t-104.5 6.5q-61 0 -105 -15.5t-71 -42t-43 -69.5t-21.5 -90t-5.5 -111t6 -111t22.5 -88.5t43.5 -67.5t70.5 -40.5t103.5 -14.5q35 0 83.5 5t83.5 10t36 5v268h-165v34h204v-331l-41 -6q-41 -6 -101.5 -12.5t-99.5 -6.5q-83 0 -140 23.5
t-89 71.5t-45.5 111t-13.5 150q0 69 7.5 121.5t26.5 99.5t51 77t83 47t120 17q115 0 242 -25l-3 -35zM315 -250l46 210h44l-56 -210h-34z" />
    <glyph glyph-name="gcommaaccent" unicode="&#x123;" horiz-adv-x="523" 
d="M315 750l-46 -210h-44l56 210h34zM73 -146l6 31q107 -26 174 -26q87 0 118 40t33 136q-84 -28 -157 -28q-56 0 -92.5 14t-57 44t-29 71.5t-8.5 102.5q0 74 10.5 122t38 83t76.5 50t126 15q38 0 132 -6v-431q0 -52 -4 -87.5t-15.5 -67.5t-32 -50.5t-54.5 -29t-83 -10.5
q-75 0 -181 27zM404 67v406q-65 4 -92 4q-55 0 -92.5 -10t-61 -27t-36.5 -47.5t-17 -65t-4 -86.5q0 -54 5.5 -89t21.5 -62t45 -39t74 -12q73 0 157 28z" />
    <glyph glyph-name="Hbar" unicode="&#x126;" horiz-adv-x="710" 
d="M705 535v-35h-80v-500h-40v334h-460v-334h-39v500h-81v35h81v165h39v-165h460v165h40v-165h80zM585 368v132h-460v-132h460z" />
    <glyph glyph-name="hbar" unicode="&#x127;" horiz-adv-x="542" 
d="M91 700h39v-81h150v-33h-150v-105q83 28 157 28q108 0 147.5 -57t39.5 -191v-261h-41v261q0 60 -5.5 97.5t-21.5 66t-45 40.5t-74 12q-74 0 -157 -28v-449h-39v586h-86v34h86v80z" />
    <glyph glyph-name="Itilde" unicode="&#x128;" horiz-adv-x="269" 
d="M280 900l24 -17q-56 -55 -91 -55q-28 0 -52.5 13.5t-46.5 27t-43 13.5q-28 0 -76 -41l-28 18q61 54 105 54q29 0 54.5 -13t46.5 -26.5t40 -13.5q20 0 67 40zM116 0v700h40v-700h-40z" />
    <glyph glyph-name="itilde" unicode="&#x129;" horiz-adv-x="190" 
d="M248 700l24 -17q-56 -55 -91 -55q-28 0 -52.5 13.5t-46.5 27t-43 13.5q-28 0 -76 -41l-27 18q61 54 104 54q29 0 54.5 -13t46.5 -26.5t40 -13.5q20 0 67 40zM86 0v500h35v-500h-35z" />
    <glyph glyph-name="Imacron" unicode="&#x12a;" horiz-adv-x="269" 
d="M291 862h-313v38h313v-38zM115 0v700h40v-700h-40z" />
    <glyph glyph-name="imacron" unicode="&#x12b;" horiz-adv-x="190" 
d="M260 662h-314v38h314v-38zM85 0v500h35v-500h-35z" />
    <glyph glyph-name="Iogonek" unicode="&#x12e;" horiz-adv-x="269" 
d="M115 700h40v-700h-4q-31 -13 -52 -41t-21 -57q0 -14 5 -26q14 -26 57 -26q15 0 28 3l5 -27q-25 -6 -45 -6q-60 0 -78 42q-7 17 -7 35q0 33 20.5 61.5t51.5 41.5v700z" />
    <glyph glyph-name="iogonek" unicode="&#x12f;" horiz-adv-x="190" 
d="M84 700h38v-62h-38v62zM85 500h35v-500h-2q-31 -12 -51 -40t-20 -56q0 -16 6 -28q14 -26 57 -26q15 0 28 3l5 -27q-25 -6 -45 -6q-60 0 -78 42q-7 17 -7 36q0 32 20.5 60.5t51.5 41.5v500z" />
    <glyph glyph-name="Idotaccent" unicode="&#x130;" horiz-adv-x="269" 
d="M116 838v62h38v-62h-38zM115 0v700h40v-700h-40z" />
    <glyph glyph-name="dotlessi" unicode="&#x131;" horiz-adv-x="190" 
d="M85 0v500h35v-500h-35z" />
    <glyph glyph-name="IJ" unicode="&#x132;" horiz-adv-x="575" 
d="M420 701h39q0 -106 0.5 -297.5t0.5 -298.5q0 -123 -46 -156q-30 -21 -119 -22h-26v34q89 0 111 11q32 15 37 78q3 24 3 65v586zM115 0v700h40v-700h-40z" />
    <glyph glyph-name="ij" unicode="&#x133;" horiz-adv-x="402" 
d="M85 645v55h39v-55h-39zM284 700h39v-55h-39v55zM85 0v500h39v-500h-39zM284 500h39v-507q0 -54 -7.5 -88t-24 -50.5t-35 -21.5t-48.5 -5q-42 0 -75 13l5 28l39 -8q18 -3 31 -3q30 0 44.5 8.5t23 38t8.5 88.5v507z" />
    <glyph glyph-name="Kcommaaccent" unicode="&#x136;" 
d="M538 700h48l-254 -352l271 -348h-50l-254 329h-144v-329h-40v700h40v-337h141zM275 -251l46 210h44l-56 -210h-34z" />
    <glyph glyph-name="kcommaaccent" unicode="&#x137;" horiz-adv-x="492" 
d="M124 0h-39v700h39v-408h103l200 208h45l-211 -226l211 -274h-45l-200 257h-103v-257zM205 -250l46 210h44l-56 -210h-34z" />
    <glyph glyph-name="Lacute" unicode="&#x139;" horiz-adv-x="544" 
d="M189 819l108 113h58l-120 -113h-46zM530 0h-415v700h40v-666h375v-34z" />
    <glyph glyph-name="lacute" unicode="&#x13a;" horiz-adv-x="193" 
d="M14 717l108 113h58l-120 -113h-46zM85 0v700h39v-700h-39z" />
    <glyph glyph-name="Lcommaaccent" unicode="&#x13b;" horiz-adv-x="544" 
d="M530 0h-415v700h40v-666h375v-34zM275 -249l46 210h44l-56 -210h-34z" />
    <glyph glyph-name="lcommaaccent" unicode="&#x13c;" horiz-adv-x="193" 
d="M85 0v700h39v-700h-39zM32 -249l47 210h44l-57 -210h-34z" />
    <glyph glyph-name="Lcaron" unicode="&#x13d;" horiz-adv-x="544" 
d="M530 0h-415v700h40v-666h375v-34zM305 500l44 200h41l-54 -200h-31z" />
    <glyph glyph-name="lcaron" unicode="&#x13e;" horiz-adv-x="237" 
d="M85 0v700h39v-700h-39zM147 498l44 200h42l-54 -200h-32z" />
    <glyph glyph-name="Ldot" unicode="&#x13f;" horiz-adv-x="544" 
d="M530 0h-415v700h40v-666h375v-34zM361 290v80h44v-80h-44z" />
    <glyph glyph-name="ldot" unicode="&#x140;" horiz-adv-x="267" 
d="M85 0v700h39v-700h-39zM193 305v80h44v-80h-44z" />
    <glyph glyph-name="Lslash" unicode="&#x141;" horiz-adv-x="530" 
d="M2 261v41l87 55v343h40v-318l230 147v-41l-230 -147v-307h375v-34h-415v316z" />
    <glyph glyph-name="lslash" unicode="&#x142;" horiz-adv-x="225" 
d="M17 265v40l78 55v370h35v-346l81 57v-40l-81 -57v-344h-35v319z" />
    <glyph glyph-name="Nacute" unicode="&#x143;" horiz-adv-x="739" 
d="M287 819l108 113h58l-120 -113h-46zM105 0v700h93l367 -666h29v666h40v-700h-93l-368 666h-28v-666h-40z" />
    <glyph glyph-name="nacute" unicode="&#x144;" horiz-adv-x="550" 
d="M202 619l108 113h59l-121 -113h-46zM81 0v468q107 41 196 41q110 0 156.5 -58.5t46.5 -189.5v-261h-41v261q0 115 -36 165.5t-126 50.5q-74 0 -157 -28v-449h-39z" />
    <glyph glyph-name="Ncommaaccent" unicode="&#x145;" horiz-adv-x="739" 
d="M105 0v700h93l367 -666h29v666h40v-700h-93l-368 666h-28v-666h-40zM275 -249l46 210h44l-56 -210h-34z" />
    <glyph glyph-name="ncommaaccent" unicode="&#x146;" horiz-adv-x="550" 
d="M81 0v468q107 41 196 41q110 0 156.5 -58.5t46.5 -189.5v-261h-41v261q0 115 -36 165.5t-126 50.5q-74 0 -157 -28v-449h-39zM225 -251l46 210h44l-56 -210h-34z" />
    <glyph glyph-name="Ncaron" unicode="&#x147;" horiz-adv-x="739" 
d="M385 800h-31l-128 132h46l99 -98l97 98h46zM105 0v700h93l367 -666h29v666h40v-700h-93l-368 666h-28v-666h-40z" />
    <glyph glyph-name="ncaron" unicode="&#x148;" horiz-adv-x="550" 
d="M300 600h-31l-128 132h47l98 -98l97 98h46zM81 0v468q107 41 196 41q110 0 156.5 -58.5t46.5 -189.5v-261h-41v261q0 115 -36 165.5t-126 50.5q-74 0 -157 -28v-449h-39z" />
    <glyph glyph-name="Eng" unicode="&#x14a;" horiz-adv-x="739" 
d="M594 700h40v-700q1 -122 -44 -155q-31 -22 -119 -23h-27v34q88 0 111 11q31 15 37 77q2 22 2 56h-53l-368 666h-28v-666h-40v700h93l367 -666h29v666z" />
    <glyph glyph-name="eng" unicode="&#x14b;" horiz-adv-x="549" 
d="M81 0v468q107 41 196 41q110 0 156.5 -58.5t46.5 -189.5v-268q0 -54 -8 -88t-25 -50.5t-35.5 -21.5t-48.5 -5q-42 0 -75 13l5 28l39 -8q18 -3 31 -3q30 0 44.5 8.5t23 38t8.5 88.5v268q0 115 -36 165.5t-126 50.5q-74 0 -157 -28v-449h-39z" />
    <glyph glyph-name="Omacron" unicode="&#x14c;" horiz-adv-x="767" 
d="M541 862h-313v38h313v-38zM387 708q143 0 214 -81t71 -265q0 -102 -12 -168t-44 -114t-87.5 -68.5t-141.5 -20.5q-89 0 -144.5 18.5t-89 64.5t-46 114t-12.5 177q0 128 31 203t93.5 107.5t167.5 32.5zM387 25q62 0 106 14.5t71 39.5t42.5 69t21 93t5.5 121
q0 164 -63.5 238.5t-182.5 74.5q-92 0 -146 -28t-80.5 -96t-26.5 -186q0 -76 6.5 -128t22.5 -95t44.5 -67t72.5 -37t107 -13z" />
    <glyph glyph-name="omacron" unicode="&#x14d;" horiz-adv-x="542" 
d="M428 662h-313v38h313v-38zM274 509q103 0 156 -59t53 -191q0 -73 -9.5 -121t-33 -82.5t-64 -49.5t-102.5 -15q-124 0 -169 58.5t-45 211.5q0 136 50 192t164 56zM274 23q43 0 73.5 9.5t49.5 27t29.5 48t14 65.5t3.5 86q0 116 -43.5 167t-126.5 51q-97 0 -136 -46
t-39 -170q0 -69 6.5 -110.5t25.5 -72t53 -43t90 -12.5z" />
    <glyph glyph-name="Ohungarumlaut" unicode="&#x150;" horiz-adv-x="767" 
d="M241 819l108 113h59l-120 -113h-47zM361 819l108 113h58l-120 -113h-46zM387 708q143 0 214 -81t71 -265q0 -102 -12 -168t-44 -114t-87.5 -68.5t-141.5 -20.5q-89 0 -144.5 18.5t-89 64.5t-46 114t-12.5 177q0 128 31 203t93.5 107.5t167.5 32.5zM387 25q62 0 106 14.5
t71 39.5t42.5 69t21 93t5.5 121q0 164 -63.5 238.5t-182.5 74.5q-92 0 -146 -28t-80.5 -96t-26.5 -186q0 -76 6.5 -128t22.5 -95t44.5 -67t72.5 -37t107 -13z" />
    <glyph glyph-name="ohungarumlaut" unicode="&#x151;" horiz-adv-x="542" 
d="M129 619l107 113h59l-120 -113h-46zM248 619l108 113h58l-120 -113h-46zM273 509q104 0 157 -59t53 -191q0 -73 -9.5 -121t-33 -82.5t-64 -49.5t-103.5 -15q-123 0 -168 58.5t-45 211.5q0 136 50 192t163 56zM273 23q44 0 74.5 9.5t49.5 27t29.5 48t14 65.5t3.5 86
q0 116 -43.5 167t-127.5 51q-96 0 -135 -46t-39 -170q0 -69 6.5 -110.5t25.5 -72t53 -43t89 -12.5z" />
    <glyph glyph-name="OE" unicode="&#x152;" horiz-adv-x="944" 
d="M884 0h-556q-155 0 -211.5 81t-56.5 264q0 184 57.5 269.5t210.5 85.5h556v-36h-363v-286h303v-36h-303v-305h363v-37zM485 664h-157q-56 0 -96.5 -13.5t-66.5 -37.5t-41 -64.5t-20.5 -88t-5.5 -113.5q0 -84 9 -138t33.5 -96t70 -60t117.5 -18h157v629z" />
    <glyph glyph-name="oe" unicode="&#x153;" horiz-adv-x="876" 
d="M842 269v-33h-365q0 -108 37.5 -160.5t129.5 -52.5q65 0 174 26l6 -31q-112 -27 -181 -27q-77 1 -122 29t-65 83q-19 -58 -64 -85t-127 -27q-124 0 -168.5 58.5t-44.5 211.5q0 136 50 192t163 56q148 0 190 -118q22 63 67.5 90.5t115.5 27.5q104 0 154 -56.5t50 -183.5z
M265 23q44 0 74.5 10t49 27t29 47.5t14.5 65.5t4 86q0 116 -43.5 167t-127.5 51q-96 0 -135.5 -46t-39.5 -170q0 -69 7 -110.5t26 -72t53 -43t89 -12.5zM477 268h325q0 113 -38.5 161t-125.5 48q-84 0 -122.5 -48.5t-38.5 -160.5z" />
    <glyph glyph-name="Racute" unicode="&#x154;" horiz-adv-x="704" 
d="M269 819l108 113h58l-120 -113h-46zM418 290h-263v-290h-40v700h276q116 0 172.5 -48t56.5 -152q0 -87 -37.5 -139t-122.5 -66l174 -295h-45zM155 324h236q103 0 145 45t42 131q0 87 -45 126.5t-142 39.5h-236v-342z" />
    <glyph glyph-name="racute" unicode="&#x155;" horiz-adv-x="335" 
d="M60 619l108 113h58l-120 -113h-46zM81 0v468q107 41 196 41q21 0 39 -2l-6 -32q-15 2 -33 2q-74 0 -157 -28v-449h-39z" />
    <glyph glyph-name="Rcommaaccent" unicode="&#x156;" horiz-adv-x="704" 
d="M418 290h-263v-290h-40v700h276q116 0 172.5 -48t56.5 -152q0 -87 -37.5 -139t-122.5 -66l174 -295h-45zM155 324h236q103 0 145 45t42 131q0 87 -45 126.5t-142 39.5h-236v-342zM275 -250l46 210h44l-56 -210h-34z" />
    <glyph glyph-name="rcommaaccent" unicode="&#x157;" horiz-adv-x="335" 
d="M81 0v468q107 41 196 41q21 0 39 -2l-6 -32q-15 2 -33 2q-74 0 -157 -28v-449h-39zM91 -251l46 210h44l-56 -210h-34z" />
    <glyph glyph-name="Rcaron" unicode="&#x158;" horiz-adv-x="704" 
d="M367 800h-31l-128 132h46l99 -98l97 98h46zM417 290h-262v-290h-40v700h276q116 0 172.5 -48t56.5 -152q0 -87 -37.5 -139t-122.5 -66l174 -295h-45zM155 324h236q103 0 145 45t42 131q0 87 -45 126.5t-142 39.5h-236v-342z" />
    <glyph glyph-name="rcaron" unicode="&#x159;" horiz-adv-x="335" 
d="M219 600h-31l-128 132h46l99 -98l97 98h46zM81 0v468q107 41 196 41q21 0 39 -2l-6 -32q-15 2 -33 2q-74 0 -157 -28v-449h-39z" />
    <glyph glyph-name="Sacute" unicode="&#x15a;" horiz-adv-x="527" 
d="M60 7l6 34q100 -14 166 -14q13 0 25 1q34 1 55 3.5t46 9.5t38.5 19t23 34t9.5 53q0 61 -48 110q-10 10 -32 25.5t-41.5 27.5l-57.5 35.5l-54 33.5q-35 22 -55 37.5t-38 35.5t-25 44t-7 56q0 9 1 20q4 58 59.5 98t164.5 40q96 0 172 -10l-7 -34q-72 9 -165 9
q-92 0 -137.5 -30.5t-48.5 -74.5v-19q0 -49 22 -76t86 -67q138 -86 188 -124q33 -25 47.5 -64.5t14.5 -72.5q0 -39 -13.5 -68t-32 -44.5t-49 -25t-55 -12.5t-60.5 -4q-14 -1 -29 -1q-70 0 -169 15zM220 819l108 113h58l-120 -113h-46z" />
    <glyph glyph-name="sacute" unicode="&#x15b;" horiz-adv-x="402" 
d="M60 6l6 30q66 -10 109 -10h16q29 1 45.5 4t34 11t25.5 26t8 45q0 42 -31.5 68.5t-120.5 88.5q-45 31 -63.5 57t-18.5 70v15q3 41 39.5 70t107.5 29q67 0 123 -9l-7 -29q-53 8 -116 8q-54 0 -80 -20t-28 -51q-1 -7 -1 -14q0 -34 14 -53t53 -46q93 -64 124 -90
q44 -37 44 -94q0 -29 -10 -50.5t-24 -33.5t-35.5 -19t-39 -9.5t-41.5 -3.5h-17q-42 0 -116 10zM138 619l108 113h58l-120 -113h-46z" />
    <glyph glyph-name="Scedilla" unicode="&#x15e;" horiz-adv-x="527" 
d="M468 700l-7 -34q-72 9 -165 9q-92 0 -137.5 -30.5t-48.5 -74.5v-19q0 -49 22 -76t86 -67q138 -87 188 -124q33 -25 47.5 -64.5t14.5 -72.5q0 -71 -36.5 -104t-99.5 -44l-26 -46q32 -1 42 -13t10 -47q0 -36 -14 -50t-53 -14q-22 0 -43 4l2 26q10 -2 40 -2q21 0 25.5 7
t4.5 29q0 21 -4.5 26.5t-25.5 5.5h-28l35 70q-7 0 -19.5 -0.5t-19.5 -1.5q-14 -1 -29 -1q-70 0 -169 15l6 34q100 -14 166 -14q13 0 25 1q34 1 55 3.5t46 9.5t38.5 19t23 34t9.5 53q0 61 -48 110q-10 10 -32 25.5t-41.5 27.5l-57.5 35.5l-54 33.5q-35 22 -55 37t-38 35.5
t-25 44.5t-7 56q0 9 1 20q4 58 59.5 98t164.5 40q96 0 172 -10z" />
    <glyph glyph-name="scedilla" unicode="&#x15f;" horiz-adv-x="402" 
d="M340 501l-7 -29q-53 8 -116 8q-54 0 -80 -20t-28 -51q-1 -7 -1 -14q0 -34 14 -53t53 -46q93 -64 124 -90q44 -37 44 -94q0 -95 -103 -112l-24 -43q32 -1 42 -13t10 -47q0 -36 -14 -50t-53 -14q-22 0 -43 4l2 26q10 -2 39 -2q21 0 26 7t5 29q0 21 -4.5 26.5t-26.5 5.5h-27
l33 68q-4 -1 -12 -1h-17q-42 0 -116 10l6 30q66 -10 109 -10h16q29 1 45.5 4t34 11t25.5 26t8 45q0 42 -31.5 68.5t-120.5 88.5q-45 31 -63.5 57t-18.5 70v15q3 41 39.5 70t107.5 29q67 0 123 -9z" />
    <glyph glyph-name="Scaron" unicode="&#x160;" horiz-adv-x="527" 
d="M60 7l6 34q100 -14 166 -14q13 0 25 1q34 1 55 3.5t46 9.5t38.5 19t23 34t9.5 53q0 61 -48 110q-10 10 -32 25.5t-41.5 27.5l-57.5 35.5l-54 33.5q-35 22 -55 37.5t-38 35.5t-25 44t-7 56q0 9 1 20q4 58 59.5 98t164.5 40q96 0 172 -10l-7 -34q-72 9 -165 9
q-92 0 -137.5 -30.5t-48.5 -74.5v-19q0 -49 22 -76t86 -67q138 -86 188 -124q33 -25 47.5 -64.5t14.5 -72.5q0 -39 -13.5 -68t-32 -44.5t-49 -25t-55 -12.5t-60.5 -4q-14 -1 -29 -1q-70 0 -169 15zM401 932h46l-129 -132h-31l-128 132h46l99 -98z" />
    <glyph glyph-name="scaron" unicode="&#x161;" horiz-adv-x="402" 
d="M60 6l6 30q66 -10 109 -10h16q29 1 45.5 4t34 11t25.5 26t8 45q0 42 -31.5 68.5t-120.5 88.5q-45 31 -63.5 57t-18.5 70v15q3 41 39.5 70t107.5 29q67 0 123 -9l-7 -29q-53 8 -116 8q-54 0 -80 -20t-28 -51q-1 -7 -1 -14q0 -34 14 -53t53 -46q93 -64 124 -90
q44 -37 44 -94q0 -29 -10 -50.5t-24 -33.5t-35.5 -19t-39 -9.5t-41.5 -3.5h-17q-42 0 -116 10zM236 600h-31l-128 132h46l98 -98l98 98h46z" />
    <glyph glyph-name="Tcedilla" unicode="&#x162;" horiz-adv-x="580" 
d="M15 700h550v-34h-254v-666h-6l-27 -47q33 -1 42.5 -13t9.5 -47q0 -36 -14 -50t-53 -14q-22 0 -43 4l3 26q10 -2 39 -2q21 0 26 7t5 29q0 21 -5 26.5t-26 5.5h-28l37 75v666h-256v34z" />
    <glyph glyph-name="tcedilla" unicode="&#x163;" horiz-adv-x="283" 
d="M110 632h38v-133h115v-32h-115v-312q0 -84 10.5 -109t46.5 -25q24 0 57 7l-6 -31q-21 -4 -34 -5l-21 -39q32 -1 41.5 -13t9.5 -47q0 -36 -14 -50t-53 -14q-22 0 -42 4l2 26q10 -2 39 -2q21 0 26 7t5 29q0 21 -5 26.5t-26 5.5h-28l33 67q-48 4 -63.5 38.5t-15.5 124.5v312
h-105v32h105v133z" />
    <glyph glyph-name="Tcaron" unicode="&#x164;" horiz-adv-x="580" 
d="M305 800h-31l-128 132h46l99 -98l97 98h46zM15 666v34h550v-34h-254v-666h-40v666h-256z" />
    <glyph glyph-name="tcaron" unicode="&#x165;" horiz-adv-x="283" 
d="M229 527l44 200h42l-54 -200h-32zM110 632h38v-133h116v-32h-116v-312q0 -84 10.5 -109t46.5 -25q24 0 57 7l-6 -31q-27 -6 -51 -6q-59 0 -77 34t-18 130v312h-105v32h105v133z" />
    <glyph glyph-name="Tbar" unicode="&#x166;" horiz-adv-x="580" 
d="M565 666h-254v-277h138v-39h-138v-350h-40v350h-135v39h135v277h-256v34h550v-34z" />
    <glyph glyph-name="tbar" unicode="&#x167;" horiz-adv-x="283" 
d="M110 632h38v-133h115v-32h-115v-143h115v-33h-115v-136q0 -84 10.5 -109t46.5 -25q24 0 57 7l-6 -31q-27 -6 -51 -6q-59 0 -77 34t-18 130v136h-105v33h105v143h-105v32h105v133z" />
    <glyph glyph-name="Utilde" unicode="&#x168;" horiz-adv-x="728" 
d="M513 900l24 -17q-56 -55 -91 -55q-28 0 -52.5 13.5t-46.5 27t-43 13.5q-28 0 -76 -41l-27 18q61 54 104 54q29 0 54.5 -13t46.5 -26.5t40 -13.5q20 0 67 40zM155 700v-504q0 -91 53.5 -131t155.5 -40q108 0 164 39.5t56 131.5v504h39v-504q0 -109 -65.5 -157t-193.5 -48
q-122 0 -185.5 48t-63.5 157v504h40z" />
    <glyph glyph-name="utilde" unicode="&#x169;" horiz-adv-x="524" 
d="M414 700l25 -17q-57 -55 -92 -55q-28 0 -52.5 13.5t-46 27t-43.5 13.5q-28 0 -75 -41l-28 18q62 54 105 54q29 0 54 -13t46.5 -26.5t39.5 -13.5q21 0 67 40zM453 499v-468q-107 -41 -180 -41q-110 0 -156.5 58.5t-46.5 189.5v261h41v-261q0 -115 36 -165.5t126 -50.5
q58 0 141 28v449h39z" />
    <glyph glyph-name="Umacron" unicode="&#x16a;" horiz-adv-x="728" 
d="M526 862h-313v38h313v-38zM155 700v-504q0 -91 53.5 -131t155.5 -40q108 0 164 39.5t56 131.5v504h39v-504q0 -109 -65.5 -157t-193.5 -48q-122 0 -185.5 48t-63.5 157v504h40z" />
    <glyph glyph-name="umacron" unicode="&#x16b;" horiz-adv-x="524" 
d="M427 662h-313v38h313v-38zM453 499v-468q-107 -41 -180 -41q-110 0 -156.5 58.5t-46.5 189.5v261h41v-261q0 -115 36 -165.5t126 -50.5q58 0 141 28v449h39z" />
    <glyph glyph-name="Uring" unicode="&#x16e;" horiz-adv-x="728" 
d="M369 942q44 0 73.5 -27t29.5 -67t-29.5 -67t-73.5 -27t-73.5 27t-29.5 67t29.5 67t73.5 27zM370 909q-28 0 -47.5 -17.5t-19.5 -43.5t19 -44t48 -18q28 0 47 18t19 44t-19 43.5t-47 17.5zM584 700h39v-504q0 -109 -65.5 -157t-193.5 -48q-122 0 -185.5 48t-63.5 157v504
h40v-504q0 -91 53.5 -131t155.5 -40q108 0 164 39.5t56 131.5v504z" />
    <glyph glyph-name="uring" unicode="&#x16f;" horiz-adv-x="524" 
d="M270 742q44 0 74 -27t30 -67t-30 -67t-74 -27t-73.5 27t-29.5 67t29.5 67t73.5 27zM271 709q-28 0 -47.5 -17.5t-19.5 -43.5t19.5 -44t47.5 -18q29 0 47.5 18t18.5 44t-19 43.5t-47 17.5zM414 499h40v-468q-108 -41 -181 -41q-110 0 -156.5 58.5t-46.5 189.5v261h41v-261
q0 -115 36 -165.5t126 -50.5q58 0 141 28v449z" />
    <glyph glyph-name="Uhungarumlaut" unicode="&#x170;" horiz-adv-x="728" 
d="M226 819l108 113h59l-120 -113h-47zM346 819l107 113h59l-120 -113h-46zM155 700v-504q0 -91 53.5 -131t155.5 -40q108 0 164 39.5t56 131.5v504h39v-504q0 -109 -65.5 -157t-193.5 -48q-122 0 -185.5 48t-63.5 157v504h40z" />
    <glyph glyph-name="uhungarumlaut" unicode="&#x171;" horiz-adv-x="524" 
d="M128 619l107 113h59l-120 -113h-46zM247 619l108 113h58l-120 -113h-46zM453 499v-468q-107 -41 -180 -41q-110 0 -156.5 58.5t-46.5 189.5v261h41v-261q0 -115 36 -165.5t126 -50.5q58 0 141 28v449h39z" />
    <glyph glyph-name="Uogonek" unicode="&#x172;" horiz-adv-x="728" 
d="M584 700h39v-504q0 -106 -62 -154.5t-183 -50.5q-42 -35 -42 -79q0 -14 6 -26q13 -26 57 -26q14 0 27 3l5 -27q-24 -6 -45 -6q-60 0 -77 42q-8 17 -8 35q0 50 42 84q-111 4 -169.5 52.5t-58.5 152.5v504h40v-504q0 -91 53.5 -131t155.5 -40q108 0 164 39.5t56 131.5v504z
" />
    <glyph glyph-name="uogonek" unicode="&#x173;" horiz-adv-x="524" 
d="M453 499v-468q-51 -20 -90 -29q-25 -15 -41 -40.5t-16 -49.5q0 -14 6 -26q13 -26 56 -26q15 0 28 3l5 -27q-24 -6 -45 -6q-60 0 -78 42q-7 17 -7 35q0 50 43 86q-21 -3 -41 -3q-110 0 -156.5 58.5t-46.5 189.5v261h41v-261q0 -115 36 -165.5t126 -50.5q58 0 141 28v449
h39z" />
    <glyph glyph-name="Wcircumflex" unicode="&#x174;" horiz-adv-x="890" 
d="M301 800l128 132h31l129 -132h-46l-97 98l-99 -98h-46zM15 700h39l157 -666h42l170 656h44l176 -656h42l152 666h38l-158 -700h-106l-166 643l-160 -643h-106z" />
    <glyph glyph-name="wcircumflex" unicode="&#x175;" horiz-adv-x="783" 
d="M248 600l128 132h31l129 -132h-46l-97 98l-99 -98h-46zM15 500h41l139 -468h13l162 458h43l162 -458h12l141 468h41l-151 -500h-75l-152 448l-153 -448h-74z" />
    <glyph glyph-name="Ycircumflex" unicode="&#x176;" horiz-adv-x="569" 
d="M140 800l129 132h30l130 -132h-47l-97 98l-98 -98h-47zM305 301v-301h-39v301l-251 399h45l226 -359l222 359h46z" />
    <glyph glyph-name="ycircumflex" unicode="&#x177;" horiz-adv-x="450" 
d="M199 732h31l129 -132h-46l-97 98l-99 -98h-46zM395 500h40l-229 -664h-41l57 164h-37l-170 500h41l160 -468h17z" />
    <glyph glyph-name="Ydieresis" unicode="&#x178;" horiz-adv-x="569" 
d="M172 838v62h38v-62h-38zM359 838v62h38v-62h-38zM305 301v-301h-39v301l-251 399h45l226 -359l222 359h46z" />
    <glyph glyph-name="Zacute" unicode="&#x179;" horiz-adv-x="615" 
d="M224 819l108 113h59l-120 -113h-47zM60 700h495v-46l-454 -621h454v-34h-495v47l454 620h-454v34z" />
    <glyph glyph-name="zacute" unicode="&#x17a;" horiz-adv-x="508" 
d="M171 619l108 113h59l-120 -113h-47zM50 468v32h408v-32l-361 -436h361v-32h-408v32l361 436h-361z" />
    <glyph glyph-name="Zdotaccent" unicode="&#x17b;" horiz-adv-x="615" 
d="M288 838v62h39v-62h-39zM60 700h495v-46l-454 -621h454v-34h-495v47l454 620h-454v34z" />
    <glyph glyph-name="zdotaccent" unicode="&#x17c;" horiz-adv-x="508" 
d="M235 638v62h39v-62h-39zM50 468v32h408v-32l-361 -436h361v-32h-408v32l361 436h-361z" />
    <glyph glyph-name="Zcaron" unicode="&#x17d;" horiz-adv-x="615" 
d="M322 800h-30l-129 132h47l98 -98l97 98h47zM60 700h495v-46l-454 -621h454v-34h-495v47l454 620h-454v34z" />
    <glyph glyph-name="zcaron" unicode="&#x17e;" horiz-adv-x="508" 
d="M269 600h-30l-129 132h47l98 -98l97 98h47zM50 468v32h408v-32l-361 -436h361v-32h-408v32l361 436h-361z" />
    <glyph glyph-name="florin" unicode="&#x192;" horiz-adv-x="414" 
d="M355 687l-6 -28q-39 10 -70 10q-29 0 -44 -8t-23.5 -37.5t-8.5 -88.5v-116h115v-32h-115v-394q0 -54 -7.5 -87.5t-24 -50t-35 -21.5t-48.5 -5v30q30 0 44.5 8t23 37.5t8.5 88.5v394h-104v32h104v116q0 54 7.5 88t24.5 50t35 21t48 5q43 0 76 -12z" />
    <glyph glyph-name="Ohorn" unicode="&#x1a0;" horiz-adv-x="767" 
d="M691 709l27 5q5 -24 5 -45q0 -60 -41 -78q-17 -7 -36 -7q-9 0 -17 2q43 -82 43 -224q0 -102 -12 -168t-44 -114t-87.5 -68.5t-141.5 -20.5q-89 0 -144.5 18.5t-89 64.5t-46 114t-12.5 177q0 128 31 203t93.5 107.5t167.5 32.5q141 0 210 -77q23 -12 45 -12q14 0 26 6
q26 13 26 57q0 14 -3 27zM387 25q62 0 106 14.5t71 39.5t42.5 69t21 93t5.5 121q0 164 -63.5 238.5t-182.5 74.5q-92 0 -146 -28t-80.5 -96t-26.5 -186q0 -76 6.5 -128t22.5 -95t44.5 -67t72.5 -37t107 -13z" />
    <glyph glyph-name="ohorn" unicode="&#x1a1;" horiz-adv-x="542" 
d="M519 523l27 5q6 -25 6 -45q0 -60 -42 -78q-17 -7 -35 -7q-7 0 -15 1q23 -55 23 -140q0 -73 -9.5 -121t-33 -82.5t-64 -49.5t-103.5 -15q-123 0 -168 58.5t-45 211.5q0 136 50 192t163 56q115 0 166 -70q16 -7 31 -7t26 6q27 14 27 57q0 15 -4 28zM273 23q44 0 74.5 10
t49.5 27t29.5 47.5t14 65.5t3.5 86q0 116 -43.5 167t-127.5 51q-96 0 -135 -46t-39 -170q0 -69 6.5 -110.5t25.5 -72t53 -43t89 -12.5z" />
    <glyph glyph-name="Uhorn" unicode="&#x1af;" horiz-adv-x="728" 
d="M685 729l27 5q5 -24 5 -45q0 -60 -41 -78q-17 -7 -36 -7q-8 0 -17 2v-410q0 -109 -65.5 -157t-193.5 -48q-122 0 -185.5 48t-63.5 157v504h40v-504q0 -91 53.5 -131t155.5 -40q108 0 164 39.5t56 131.5v504h39v-60q7 -1 13 -1q14 0 26 6q26 13 26 57q0 14 -3 27z" />
    <glyph glyph-name="uhorn" unicode="&#x1b0;" horiz-adv-x="524" 
d="M514 528l27 5q5 -25 5 -45q0 -60 -41 -78q-17 -7 -36 -7q-8 0 -16 1v-373q-107 -41 -180 -41q-110 0 -156.5 58.5t-46.5 189.5v261h41v-261q0 -115 36 -165.5t126 -50.5q58 0 141 28v449h40v-61q5 -1 11 -1q14 0 26 6q26 13 26 57q0 15 -3 28z" />
    <glyph glyph-name="Acaron" unicode="&#x1cd;" 
d="M324 800h-31l-128 132h46l98 -98l98 98h46zM251 700h117l235 -700h-39l-75 215h-361l-73 -215h-40zM478 249l-140 417h-59l-140 -417h339z" />
    <glyph glyph-name="acaron" unicode="&#x1ce;" horiz-adv-x="495" 
d="M264 600h-30l-128 132h46l98 -98l97 98h47zM106 464l-6 33q105 12 165 12q82 0 121 -39t39 -117v-322q-120 -40 -225 -40q-66 0 -103 37.5t-37 108.5q0 65 36 101t116 43l175 17v55q0 64 -30.5 93t-91.5 29q-60 0 -159 -11zM387 52v213l-171 -15q-115 -11 -115 -113
q0 -54 26.5 -84t73.5 -30q84 0 186 29z" />
    <glyph glyph-name="Icaron" unicode="&#x1cf;" horiz-adv-x="269" 
d="M150 800h-31l-128 132h46l98 -98l98 98h46zM115 0v700h40v-700h-40z" />
    <glyph glyph-name="icaron" unicode="&#x1d0;" horiz-adv-x="190" 
d="M119 600h-31l-128 132h46l99 -98l97 98h46zM86 0v500h35v-500h-35z" />
    <glyph glyph-name="Ocaron" unicode="&#x1d1;" horiz-adv-x="767" 
d="M399 800h-31l-128 132h46l99 -98l97 98h46zM387 708q143 0 214 -81t71 -265q0 -102 -12 -168t-44 -114t-87.5 -68.5t-141.5 -20.5q-89 0 -144.5 18.5t-89 64.5t-46 114t-12.5 177q0 128 31 203t93.5 107.5t167.5 32.5zM387 25q62 0 106 14.5t71 39.5t42.5 69t21 93
t5.5 121q0 164 -63.5 238.5t-182.5 74.5q-92 0 -146 -28t-80.5 -96t-26.5 -186q0 -76 6.5 -128t22.5 -95t44.5 -67t72.5 -37t107 -13z" />
    <glyph glyph-name="ocaron" unicode="&#x1d2;" horiz-adv-x="542" 
d="M286 600h-31l-128 132h46l99 -98l97 98h46zM274 509q103 0 156 -59t53 -191q0 -73 -9.5 -121t-33 -82.5t-64 -49.5t-102.5 -15q-124 0 -169 58.5t-45 211.5q0 136 50 192t164 56zM274 23q43 0 73.5 9.5t49.5 27t29.5 48t14 65.5t3.5 86q0 116 -43.5 167t-126.5 51
q-97 0 -136 -46t-39 -170q0 -69 6.5 -110.5t25.5 -72t53 -43t90 -12.5z" />
    <glyph glyph-name="Ucaron" unicode="&#x1d3;" horiz-adv-x="728" 
d="M384 800h-31l-128 132h46l99 -98l97 98h46zM155 700v-504q0 -91 53.5 -131t155.5 -40q108 0 164 39.5t56 131.5v504h39v-504q0 -109 -65.5 -157t-193.5 -48q-122 0 -185.5 48t-63.5 157v504h40z" />
    <glyph glyph-name="ucaron" unicode="&#x1d4;" horiz-adv-x="524" 
d="M285 600h-31l-128 132h47l98 -98l97 98h46zM453 499v-468q-107 -41 -180 -41q-110 0 -156.5 58.5t-46.5 189.5v261h41v-261q0 -115 36 -165.5t126 -50.5q58 0 141 28v449h39z" />
    <glyph glyph-name="Udieresismacron" unicode="&#x1d5;" horiz-adv-x="728" 
d="M213 900h313v-38h-313v38zM256 779h39v-62h-39v62zM443 779h39v-62h-39v62zM584 700h39v-504q0 -109 -65.5 -157t-193.5 -48q-122 0 -185.5 48t-63.5 157v504h40v-504q0 -91 53.5 -131t155.5 -40q108 0 164 39.5t56 131.5v504z" />
    <glyph glyph-name="udieresismacron" unicode="&#x1d6;" horiz-adv-x="524" 
d="M114 700h313v-38h-313v38zM158 579h38v-62h-38v62zM345 579h38v-62h-38v62zM414 499h40v-468q-108 -41 -181 -41q-110 0 -156.5 58.5t-46.5 189.5v261h41v-261q0 -115 36 -165.5t126 -50.5q58 0 141 28v449z" />
    <glyph glyph-name="Udieresisacute" unicode="&#x1d7;" horiz-adv-x="728" 
d="M394 932h58l-120 -113h-46zM256 780h39v-62h-39v62zM443 780h39v-62h-39v62zM584 700h39v-504q0 -109 -65.5 -157t-193.5 -48q-122 0 -185.5 48t-63.5 157v504h40v-504q0 -91 53.5 -131t155.5 -40q108 0 164 39.5t56 131.5v504z" />
    <glyph glyph-name="udieresisacute" unicode="&#x1d8;" horiz-adv-x="524" 
d="M295 732h59l-121 -113h-46zM158 579h38v-62h-38v62zM345 579h38v-62h-38v62zM414 499h40v-468q-108 -41 -181 -41q-110 0 -156.5 58.5t-46.5 189.5v261h41v-261q0 -115 36 -165.5t126 -50.5q58 0 141 28v449z" />
    <glyph glyph-name="Udieresiscaron" unicode="&#x1d9;" horiz-adv-x="728" 
d="M467 932h46l-129 -132h-31l-128 132h46l99 -98zM256 775h39v-62h-39v62zM443 775h39v-62h-39v62zM584 700h39v-504q0 -109 -65.5 -157t-193.5 -48q-122 0 -185.5 48t-63.5 157v504h40v-504q0 -91 53.5 -131t155.5 -40q108 0 164 39.5t56 131.5v504z" />
    <glyph glyph-name="udieresiscaron" unicode="&#x1da;" horiz-adv-x="524" 
d="M368 732h46l-129 -132h-31l-128 132h47l98 -98zM158 579h38v-62h-38v62zM345 579h38v-62h-38v62zM414 499h40v-468q-108 -41 -181 -41q-110 0 -156.5 58.5t-46.5 189.5v261h41v-261q0 -115 36 -165.5t126 -50.5q58 0 141 28v449z" />
    <glyph glyph-name="Udieresisgrave" unicode="&#x1db;" horiz-adv-x="728" 
d="M286 932h58l108 -113h-46zM256 777h39v-62h-39v62zM443 777h39v-62h-39v62zM584 700h39v-504q0 -109 -65.5 -157t-193.5 -48q-122 0 -185.5 48t-63.5 157v504h40v-504q0 -91 53.5 -131t155.5 -40q108 0 164 39.5t56 131.5v504z" />
    <glyph glyph-name="udieresisgrave" unicode="&#x1dc;" horiz-adv-x="524" 
d="M187 732h59l108 -113h-47zM158 579h38v-62h-38v62zM345 579h38v-62h-38v62zM414 499h40v-468q-108 -41 -181 -41q-110 0 -156.5 58.5t-46.5 189.5v261h41v-261q0 -115 36 -165.5t126 -50.5q58 0 141 28v449z" />
    <glyph glyph-name="Scommaaccent" unicode="&#x218;" horiz-adv-x="527" 
d="M60 7l6 34q100 -14 166 -14q13 0 25 1q34 1 55 3.5t46 9.5t38.5 19t23 34t9.5 53q0 61 -48 110q-10 10 -32 25.5t-41.5 27.5l-57.5 35.5l-54 33.5q-35 22 -55 37.5t-38 35.5t-25 44t-7 56q0 9 1 20q4 58 59.5 98t164.5 40q96 0 172 -10l-7 -34q-72 9 -165 9
q-92 0 -137.5 -30.5t-48.5 -74.5v-19q0 -49 22 -76t86 -67q138 -86 188 -124q33 -25 47.5 -64.5t14.5 -72.5q0 -39 -13.5 -68t-32 -44.5t-49 -25t-55 -12.5t-60.5 -4q-14 -1 -29 -1q-70 0 -169 15zM192 -250l46 210h44l-56 -210h-34z" />
    <glyph glyph-name="scommaaccent" unicode="&#x219;" horiz-adv-x="402" 
d="M60 6l6 30q66 -10 109 -10h16q29 1 45.5 4t34 11t25.5 26t8 45q0 42 -31.5 68.5t-120.5 88.5q-45 31 -63.5 57t-18.5 70v15q3 41 39.5 70t107.5 29q67 0 123 -9l-7 -29q-53 8 -116 8q-54 0 -80 -20t-28 -51q-1 -7 -1 -14q0 -34 14 -53t53 -46q93 -64 124 -90
q44 -37 44 -94q0 -29 -10 -50.5t-24 -33.5t-35.5 -19t-39 -9.5t-41.5 -3.5h-17q-42 0 -116 10zM122 -250l47 210h44l-56 -210h-35z" />
    <glyph glyph-name="uni021A" unicode="&#x21a;" horiz-adv-x="580" 
d="M15 666v34h550v-34h-254v-666h-40v666h-256zM218 -250l46 210h44l-56 -210h-34z" />
    <glyph glyph-name="uni021B" unicode="&#x21b;" horiz-adv-x="283" 
d="M110 632h38v-133h115v-32h-115v-312q0 -84 10.5 -109t46.5 -25q24 0 57 7l-6 -31q-27 -6 -51 -6q-59 0 -77 34t-18 130v312h-105v32h105v133zM106 -250l46 210h44l-56 -210h-34z" />
    <glyph glyph-name="circumflex" unicode="&#x2c6;" horiz-adv-x="408" 
d="M60 600l128 132h31l129 -132h-46l-97 98l-99 -98h-46z" />
    <glyph glyph-name="caron" unicode="&#x2c7;" horiz-adv-x="408" 
d="M219 600h-31l-128 132h46l99 -98l97 98h46z" />
    <glyph glyph-name="breve" unicode="&#x2d8;" horiz-adv-x="326" 
d="M234 737h33q0 -41 -30 -70.5t-74 -29.5t-73.5 29.5t-29.5 70.5h34q0 -26 20.5 -44t49.5 -18t49.5 18t20.5 44z" />
    <glyph glyph-name="dotaccent" unicode="&#x2d9;" horiz-adv-x="158" 
d="M60 638v62h38v-62h-38z" />
    <glyph glyph-name="ring" unicode="&#x2da;" horiz-adv-x="326" 
d="M163 742q44 0 74 -27t30 -67t-30 -67t-74 -27t-73.5 27t-29.5 67t29.5 67t73.5 27zM164 709q-28 0 -47.5 -17.5t-19.5 -43.5t19.5 -44t47.5 -18q29 0 47.5 18t18.5 44t-19 43.5t-47 17.5z" />
    <glyph glyph-name="ogonek" unicode="&#x2db;" horiz-adv-x="248" 
d="M131 0h37q-32 -12 -53 -40.5t-21 -57.5q0 -14 6 -26q13 -26 57 -26q14 0 27 3l5 -27q-24 -6 -45 -6q-60 0 -77 42q-8 17 -8 35q0 33 20.5 62t51.5 41z" />
    <glyph glyph-name="tilde" unicode="&#x2dc;" horiz-adv-x="456" 
d="M372 700l25 -17q-57 -55 -92 -55q-28 0 -52.5 13.5t-46 27t-43.5 13.5q-28 0 -76 -41l-27 18q61 54 104 54q30 0 55 -13t46.5 -26.5t39.5 -13.5q21 0 67 40z" />
    <glyph glyph-name="hungarumlaut" unicode="&#x2dd;" horiz-adv-x="405" 
d="M60 619l108 113h58l-120 -113h-46zM179 619l108 113h59l-121 -113h-46z" />
    <glyph glyph-name="Wgrave" unicode="&#x1e80;" horiz-adv-x="890" 
d="M362 932h58l108 -113h-46zM15 700h39l157 -666h42l170 656h44l176 -656h42l152 666h38l-158 -700h-106l-166 643l-161 -643h-105z" />
    <glyph glyph-name="wgrave" unicode="&#x1e81;" horiz-adv-x="783" 
d="M309 732h58l108 -113h-46zM15 500h41l139 -468h13l162 458h43l162 -458h12l141 468h40l-150 -500h-75l-152 448l-153 -448h-74z" />
    <glyph glyph-name="Wacute" unicode="&#x1e82;" horiz-adv-x="890" 
d="M362 819l108 113h58l-120 -113h-46zM15 700h39l157 -666h42l170 656h44l176 -656h42l152 666h38l-158 -700h-106l-166 643l-161 -643h-105z" />
    <glyph glyph-name="wacute" unicode="&#x1e83;" horiz-adv-x="783" 
d="M309 619l108 113h58l-120 -113h-46zM15 500h41l139 -468h13l162 458h43l162 -458h12l141 468h40l-150 -500h-75l-152 448l-153 -448h-74z" />
    <glyph glyph-name="Wdieresis" unicode="&#x1e84;" horiz-adv-x="890" 
d="M332 838v62h39v-62h-39zM519 838v62h39v-62h-39zM15 700h39l157 -666h42l170 656h44l176 -656h42l152 666h38l-158 -700h-106l-166 643l-161 -643h-105z" />
    <glyph glyph-name="wdieresis" unicode="&#x1e85;" horiz-adv-x="783" 
d="M279 638v62h39v-62h-39zM466 638v62h39v-62h-39zM15 500h41l139 -468h13l162 458h43l162 -458h12l141 468h40l-150 -500h-75l-152 448l-153 -448h-74z" />
    <glyph glyph-name="Adotbelow" unicode="&#x1ea0;" 
d="M252 700h116l235 -700h-39l-75 215h-361l-73 -215h-40zM478 249l-140 417h-59l-140 -417h339zM294 -101h38v-62h-38v62z" />
    <glyph glyph-name="adotbelow" unicode="&#x1ea1;" horiz-adv-x="495" 
d="M106 464l-6 33q105 12 165 12q82 0 121 -39t39 -117v-322q-120 -40 -225 -40q-66 0 -103 37.5t-37 108.5q0 65 36 101t116 43l175 17v55q0 64 -30.5 93t-91.5 29q-60 0 -159 -11zM387 52v213l-171 -15q-115 -11 -115 -113q0 -54 26.5 -84t73.5 -30q84 0 186 29zM236 -101
h38v-62h-38v62z" />
    <glyph glyph-name="Ahookabove" unicode="&#x1ea2;" 
d="M265 932l-2 26q21 4 43 4q39 0 53 -13.5t14 -50.5q0 -34 -10 -46.5t-41 -13.5v-23h-35v51h17q22 0 26.5 5.5t4.5 26.5q0 23 -5 29.5t-26 6.5q-29 0 -39 -2zM252 700h116l235 -700h-39l-75 215h-361l-73 -215h-40zM478 249l-140 417h-59l-140 -417h339z" />
    <glyph glyph-name="ahookabove" unicode="&#x1ea3;" horiz-adv-x="495" 
d="M212 670l-2 26q20 4 42 4q39 0 53 -14t14 -50q0 -35 -9.5 -47t-41.5 -13v-23h-34v51h17q22 0 26.5 5.5t4.5 26.5q0 22 -5 29t-26 7q-29 0 -39 -2zM106 464l-6 33q105 12 165 12q82 0 121 -39t39 -117v-322q-120 -40 -225 -40q-66 0 -103 37.5t-37 108.5q0 65 36 101
t116 43l175 17v55q0 64 -30.5 93t-91.5 29q-60 0 -159 -11zM387 52v213l-171 -15q-115 -11 -115 -113q0 -54 26.5 -84t73.5 -30q84 0 186 29z" />
    <glyph glyph-name="Acircumflexacute" unicode="&#x1ea4;" 
d="M531 977h58l-120 -113h-46zM293 932h31l129 -132h-46l-98 98l-98 -98h-46zM252 700h116l235 -700h-39l-75 215h-361l-73 -215h-40zM478 249l-140 417h-59l-140 -417h339z" />
    <glyph glyph-name="acircumflexacute" unicode="&#x1ea5;" horiz-adv-x="495" 
d="M322 699l108 113h58l-120 -113h-46zM106 600l128 132h30l130 -132h-47l-97 98l-98 -98h-46zM106 464l-6 33q105 12 165 12q82 0 121 -39t39 -117v-322q-120 -40 -225 -40q-66 0 -103 37.5t-37 108.5q0 65 36 101t116 43l175 17v55q0 64 -30.5 93t-91.5 29q-60 0 -159 -11
zM387 52v213l-171 -15q-115 -11 -115 -113q0 -54 26.5 -84t73.5 -30q84 0 186 29z" />
    <glyph glyph-name="Acircumflexgrave" unicode="&#x1ea6;" 
d="M328 983h58l108 -113h-46zM165 800l128 132h31l129 -132h-46l-98 98l-98 -98h-46zM252 700h116l235 -700h-39l-75 215h-361l-73 -215h-40zM478 249l-140 417h-59l-140 -417h339z" />
    <glyph glyph-name="acircumflexgrave" unicode="&#x1ea7;" horiz-adv-x="495" 
d="M222 813h59l107 -113h-46zM106 600l128 132h30l130 -132h-47l-97 98l-98 -98h-46zM106 464l-6 33q105 12 165 12q82 0 121 -39t39 -117v-322q-120 -40 -225 -40q-66 0 -103 37.5t-37 108.5q0 65 36 101t116 43l175 17v55q0 64 -30.5 93t-91.5 29q-60 0 -159 -11zM387 52
v213l-171 -15q-115 -11 -115 -113q0 -54 26.5 -84t73.5 -30q84 0 186 29z" />
    <glyph glyph-name="Acircumflexhookabove" unicode="&#x1ea8;" 
d="M439 932l-2 26q20 4 42 4q39 0 53 -13.5t14 -50.5q0 -34 -9.5 -46.5t-41.5 -13.5v-23h-34v51h17q22 0 26.5 5.5t4.5 26.5q0 23 -5 29.5t-26 6.5q-29 0 -39 -2zM165 800l128 132h31l129 -132h-46l-98 98l-98 -98h-46zM252 700h116l235 -700h-39l-75 215h-361l-73 -215h-40
zM478 249l-140 417h-59l-140 -417h339z" />
    <glyph glyph-name="acircumflexhookabove" unicode="&#x1ea9;" horiz-adv-x="495" 
d="M311 816l-2 26q20 4 42 4q39 0 53 -13.5t14 -50.5q0 -34 -9.5 -46.5t-41.5 -13.5v-23h-34v51h17q21 0 26 5.5t5 26.5q0 23 -5 29.5t-26 6.5q-29 0 -39 -2zM106 600l128 132h30l130 -132h-47l-97 98l-98 -98h-46zM106 464l-6 33q105 12 165 12q82 0 121 -39t39 -117v-322
q-120 -40 -225 -40q-66 0 -103 37.5t-37 108.5q0 65 36 101t116 43l175 17v55q0 64 -30.5 93t-91.5 29q-60 0 -159 -11zM387 52v213l-171 -15q-115 -11 -115 -113q0 -54 26.5 -84t73.5 -30q84 0 186 29z" />
    <glyph glyph-name="Acircumflextilde" unicode="&#x1eaa;" 
d="M168 951l-28 18q62 54 105 54q29 0 54.5 -13t46.5 -26.5t40 -13.5q20 0 67 40l24 -17q-56 -55 -91 -55q-28 0 -52.5 13.5t-46.5 27t-43 13.5q-28 0 -76 -41zM293 932h31l129 -132h-46l-98 98l-98 -98h-46zM251 700h117l235 -700h-39l-75 215h-361l-73 -215h-40zM478 249
l-140 417h-59l-140 -417h339z" />
    <glyph glyph-name="acircumflextilde" unicode="&#x1eab;" horiz-adv-x="495" 
d="M394 819l24 -17q-56 -55 -91 -55q-28 0 -53 13.5t-46.5 27t-42.5 13.5q-28 0 -76 -41l-28 18q62 54 105 54q29 0 54.5 -13.5t46.5 -26.5t40 -13q20 0 67 40zM106 600l128 132h30l130 -132h-47l-97 98l-98 -98h-46zM106 464l-6 33q105 12 165 12q82 0 121 -39t39 -117
v-322q-120 -40 -225 -40q-66 0 -103 37.5t-37 108.5q0 65 36 101t116 43l175 17v55q0 64 -30.5 93t-91.5 29q-60 0 -159 -11zM387 52v213l-171 -15q-115 -11 -115 -113q0 -54 26.5 -84t73.5 -30q84 0 186 29z" />
    <glyph glyph-name="Acircumflexdotbelow" unicode="&#x1eac;" 
d="M293 932h31l129 -132h-46l-98 98l-98 -98h-46zM252 700h116l235 -700h-39l-75 215h-361l-73 -215h-40zM478 249l-140 417h-59l-140 -417h339zM294 -101h38v-62h-38v62z" />
    <glyph glyph-name="acircumflexdotbelow" unicode="&#x1ead;" horiz-adv-x="495" 
d="M106 600l128 132h30l130 -132h-47l-97 98l-98 -98h-46zM106 464l-6 33q105 12 165 12q82 0 121 -39t39 -117v-322q-120 -40 -225 -40q-66 0 -103 37.5t-37 108.5q0 65 36 101t116 43l175 17v55q0 64 -30.5 93t-91.5 29q-60 0 -159 -11zM387 52v213l-171 -15
q-115 -11 -115 -113q0 -54 26.5 -84t73.5 -30q84 0 186 29zM236 -101h38v-62h-38v62z" />
    <glyph glyph-name="Abreveacute" unicode="&#x1eae;" 
d="M333 965h59l-120 -113h-46zM379 834h33q0 -40 -30 -70t-73 -30q-44 0 -74 29.5t-30 70.5h35q0 -26 20.5 -44t49.5 -18q28 0 48.5 18t20.5 44zM252 700h116l235 -700h-39l-75 215h-361l-73 -215h-40zM478 249l-140 417h-59l-140 -417h339z" />
    <glyph glyph-name="abreveacute" unicode="&#x1eaf;" horiz-adv-x="495" 
d="M166 757l108 113h59l-120 -113h-47zM320 737h33q0 -41 -30 -70.5t-73 -29.5q-44 0 -74 29.5t-30 70.5h35q0 -26 20.5 -44t49.5 -18q28 0 48.5 18t20.5 44zM106 464l-6 33q105 12 165 12q82 0 121 -39t39 -117v-322q-120 -40 -225 -40q-66 0 -103 37.5t-37 108.5
q0 65 36 101t116 43l175 17v55q0 64 -30.5 93t-91.5 29q-60 0 -159 -11zM387 52v213l-171 -15q-115 -11 -115 -113q0 -54 26.5 -84t73.5 -30q84 0 186 29z" />
    <glyph glyph-name="Abrevegrave" unicode="&#x1eb0;" 
d="M226 971h58l108 -113h-46zM379 835h33q0 -41 -30 -70.5t-73 -29.5q-44 0 -74 29.5t-30 70.5h35q0 -26 20.5 -44t49.5 -18q28 0 48.5 18t20.5 44zM252 700h116l235 -700h-39l-75 215h-361l-73 -215h-40zM478 249l-140 417h-59l-140 -417h339z" />
    <glyph glyph-name="abrevegrave" unicode="&#x1eb1;" horiz-adv-x="495" 
d="M166 872h59l108 -112h-46zM320 737h33q0 -41 -30 -70.5t-73 -29.5q-44 0 -74 29.5t-30 70.5h35q0 -26 20.5 -44t49.5 -18q28 0 48.5 18t20.5 44zM106 464l-6 33q105 12 165 12q82 0 121 -39t39 -117v-322q-120 -40 -225 -40q-66 0 -103 37.5t-37 108.5q0 65 36 101
t116 43l175 17v55q0 64 -30.5 93t-91.5 29q-60 0 -159 -11zM387 52v213l-171 -15q-115 -11 -115 -113q0 -54 26.5 -84t73.5 -30q84 0 186 29z" />
    <glyph glyph-name="Abrevehookabove" unicode="&#x1eb2;" 
d="M265 1038l-2 26q21 4 43 4q39 0 53 -13.5t14 -50.5q0 -35 -10 -47t-41 -13v-23h-35v51h17q22 0 26.5 5.5t4.5 26.5q0 22 -5 29t-26 7q-29 0 -39 -2zM379 937h33q0 -41 -30 -70.5t-73 -29.5q-44 0 -74 29.5t-30 70.5h35q0 -26 20.5 -44t49.5 -18q28 0 48.5 18t20.5 44z
M252 700h116l235 -700h-39l-75 215h-361l-73 -215h-40zM478 249l-140 417h-59l-140 -417h339z" />
    <glyph glyph-name="abrevehookabove" unicode="&#x1eb3;" horiz-adv-x="495" 
d="M212 876l-2 26q20 4 42 4q39 0 53 -13.5t14 -50.5q0 -35 -9.5 -47t-41.5 -13v-23h-34v51h17q22 0 26.5 5.5t4.5 26.5q0 22 -5 29t-26 7q-29 0 -39 -2zM320 737h33q0 -41 -30 -70.5t-73 -29.5q-44 0 -74 29.5t-30 70.5h35q0 -26 20.5 -44t49.5 -18q28 0 48.5 18t20.5 44z
M106 464l-6 33q105 12 165 12q82 0 121 -39t39 -117v-322q-120 -40 -225 -40q-66 0 -103 37.5t-37 108.5q0 65 36 101t116 43l175 17v55q0 64 -30.5 93t-91.5 29q-60 0 -159 -11zM387 52v213l-171 -15q-115 -11 -115 -113q0 -54 26.5 -84t73.5 -30q84 0 186 29z" />
    <glyph glyph-name="Abrevetilde" unicode="&#x1eb4;" 
d="M453 932l24 -17q-56 -55 -91 -55q-28 0 -52.5 13.5t-46.5 27t-43 13.5q-28 0 -76 -41l-28 18q62 54 105 54q29 0 54.5 -13.5t46.5 -26.5t40 -13q20 0 67 40zM379 836h33q0 -41 -30 -70.5t-73 -29.5q-44 0 -74 29.5t-30 70.5h35q0 -26 20.5 -44t49.5 -18q28 0 48.5 18
t20.5 44zM251 700h117l235 -700h-39l-75 215h-361l-73 -215h-40zM478 249l-140 417h-59l-140 -417h339z" />
    <glyph glyph-name="abrevetilde" unicode="&#x1eb5;" horiz-adv-x="495" 
d="M109 775l-28 18q62 54 105 54q29 0 54.5 -13t46.5 -26.5t40 -13.5q20 0 67 40l24 -17q-56 -55 -91 -55q-28 0 -53 13.5t-46.5 27t-42.5 13.5q-28 0 -76 -41zM320 737h33q0 -41 -30 -70.5t-73 -29.5q-44 0 -74 29.5t-30 70.5h35q0 -26 20.5 -44t49.5 -18q28 0 48.5 18
t20.5 44zM106 464l-6 33q105 12 165 12q82 0 121 -39t39 -117v-322q-120 -40 -225 -40q-66 0 -103 37.5t-37 108.5q0 65 36 101t116 43l175 17v55q0 64 -30.5 93t-91.5 29q-60 0 -159 -11zM387 52v213l-171 -15q-115 -11 -115 -113q0 -54 26.5 -84t73.5 -30q84 0 186 29z
" />
    <glyph glyph-name="Abrevedotbelow" unicode="&#x1eb6;" 
d="M379 937h33q0 -41 -30 -70.5t-73 -29.5q-44 0 -74 29.5t-30 70.5h35q0 -26 20.5 -44t49.5 -18q28 0 48.5 18t20.5 44zM252 700h116l235 -700h-39l-75 215h-361l-73 -215h-40zM478 249l-140 417h-59l-140 -417h339zM294 -101h38v-62h-38v62z" />
    <glyph glyph-name="abrevedotbelow" unicode="&#x1eb7;" horiz-adv-x="495" 
d="M320 737h33q0 -41 -30 -70.5t-73 -29.5q-44 0 -74 29.5t-30 70.5h35q0 -26 20.5 -44t49.5 -18q28 0 48.5 18t20.5 44zM106 464l-6 33q105 12 165 12q82 0 121 -39t39 -117v-322q-120 -40 -225 -40q-66 0 -103 37.5t-37 108.5q0 65 36 101t116 43l175 17v55q0 64 -30.5 93
t-91.5 29q-60 0 -159 -11zM387 52v213l-171 -15q-115 -11 -115 -113q0 -54 26.5 -84t73.5 -30q84 0 186 29zM236 -101h38v-62h-38v62z" />
    <glyph glyph-name="Edotbelow" unicode="&#x1eb8;" horiz-adv-x="624" 
d="M115 0v700h450v-34h-410v-289h344v-34h-344v-309h410v-34h-450zM294 -101h38v-62h-38v62z" />
    <glyph glyph-name="edotbelow" unicode="&#x1eb9;" horiz-adv-x="515" 
d="M442 49l6 -31q-112 -27 -181 -27q-61 0 -101.5 17.5t-63.5 52t-32.5 80t-9.5 109.5q0 142 50.5 200.5t150.5 58.5q104 0 154.5 -56.5t50.5 -183.5v-33h-365q0 -108 37.5 -160.5t129.5 -52.5q65 0 174 26zM101 268h324q0 113 -38.5 161t-125.5 48q-84 0 -122 -48.5
t-38 -160.5zM236 -101h38v-62h-38v62z" />
    <glyph glyph-name="Ehookabove" unicode="&#x1eba;" horiz-adv-x="624" 
d="M265 932l-2 26q21 4 43 4q39 0 53 -13.5t14 -50.5q0 -34 -10 -46.5t-41 -13.5v-23h-35v51h17q22 0 26.5 5.5t4.5 26.5q0 23 -5 29.5t-26 6.5q-29 0 -39 -2zM115 0v700h450v-34h-410v-289h344v-34h-344v-309h410v-34h-450z" />
    <glyph glyph-name="ehookabove" unicode="&#x1ebb;" horiz-adv-x="515" 
d="M212 670l-2 26q20 4 42 4q39 0 53 -14t14 -50q0 -35 -9.5 -47t-41.5 -13v-23h-34v51h17q22 0 26.5 5.5t4.5 26.5q0 22 -5 29t-26 7q-29 0 -39 -2zM442 49l6 -31q-112 -27 -181 -27q-61 0 -101.5 17.5t-63.5 52t-32.5 80t-9.5 109.5q0 142 50.5 200.5t150.5 58.5
q104 0 154.5 -56.5t50.5 -183.5v-33h-365q0 -108 37.5 -160.5t129.5 -52.5q65 0 174 26zM101 268h324q0 113 -38.5 161t-125.5 48q-84 0 -122 -48.5t-38 -160.5z" />
    <glyph glyph-name="Etilde" unicode="&#x1ebc;" horiz-adv-x="624" 
d="M463 900l24 -17q-57 -55 -92 -55q-27 0 -52 13.5t-46.5 27t-42.5 13.5q-29 0 -76 -41l-28 18q62 54 105 54q29 0 54.5 -13t46.5 -26.5t39 -13.5q21 0 68 40zM115 0v700h450v-34h-410v-289h344v-34h-344v-309h410v-34h-450z" />
    <glyph glyph-name="etilde" unicode="&#x1ebd;" horiz-adv-x="515" 
d="M417 700l24 -17q-57 -55 -92 -55q-27 0 -52 13.5t-46.5 27t-42.5 13.5q-29 0 -76 -41l-28 18q62 54 105 54q29 0 54.5 -13t46.5 -26.5t39 -13.5q21 0 68 40zM442 49l6 -31q-112 -27 -181 -27q-61 0 -101.5 17.5t-63.5 52t-32.5 80t-9.5 109.5q0 142 50.5 200.5
t150.5 58.5q104 0 154.5 -56.5t50.5 -183.5v-33h-365q0 -108 37.5 -160.5t129.5 -52.5q65 0 174 26zM101 268h324q0 113 -38.5 161t-125.5 48q-84 0 -122 -48.5t-38 -160.5z" />
    <glyph glyph-name="Ecircumflexacute" unicode="&#x1ebe;" horiz-adv-x="624" 
d="M541 977h58l-120 -113h-46zM303 932h31l129 -132h-46l-98 98l-98 -98h-46zM115 0v700h450v-34h-410v-289h344v-34h-344v-309h410v-34h-450z" />
    <glyph glyph-name="ecircumflexacute" unicode="&#x1ebf;" horiz-adv-x="515" 
d="M345 699l108 113h58l-120 -113h-46zM129 600l128 132h30l130 -132h-47l-97 98l-98 -98h-46zM442 49l6 -31q-112 -27 -181 -27q-61 0 -101.5 17.5t-63.5 52t-32.5 80t-9.5 109.5q0 142 50.5 200.5t150.5 58.5q104 0 154.5 -56.5t50.5 -183.5v-33h-365q0 -108 37.5 -160.5
t129.5 -52.5q65 0 174 26zM101 268h324q0 113 -38.5 161t-125.5 48q-84 0 -122 -48.5t-38 -160.5z" />
    <glyph glyph-name="Ecircumflexgrave" unicode="&#x1ec0;" horiz-adv-x="624" 
d="M338 983h58l108 -113h-46zM175 800l128 132h31l129 -132h-46l-98 98l-98 -98h-46zM115 0v700h450v-34h-410v-289h344v-34h-344v-309h410v-34h-450z" />
    <glyph glyph-name="ecircumflexgrave" unicode="&#x1ec1;" horiz-adv-x="515" 
d="M245 813h59l107 -113h-46zM129 600l128 132h30l130 -132h-47l-97 98l-98 -98h-46zM442 49l6 -31q-112 -27 -181 -27q-61 0 -101.5 17.5t-63.5 52t-32.5 80t-9.5 109.5q0 142 50.5 200.5t150.5 58.5q104 0 154.5 -56.5t50.5 -183.5v-33h-365q0 -108 37.5 -160.5
t129.5 -52.5q65 0 174 26zM101 268h324q0 113 -38.5 161t-125.5 48q-84 0 -122 -48.5t-38 -160.5z" />
    <glyph glyph-name="Ecircumflexhookabove" unicode="&#x1ec2;" horiz-adv-x="624" 
d="M448 932l-2 26q20 4 42 4q39 0 53 -13.5t14 -50.5q0 -34 -9.5 -46.5t-41.5 -13.5v-23h-34v51h17q22 0 26.5 5.5t4.5 26.5q0 23 -5 29.5t-26 6.5q-29 0 -39 -2zM174 800l128 132h31l129 -132h-46l-98 98l-98 -98h-46zM115 0v700h450v-34h-410v-289h344v-34h-344v-309h410
v-34h-450z" />
    <glyph glyph-name="ecircumflexhookabove" unicode="&#x1ec3;" horiz-adv-x="515" 
d="M333 816l-2 26q20 4 42 4q39 0 53 -13.5t14 -50.5q0 -34 -9.5 -46.5t-41.5 -13.5v-23h-34v51h17q21 0 26 5.5t5 26.5q0 23 -5 29.5t-26 6.5q-29 0 -39 -2zM128 600l128 132h30l130 -132h-47l-97 98l-98 -98h-46zM442 49l6 -31q-112 -27 -181 -27q-61 0 -101.5 17.5
t-63.5 52t-32.5 80t-9.5 109.5q0 142 50.5 200.5t150.5 58.5q104 0 154.5 -56.5t50.5 -183.5v-33h-365q0 -108 37.5 -160.5t129.5 -52.5q65 0 174 26zM101 268h324q0 113 -38.5 161t-125.5 48q-84 0 -122 -48.5t-38 -160.5z" />
    <glyph glyph-name="Ecircumflextilde" unicode="&#x1ec4;" horiz-adv-x="624" 
d="M177 951l-28 18q62 54 105 54q29 0 54.5 -13t46.5 -26.5t40 -13.5q20 0 67 40l24 -17q-56 -55 -91 -55q-28 0 -52.5 13.5t-46.5 27t-43 13.5q-28 0 -76 -41zM302 932h31l129 -132h-46l-98 98l-98 -98h-46zM115 0v700h450v-34h-410v-289h344v-34h-344v-309h410v-34h-450z
" />
    <glyph glyph-name="ecircumflextilde" unicode="&#x1ec5;" horiz-adv-x="515" 
d="M417 819l24 -17q-56 -55 -91 -55q-28 0 -53 13.5t-46.5 27t-42.5 13.5q-28 0 -76 -41l-28 18q62 54 105 54q29 0 54.5 -13.5t46.5 -26.5t40 -13q20 0 67 40zM129 600l128 132h30l130 -132h-47l-97 98l-98 -98h-46zM442 49l6 -31q-112 -27 -181 -27q-61 0 -101.5 17.5
t-63.5 52t-32.5 80t-9.5 109.5q0 142 50.5 200.5t150.5 58.5q104 0 154.5 -56.5t50.5 -183.5v-33h-365q0 -108 37.5 -160.5t129.5 -52.5q65 0 174 26zM101 268h324q0 113 -38.5 161t-125.5 48q-84 0 -122 -48.5t-38 -160.5z" />
    <glyph glyph-name="Ecircumflexdotbelow" unicode="&#x1ec6;" horiz-adv-x="624" 
d="M174 800l129 132h30l130 -132h-47l-97 98l-98 -98h-47zM115 0v700h450v-34h-410v-289h344v-34h-344v-309h410v-34h-450zM294 -101h38v-62h-38v62z" />
    <glyph glyph-name="ecircumflexdotbelow" unicode="&#x1ec7;" horiz-adv-x="515" 
d="M128 600l129 132h30l130 -132h-47l-97 98l-98 -98h-47zM442 49l6 -31q-112 -27 -181 -27q-61 0 -101.5 17.5t-63.5 52t-32.5 80t-9.5 109.5q0 142 50.5 200.5t150.5 58.5q104 0 154.5 -56.5t50.5 -183.5v-33h-365q0 -108 37.5 -160.5t129.5 -52.5q65 0 174 26zM101 268
h324q0 113 -38.5 161t-125.5 48q-84 0 -122 -48.5t-38 -160.5zM236 -101h38v-62h-38v62z" />
    <glyph glyph-name="Ihookabove" unicode="&#x1ec8;" horiz-adv-x="269" 
d="M94 932l-3 26q21 4 43 4q39 0 53 -13.5t14 -50.5q0 -34 -9.5 -46.5t-41.5 -13.5v-23h-34v51h17q21 0 26 5.5t5 26.5q0 23 -5 29.5t-26 6.5q-30 0 -39 -2zM115 0v700h40v-700h-40z" />
    <glyph glyph-name="ihookabove" unicode="&#x1ec9;" horiz-adv-x="240" 
d="M63 670l-2 26q21 4 43 4q39 0 53 -14t14 -50q0 -35 -10 -47t-41 -13v-23h-35v51h17q22 0 26.5 5.5t4.5 26.5q0 22 -5 29t-26 7q-29 0 -39 -2zM85 0v500h35v-500h-35z" />
    <glyph glyph-name="Idotbelow" unicode="&#x1eca;" horiz-adv-x="269" 
d="M115 0v700h40v-700h-40zM116 -101h39v-62h-39v62z" />
    <glyph glyph-name="idotbelow" unicode="&#x1ecb;" horiz-adv-x="193" 
d="M85 645v55h39v-55h-39zM85 0v500h39v-500h-39zM85 -101h39v-62h-39v62z" />
    <glyph glyph-name="Odotbelow" unicode="&#x1ecc;" horiz-adv-x="767" 
d="M387 708q143 0 214 -81t71 -265q0 -102 -12 -168t-44 -114t-87.5 -68.5t-141.5 -20.5q-89 0 -144.5 18.5t-89 64.5t-46 114t-12.5 177q0 128 31 203t93.5 107.5t167.5 32.5zM387 25q62 0 106 14.5t71 39.5t42.5 69t21 93t5.5 121q0 164 -63.5 238.5t-182.5 74.5
q-92 0 -146 -28t-80.5 -96t-26.5 -186q0 -76 6.5 -128t22.5 -95t44.5 -67t72.5 -37t107 -13zM366 -101h38v-62h-38v62z" />
    <glyph glyph-name="odotbelow" unicode="&#x1ecd;" horiz-adv-x="542" 
d="M274 509q103 0 156 -59t53 -191q0 -73 -9.5 -121t-33 -82.5t-64 -49.5t-102.5 -15q-124 0 -169 58.5t-45 211.5q0 136 50 192t164 56zM274 23q43 0 73.5 9.5t49.5 27t29.5 48t14 65.5t3.5 86q0 116 -43.5 167t-126.5 51q-97 0 -136 -46t-39 -170q0 -69 6.5 -110.5
t25.5 -72t53 -43t90 -12.5zM251 -101h38v-62h-38v62z" />
    <glyph glyph-name="Ohookabove" unicode="&#x1ece;" horiz-adv-x="767" 
d="M345 932l-2 26q20 4 42 4q39 0 53 -13.5t14 -50.5q0 -34 -9.5 -46.5t-41.5 -13.5v-23h-34v51h17q22 0 26.5 5.5t4.5 26.5q0 23 -5 29.5t-26 6.5q-29 0 -39 -2zM387 708q143 0 214 -81t71 -265q0 -102 -12 -168t-44 -114t-87.5 -68.5t-141.5 -20.5q-89 0 -144.5 18.5
t-89 64.5t-46 114t-12.5 177q0 128 31 203t93.5 107.5t167.5 32.5zM387 25q62 0 106 14.5t71 39.5t42.5 69t21 93t5.5 121q0 164 -63.5 238.5t-182.5 74.5q-92 0 -146 -28t-80.5 -96t-26.5 -186q0 -76 6.5 -128t22.5 -95t44.5 -67t72.5 -37t107 -13z" />
    <glyph glyph-name="ohookabove" unicode="&#x1ecf;" horiz-adv-x="542" 
d="M235 670l-2 26q20 4 42 4q39 0 53 -14t14 -50q0 -35 -9.5 -47t-41.5 -13v-23h-34v51h17q22 0 26.5 5.5t4.5 26.5q0 22 -5 29t-26 7q-29 0 -39 -2zM274 509q103 0 156 -59t53 -191q0 -73 -9.5 -121t-33 -82.5t-64 -49.5t-102.5 -15q-124 0 -169 58.5t-45 211.5
q0 136 50 192t164 56zM274 23q43 0 73.5 9.5t49.5 27t29.5 48t14 65.5t3.5 86q0 116 -43.5 167t-126.5 51q-97 0 -136 -46t-39 -170q0 -69 6.5 -110.5t25.5 -72t53 -43t90 -12.5z" />
    <glyph glyph-name="Ocircumflexacute" unicode="&#x1ed0;" horiz-adv-x="767" 
d="M606 977h59l-121 -113h-46zM368 932h31l129 -132h-46l-98 98l-98 -98h-46zM387 708q143 0 214 -81t71 -265q0 -102 -12 -168t-44 -114t-87.5 -68.5t-141.5 -20.5q-89 0 -144.5 18.5t-89 64.5t-46 114t-12.5 177q0 128 31 203t93.5 107.5t167.5 32.5zM387 25
q62 0 106 14.5t71 39.5t42.5 69t21 93t5.5 121q0 164 -63.5 238.5t-182.5 74.5q-92 0 -146 -28t-80.5 -96t-26.5 -186q0 -76 6.5 -128t22.5 -95t44.5 -67t72.5 -37t107 -13z" />
    <glyph glyph-name="ocircumflexacute" unicode="&#x1ed1;" horiz-adv-x="542" 
d="M345 699l108 113h58l-120 -113h-46zM129 600l128 132h30l130 -132h-47l-97 98l-98 -98h-46zM274 509q103 0 156 -59t53 -191q0 -73 -9.5 -121t-33 -82.5t-64 -49.5t-102.5 -15q-124 0 -169 58.5t-45 211.5q0 136 50 192t164 56zM274 23q43 0 73.5 9.5t49.5 27t29.5 48
t14 65.5t3.5 86q0 116 -43.5 167t-126.5 51q-97 0 -136 -46t-39 -170q0 -69 6.5 -110.5t25.5 -72t53 -43t90 -12.5z" />
    <glyph glyph-name="Ocircumflexgrave" unicode="&#x1ed2;" horiz-adv-x="767" 
d="M404 983h58l108 -113h-46zM241 800l128 132h30l130 -132h-47l-97 98l-98 -98h-46zM387 708q143 0 214 -81t71 -265q0 -102 -12 -168t-44 -114t-87.5 -68.5t-141.5 -20.5q-89 0 -144.5 18.5t-89 64.5t-46 114t-12.5 177q0 128 31 203t93.5 107.5t167.5 32.5zM387 25
q62 0 106 14.5t71 39.5t42.5 69t21 93t5.5 121q0 164 -63.5 238.5t-182.5 74.5q-92 0 -146 -28t-80.5 -96t-26.5 -186q0 -76 6.5 -128t22.5 -95t44.5 -67t72.5 -37t107 -13z" />
    <glyph glyph-name="ocircumflexgrave" unicode="&#x1ed3;" horiz-adv-x="542" 
d="M245 813h59l107 -113h-46zM129 600l128 132h30l130 -132h-47l-97 98l-98 -98h-46zM274 509q103 0 156 -59t53 -191q0 -73 -9.5 -121t-33 -82.5t-64 -49.5t-102.5 -15q-124 0 -169 58.5t-45 211.5q0 136 50 192t164 56zM274 23q43 0 73.5 9.5t49.5 27t29.5 48t14 65.5
t3.5 86q0 116 -43.5 167t-126.5 51q-97 0 -136 -46t-39 -170q0 -69 6.5 -110.5t25.5 -72t53 -43t90 -12.5z" />
    <glyph glyph-name="Ocircumflexhookabove" unicode="&#x1ed4;" horiz-adv-x="767" 
d="M514 932l-2 26q21 4 42 4q40 0 54 -13.5t14 -50.5q0 -34 -10 -46.5t-41 -13.5v-23h-35v51h17q22 0 26.5 5.5t4.5 26.5q0 23 -5 29.5t-26 6.5q-29 0 -39 -2zM240 800l128 132h31l129 -132h-46l-97 98l-99 -98h-46zM387 708q143 0 214 -81t71 -265q0 -102 -12 -168
t-44 -114t-87.5 -68.5t-141.5 -20.5q-89 0 -144.5 18.5t-89 64.5t-46 114t-12.5 177q0 128 31 203t93.5 107.5t167.5 32.5zM387 25q62 0 106 14.5t71 39.5t42.5 69t21 93t5.5 121q0 164 -63.5 238.5t-182.5 74.5q-92 0 -146 -28t-80.5 -96t-26.5 -186q0 -76 6.5 -128
t22.5 -95t44.5 -67t72.5 -37t107 -13z" />
    <glyph glyph-name="ocircumflexhookabove" unicode="&#x1ed5;" horiz-adv-x="542" 
d="M333 816l-2 26q20 4 42 4q39 0 53 -13.5t14 -50.5q0 -34 -9.5 -46.5t-41.5 -13.5v-23h-34v51h17q21 0 26 5.5t5 26.5q0 23 -5 29.5t-26 6.5q-29 0 -39 -2zM128 600l128 132h30l130 -132h-47l-97 98l-98 -98h-46zM274 509q103 0 156 -59t53 -191q0 -73 -9.5 -121
t-33 -82.5t-64 -49.5t-102.5 -15q-124 0 -169 58.5t-45 211.5q0 136 50 192t164 56zM274 23q43 0 73.5 9.5t49.5 27t29.5 48t14 65.5t3.5 86q0 116 -43.5 167t-126.5 51q-97 0 -136 -46t-39 -170q0 -69 6.5 -110.5t25.5 -72t53 -43t90 -12.5z" />
    <glyph glyph-name="Ocircumflextilde" unicode="&#x1ed6;" horiz-adv-x="767" 
d="M243 951l-28 18q62 54 105 54q29 0 54.5 -13t46.5 -26.5t40 -13.5q20 0 67 40l24 -17q-56 -55 -91 -55q-28 0 -52.5 13.5t-46.5 27t-43 13.5q-28 0 -76 -41zM368 932h31l129 -132h-46l-98 98l-98 -98h-46zM387 708q143 0 214 -81t71 -265q0 -102 -12 -168t-44 -114
t-87.5 -68.5t-141.5 -20.5q-89 0 -144.5 18.5t-89 64.5t-46 114t-12.5 177q0 128 31 203t93.5 107.5t167.5 32.5zM387 25q62 0 106 14.5t71 39.5t42.5 69t21 93t5.5 121q0 164 -63.5 238.5t-182.5 74.5q-92 0 -146 -28t-80.5 -96t-26.5 -186q0 -76 6.5 -128t22.5 -95
t44.5 -67t72.5 -37t107 -13z" />
    <glyph glyph-name="ocircumflextilde" unicode="&#x1ed7;" horiz-adv-x="542" 
d="M417 819l24 -17q-56 -55 -91 -55q-28 0 -53 13.5t-46.5 27t-42.5 13.5q-28 0 -76 -41l-28 18q62 54 105 54q29 0 54.5 -13.5t46.5 -26.5t40 -13q20 0 67 40zM129 600l128 132h30l130 -132h-47l-97 98l-98 -98h-46zM273 509q104 0 157 -59t53 -191q0 -73 -9.5 -121
t-33 -82.5t-64 -49.5t-103.5 -15q-123 0 -168 58.5t-45 211.5q0 136 50 192t163 56zM273 23q44 0 74.5 10t49.5 27t29.5 47.5t14 65.5t3.5 86q0 116 -43.5 167t-127.5 51q-96 0 -135 -46t-39 -170q0 -69 6.5 -110.5t25.5 -72t53 -43t89 -12.5z" />
    <glyph glyph-name="Ocircumflexdotbelow" unicode="&#x1ed8;" horiz-adv-x="767" 
d="M240 800l128 132h31l129 -132h-46l-97 98l-99 -98h-46zM387 708q143 0 214 -81t71 -265q0 -102 -12 -168t-44 -114t-87.5 -68.5t-141.5 -20.5q-89 0 -144.5 18.5t-89 64.5t-46 114t-12.5 177q0 128 31 203t93.5 107.5t167.5 32.5zM387 25q62 0 106 14.5t71 39.5t42.5 69
t21 93t5.5 121q0 164 -63.5 238.5t-182.5 74.5q-92 0 -146 -28t-80.5 -96t-26.5 -186q0 -76 6.5 -128t22.5 -95t44.5 -67t72.5 -37t107 -13zM366 -101h38v-62h-38v62z" />
    <glyph glyph-name="ocircumflexdotbelow" unicode="&#x1ed9;" horiz-adv-x="542" 
d="M127 600l128 132h31l129 -132h-46l-97 98l-99 -98h-46zM274 509q103 0 156 -59t53 -191q0 -73 -9.5 -121t-33 -82.5t-64 -49.5t-102.5 -15q-124 0 -169 58.5t-45 211.5q0 136 50 192t164 56zM274 23q43 0 73.5 9.5t49.5 27t29.5 48t14 65.5t3.5 86q0 116 -43.5 167
t-126.5 51q-97 0 -136 -46t-39 -170q0 -69 6.5 -110.5t25.5 -72t53 -43t90 -12.5zM251 -101h38v-62h-38v62z" />
    <glyph glyph-name="Ohornacute" unicode="&#x1eda;" horiz-adv-x="767" 
d="M301 819l108 113h58l-120 -113h-46zM691 709l27 5q5 -24 5 -45q0 -60 -41 -78q-17 -7 -36 -7q-9 0 -17 2q43 -82 43 -224q0 -102 -12 -168t-44 -114t-87.5 -68.5t-141.5 -20.5q-89 0 -144.5 18.5t-89 64.5t-46 114t-12.5 177q0 128 31 203t93.5 107.5t167.5 32.5
q141 0 210 -77q23 -12 45 -12q14 0 26 6q26 13 26 57q0 14 -3 27zM387 25q62 0 106 14.5t71 39.5t42.5 69t21 93t5.5 121q0 164 -63.5 238.5t-182.5 74.5q-92 0 -146 -28t-80.5 -96t-26.5 -186q0 -76 6.5 -128t22.5 -95t44.5 -67t72.5 -37t107 -13z" />
    <glyph glyph-name="ohornacute" unicode="&#x1edb;" horiz-adv-x="542" 
d="M188 619l108 113h58l-120 -113h-46zM519 523l27 5q6 -25 6 -45q0 -60 -42 -78q-17 -7 -35 -7q-7 0 -15 1q23 -55 23 -140q0 -73 -9.5 -121t-33 -82.5t-64 -49.5t-103.5 -15q-123 0 -168 58.5t-45 211.5q0 136 50 192t163 56q115 0 166 -70q16 -7 31 -7t26 6q27 14 27 57
q0 15 -4 28zM273 23q44 0 74.5 10t49.5 27t29.5 47.5t14 65.5t3.5 86q0 116 -43.5 167t-127.5 51q-96 0 -135 -46t-39 -170q0 -69 6.5 -110.5t25.5 -72t53 -43t89 -12.5z" />
    <glyph glyph-name="Ohorngrave" unicode="&#x1edc;" horiz-adv-x="767" 
d="M301 932h58l108 -113h-46zM691 709l27 5q5 -24 5 -45q0 -60 -41 -78q-17 -7 -36 -7q-9 0 -17 2q43 -82 43 -224q0 -102 -12 -168t-44 -114t-87.5 -68.5t-141.5 -20.5q-89 0 -144.5 18.5t-89 64.5t-46 114t-12.5 177q0 128 31 203t93.5 107.5t167.5 32.5q141 0 210 -77
q23 -12 45 -12q14 0 26 6q26 13 26 57q0 14 -3 27zM387 25q62 0 106 14.5t71 39.5t42.5 69t21 93t5.5 121q0 164 -63.5 238.5t-182.5 74.5q-92 0 -146 -28t-80.5 -96t-26.5 -186q0 -76 6.5 -128t22.5 -95t44.5 -67t72.5 -37t107 -13z" />
    <glyph glyph-name="ohorngrave" unicode="&#x1edd;" horiz-adv-x="542" 
d="M188 732h59l107 -113h-46zM519 523l27 5q6 -25 6 -45q0 -60 -42 -78q-17 -7 -35 -7q-7 0 -15 1q23 -55 23 -140q0 -73 -9.5 -121t-33 -82.5t-64 -49.5t-103.5 -15q-123 0 -168 58.5t-45 211.5q0 136 50 192t163 56q115 0 166 -70q16 -7 31 -7t26 6q27 14 27 57
q0 15 -4 28zM273 23q44 0 74.5 10t49.5 27t29.5 47.5t14 65.5t3.5 86q0 116 -43.5 167t-127.5 51q-96 0 -135 -46t-39 -170q0 -69 6.5 -110.5t25.5 -72t53 -43t89 -12.5z" />
    <glyph glyph-name="Ohornhookabove" unicode="&#x1ede;" horiz-adv-x="767" 
d="M345 932l-2 26q20 4 42 4q39 0 53 -13.5t14 -50.5q0 -34 -9.5 -46.5t-41.5 -13.5v-23h-34v51h17q22 0 26.5 5.5t4.5 26.5q0 23 -5 29.5t-26 6.5q-29 0 -39 -2zM691 709l27 5q5 -24 5 -45q0 -60 -41 -78q-17 -7 -36 -7q-9 0 -17 2q43 -82 43 -224q0 -102 -12 -168
t-44 -114t-87.5 -68.5t-141.5 -20.5q-89 0 -144.5 18.5t-89 64.5t-46 114t-12.5 177q0 128 31 203t93.5 107.5t167.5 32.5q141 0 210 -77q23 -12 45 -12q14 0 26 6q26 13 26 57q0 14 -3 27zM387 25q62 0 106 14.5t71 39.5t42.5 69t21 93t5.5 121q0 164 -63.5 238.5
t-182.5 74.5q-92 0 -146 -28t-80.5 -96t-26.5 -186q0 -76 6.5 -128t22.5 -95t44.5 -67t72.5 -37t107 -13z" />
    <glyph glyph-name="ohornhookabove" unicode="&#x1edf;" horiz-adv-x="542" 
d="M235 670l-2 26q20 4 42 4q39 0 53 -14t14 -50q0 -35 -9.5 -47t-41.5 -13v-23h-34v51h17q22 0 26.5 5.5t4.5 26.5q0 22 -5 29t-26 7q-29 0 -39 -2zM519 523l27 5q6 -25 6 -45q0 -60 -42 -78q-17 -7 -35 -7q-7 0 -15 1q23 -55 23 -140q0 -73 -9.5 -121t-33 -82.5t-64 -49.5
t-103.5 -15q-123 0 -168 58.5t-45 211.5q0 136 50 192t163 56q115 0 166 -70q16 -7 31 -7t26 6q27 14 27 57q0 15 -4 28zM273 23q44 0 74.5 10t49.5 27t29.5 47.5t14 65.5t3.5 86q0 116 -43.5 167t-127.5 51q-96 0 -135 -46t-39 -170q0 -69 6.5 -110.5t25.5 -72t53 -43
t89 -12.5z" />
    <glyph glyph-name="Ohorntilde" unicode="&#x1ee0;" horiz-adv-x="767" 
d="M528 900l24 -17q-56 -55 -91 -55q-28 0 -52.5 13.5t-46.5 27t-43 13.5q-28 0 -76 -41l-27 18q61 54 104 54q29 0 54.5 -13t47 -26.5t39.5 -13.5q21 0 67 40zM691 709l27 5q5 -24 5 -45q0 -60 -41 -78q-17 -7 -36 -7q-9 0 -17 2q43 -82 43 -224q0 -102 -12 -168t-44 -114
t-87.5 -68.5t-141.5 -20.5q-89 0 -144.5 18.5t-89 64.5t-46 114t-12.5 177q0 128 31 203t93.5 107.5t167.5 32.5q141 0 210 -76q23 -13 45 -13q14 0 26 6q26 13 26 57q0 14 -3 27zM387 25q62 0 106 14.5t71 39.5t42.5 69t21 93t5.5 121q0 164 -63.5 238.5t-182.5 74.5
q-92 0 -146 -28t-80.5 -96t-26.5 -186q0 -76 6.5 -128t22.5 -95t44.5 -67t72.5 -37t107 -13z" />
    <glyph glyph-name="ohorntilde" unicode="&#x1ee1;" horiz-adv-x="542" 
d="M415 700l25 -17q-57 -55 -92 -55q-28 0 -52.5 13.5t-46 27t-43.5 13.5q-28 0 -76 -41l-27 18q61 54 104 54q30 0 55 -13t46.5 -26.5t39.5 -13.5q21 0 67 40zM519 523l27 5q6 -25 6 -45q0 -60 -42 -78q-17 -7 -35 -7q-7 0 -15 1q23 -55 23 -140q0 -73 -9.5 -121t-33 -82.5
t-64 -49.5t-103.5 -15q-123 0 -168 58.5t-45 211.5q0 136 50 192t163 56q115 0 166 -70q16 -7 31 -7t26 6q27 14 27 57q0 15 -4 28zM273 23q44 0 74.5 10t49.5 27t29.5 47.5t14 65.5t3.5 86q0 116 -43.5 167t-127.5 51q-96 0 -135 -46t-39 -170q0 -69 6.5 -110.5t25.5 -72
t53 -43t89 -12.5z" />
    <glyph glyph-name="Ohorndotbelow" unicode="&#x1ee2;" horiz-adv-x="767" 
d="M691 709l27 5q5 -24 5 -45q0 -60 -41 -78q-17 -7 -36 -7q-9 0 -17 2q43 -82 43 -224q0 -102 -12 -168t-44 -114t-87.5 -68.5t-141.5 -20.5q-89 0 -144.5 18.5t-89 64.5t-46 114t-12.5 177q0 128 31 203t93.5 107.5t167.5 32.5q141 0 210 -77q23 -12 45 -12q14 0 26 6
q26 13 26 57q0 14 -3 27zM387 25q62 0 106 14.5t71 39.5t42.5 69t21 93t5.5 121q0 164 -63.5 238.5t-182.5 74.5q-92 0 -146 -28t-80.5 -96t-26.5 -186q0 -76 6.5 -128t22.5 -95t44.5 -67t72.5 -37t107 -13zM366 -101h38v-62h-38v62z" />
    <glyph glyph-name="ohorndotbelow" unicode="&#x1ee3;" horiz-adv-x="542" 
d="M519 523l27 5q6 -25 6 -45q0 -60 -42 -78q-17 -7 -35 -7q-7 0 -15 1q23 -55 23 -140q0 -73 -9.5 -121t-33 -82.5t-64 -49.5t-103.5 -15q-123 0 -168 58.5t-45 211.5q0 136 50 192t163 56q115 0 166 -70q16 -7 31 -7t26 6q27 14 27 57q0 15 -4 28zM273 23q44 0 74.5 10
t49.5 27t29.5 47.5t14 65.5t3.5 86q0 116 -43.5 167t-127.5 51q-96 0 -135 -46t-39 -170q0 -69 6.5 -110.5t25.5 -72t53 -43t89 -12.5zM251 -101h38v-62h-38v62z" />
    <glyph glyph-name="Udotbelow" unicode="&#x1ee4;" horiz-adv-x="728" 
d="M155 700v-504q0 -91 53.5 -131t155.5 -40q108 0 164 39.5t56 131.5v504h39v-504q0 -109 -65.5 -157t-193.5 -48q-122 0 -185.5 48t-63.5 157v504h40zM345 -101h38v-62h-38v62z" />
    <glyph glyph-name="udotbelow" unicode="&#x1ee5;" horiz-adv-x="524" 
d="M453 499v-468q-107 -41 -180 -41q-110 0 -156.5 58.5t-46.5 189.5v261h41v-261q0 -115 36 -165.5t126 -50.5q58 0 141 28v449h39zM251 -101h38v-62h-38v62z" />
    <glyph glyph-name="Uhookabove" unicode="&#x1ee6;" horiz-adv-x="728" 
d="M330 932l-2 26q20 4 42 4q39 0 53 -13.5t14 -50.5q0 -34 -9.5 -46.5t-41.5 -13.5v-23h-34v51h17q21 0 26 5.5t5 26.5q0 23 -5 29.5t-26 6.5q-29 0 -39 -2zM155 700v-504q0 -91 53.5 -131t155.5 -40q108 0 164 39.5t56 131.5v504h39v-504q0 -109 -65.5 -157t-193.5 -48
q-122 0 -185.5 48t-63.5 157v504h40z" />
    <glyph glyph-name="uhookabove" unicode="&#x1ee7;" horiz-adv-x="524" 
d="M235 670l-2 26q20 4 42 4q39 0 53 -14t14 -50q0 -35 -9.5 -47t-41.5 -13v-23h-34v51h17q22 0 26.5 5.5t4.5 26.5q0 22 -5 29t-26 7q-29 0 -39 -2zM453 499v-468q-107 -41 -180 -41q-110 0 -156.5 58.5t-46.5 189.5v261h41v-261q0 -115 36 -165.5t126 -50.5q58 0 141 28
v449h39z" />
    <glyph glyph-name="Uhornacute" unicode="&#x1ee8;" horiz-adv-x="728" 
d="M286 819l108 113h58l-120 -113h-46zM685 729l27 5q5 -24 5 -45q0 -60 -41 -78q-17 -7 -36 -7q-8 0 -17 2v-410q0 -109 -65.5 -157t-193.5 -48q-122 0 -185.5 48t-63.5 157v504h40v-504q0 -91 53.5 -131t155.5 -40q108 0 164 39.5t56 131.5v504h39v-60q7 -1 13 -1
q14 0 26 6q26 13 26 57q0 14 -3 27z" />
    <glyph glyph-name="uhornacute" unicode="&#x1ee9;" horiz-adv-x="524" 
d="M187 619l108 113h59l-121 -113h-46zM514 528l27 5q5 -25 5 -45q0 -60 -41 -78q-17 -7 -36 -7q-8 0 -16 1v-373q-107 -41 -180 -41q-110 0 -156.5 58.5t-46.5 189.5v261h41v-261q0 -115 36 -165.5t126 -50.5q58 0 141 28v449h40v-61q5 -1 11 -1q14 0 26 6q26 13 26 57
q0 15 -3 28z" />
    <glyph glyph-name="Uhorngrave" unicode="&#x1eea;" horiz-adv-x="728" 
d="M286 932h58l108 -113h-46zM685 729l27 5q5 -24 5 -45q0 -60 -41 -78q-17 -7 -36 -7q-8 0 -17 2v-410q0 -109 -65.5 -157t-193.5 -48q-122 0 -185.5 48t-63.5 157v504h40v-504q0 -91 53.5 -131t155.5 -40q108 0 164 39.5t56 131.5v504h39v-60q7 -1 13 -1q14 0 26 6
q26 13 26 57q0 14 -3 27z" />
    <glyph glyph-name="uhorngrave" unicode="&#x1eeb;" horiz-adv-x="546" 
d="M187 732h59l108 -113h-47zM514 528l27 5q5 -25 5 -45q0 -60 -41 -78q-17 -7 -36 -7q-8 0 -16 1v-373q-107 -41 -180 -41q-110 0 -156.5 58.5t-46.5 189.5v261h41v-261q0 -115 36 -165.5t126 -50.5q58 0 141 28v449h40v-61q5 -1 11 -1q14 0 26 6q26 13 26 57q0 15 -3 28z
" />
    <glyph glyph-name="Uhornhookabove" unicode="&#x1eec;" horiz-adv-x="728" 
d="M330 932l-2 26q20 4 42 4q39 0 53 -13.5t14 -50.5q0 -34 -9.5 -46.5t-41.5 -13.5v-23h-34v51h17q21 0 26 5.5t5 26.5q0 23 -5 29.5t-26 6.5q-29 0 -39 -2zM685 729l27 5q5 -24 5 -45q0 -60 -41 -78q-17 -7 -36 -7q-8 0 -17 2v-410q0 -109 -65.5 -157t-193.5 -48
q-122 0 -185.5 48t-63.5 157v504h40v-504q0 -91 53.5 -131t155.5 -40q108 0 164 39.5t56 131.5v504h39v-60q7 -1 13 -1q14 0 26 6q26 13 26 57q0 14 -3 27z" />
    <glyph glyph-name="uhornhookabove" unicode="&#x1eed;" horiz-adv-x="524" 
d="M235 670l-2 26q20 4 42 4q39 0 53 -14t14 -50q0 -35 -9.5 -47t-41.5 -13v-23h-34v51h17q22 0 26.5 5.5t4.5 26.5q0 22 -5 29t-26 7q-29 0 -39 -2zM514 528l27 5q5 -25 5 -45q0 -60 -41 -78q-17 -7 -36 -7q-8 0 -16 1v-373q-107 -41 -180 -41q-110 0 -156.5 58.5
t-46.5 189.5v261h41v-261q0 -115 36 -165.5t126 -50.5q58 0 141 28v449h40v-61q5 -1 11 -1q14 0 26 6q26 13 26 57q0 15 -3 28z" />
    <glyph glyph-name="Uhorntilde" unicode="&#x1eee;" horiz-adv-x="728" 
d="M513 900l24 -17q-56 -55 -91 -55q-28 0 -52.5 13.5t-46.5 27t-43 13.5q-28 0 -76 -41l-27 18q61 54 104 54q29 0 54.5 -13t46.5 -26.5t40 -13.5q20 0 67 40zM685 729l27 5q5 -24 5 -45q0 -60 -41 -78q-17 -7 -36 -7q-8 0 -17 2v-410q0 -109 -65.5 -157t-193.5 -48
q-122 0 -185.5 48t-63.5 157v504h40v-504q0 -91 53.5 -131t155.5 -40q108 0 164 39.5t56 131.5v504h39v-60q7 -1 13 -1q14 0 26 6q26 13 26 57q0 14 -3 27z" />
    <glyph glyph-name="uhorntilde" unicode="&#x1eef;" horiz-adv-x="524" 
d="M414 700l25 -17q-57 -55 -92 -55q-28 0 -52.5 13.5t-46 27t-43.5 13.5q-28 0 -75 -41l-28 18q62 54 105 54q29 0 54 -13t46.5 -26.5t39.5 -13.5q21 0 67 40zM514 528l27 5q5 -25 5 -45q0 -60 -41 -78q-17 -7 -36 -7q-8 0 -16 1v-373q-107 -41 -180 -41
q-110 0 -156.5 58.5t-46.5 189.5v261h41v-261q0 -115 36 -165.5t126 -50.5q58 0 141 28v449h40v-61q5 -1 11 -1q14 0 26 6q26 13 26 57q0 15 -3 28z" />
    <glyph glyph-name="Uhorndotbelow" unicode="&#x1ef0;" horiz-adv-x="728" 
d="M685 729l27 5q5 -24 5 -45q0 -60 -41 -78q-17 -7 -36 -7q-8 0 -17 2v-410q0 -109 -65.5 -157t-193.5 -48q-122 0 -185.5 48t-63.5 157v504h40v-504q0 -91 53.5 -131t155.5 -40q108 0 164 39.5t56 131.5v504h39v-60q7 -1 13 -1q14 0 26 6q26 13 26 57q0 14 -3 27z
M345 -101h38v-62h-38v62z" />
    <glyph glyph-name="uhorndotbelow" unicode="&#x1ef1;" horiz-adv-x="524" 
d="M514 528l27 5q5 -25 5 -45q0 -60 -41 -78q-17 -7 -36 -7q-8 0 -16 1v-373q-107 -41 -180 -41q-110 0 -156.5 58.5t-46.5 189.5v261h41v-261q0 -115 36 -165.5t126 -50.5q58 0 141 28v449h40v-61q5 -1 11 -1q14 0 26 6q26 13 26 57q0 15 -3 28zM251 -101h38v-62h-38v62z
" />
    <glyph glyph-name="Ygrave" unicode="&#x1ef2;" horiz-adv-x="569" 
d="M201 932h59l108 -113h-47zM305 301v-301h-39v301l-251 399h45l226 -359l222 359h46z" />
    <glyph glyph-name="ygrave" unicode="&#x1ef3;" horiz-adv-x="450" 
d="M132 732h58l108 -113h-46zM395 500h40l-229 -664h-41l57 164h-37l-170 500h41l160 -468h17z" />
    <glyph glyph-name="Ydotbelow" unicode="&#x1ef4;" horiz-adv-x="569" 
d="M305 301v-301h-39v301l-251 399h45l226 -359l222 359h46zM267 -101h38v-62h-38v62z" />
    <glyph glyph-name="ydotbelow" unicode="&#x1ef5;" horiz-adv-x="450" 
d="M395 500h40l-229 -664h-41l57 164h-37l-170 500h41l160 -468h17zM289 -101h38v-62h-38v62z" />
    <glyph glyph-name="Yhookabove" unicode="&#x1ef6;" horiz-adv-x="569" 
d="M241 932l-2 26q21 4 43 4q39 0 53 -13.5t14 -50.5q0 -34 -9.5 -46.5t-41.5 -13.5v-23h-35v51h18q21 0 25.5 5.5t4.5 26.5q0 23 -4.5 29.5t-25.5 6.5q-30 0 -40 -2zM305 301v-301h-39v301l-251 399h45l226 -359l222 359h46z" />
    <glyph glyph-name="yhookabove" unicode="&#x1ef7;" horiz-adv-x="450" 
d="M193 670l-2 26q20 4 42 4q39 0 53 -14t14 -50q0 -35 -9.5 -47t-41.5 -13v-23h-34v51h17q22 0 26.5 5.5t4.5 26.5q0 22 -5 29t-26 7q-29 0 -39 -2zM395 500h40l-229 -664h-41l57 164h-37l-170 500h41l160 -468h17z" />
    <glyph glyph-name="Ytilde" unicode="&#x1ef8;" horiz-adv-x="569" 
d="M429 900l24 -17q-57 -55 -92 -55q-27 0 -52 13.5t-46.5 27t-42.5 13.5q-29 0 -76 -41l-28 18q62 54 105 54q29 0 54.5 -13t46.5 -26.5t39 -13.5q21 0 68 40zM305 301v-301h-39v301l-251 399h45l226 -359l222 359h46z" />
    <glyph glyph-name="ytilde" unicode="&#x1ef9;" horiz-adv-x="450" 
d="M74 641l-27 18q61 54 104 54q29 0 54.5 -13t47 -26.5t39.5 -13.5q21 0 67 40l25 -17q-57 -55 -92 -55q-28 0 -52.5 13.5t-46.5 27t-43 13.5q-28 0 -76 -41zM395 500h40l-229 -664h-41l57 164h-37l-170 500h41l160 -468h17z" />
    <glyph glyph-name="endash" unicode="&#x2013;" horiz-adv-x="521" 
d="M60 266v34h402v-34h-402z" />
    <glyph glyph-name="emdash" unicode="&#x2014;" horiz-adv-x="856" 
d="M60 268v34h736v-34h-736z" />
    <glyph glyph-name="quoteleft" unicode="&#x2018;" horiz-adv-x="205" 
d="M146 727l-44 -200h-42l54 200h32z" />
    <glyph glyph-name="quoteright" unicode="&#x2019;" horiz-adv-x="205" 
d="M60 527l44 200h42l-54 -200h-32z" />
    <glyph glyph-name="quotesinglbase" unicode="&#x201a;" horiz-adv-x="210" 
d="M60 -123l46 210h44l-56 -210h-34z" />
    <glyph glyph-name="quotedblleft" unicode="&#x201c;" horiz-adv-x="289" 
d="M146 727l-44 -200h-42l54 200h32zM230 727l-44 -200h-42l54 200h32z" />
    <glyph glyph-name="quotedblright" unicode="&#x201d;" horiz-adv-x="289" 
d="M60 527l44 200h42l-54 -200h-32zM144 527l44 200h41l-54 -200h-31z" />
    <glyph glyph-name="quotedblbase" unicode="&#x201e;" horiz-adv-x="297" 
d="M60 -123l46 210h44l-56 -210h-34zM147 -123l47 210h44l-57 -210h-34z" />
    <glyph glyph-name="dagger" unicode="&#x2020;" horiz-adv-x="472" 
d="M60 466v34h158v200h37v-200h157v-34h-159v-525h-37v525h-156z" />
    <glyph glyph-name="daggerdbl" unicode="&#x2021;" horiz-adv-x="565" 
d="M264 0v212h-204v32h204v222h-204v32h204v202h38v-202h204v-32h-204v-222h204v-32h-204v-212h-38z" />
    <glyph glyph-name="bullet" unicode="&#x2022;" horiz-adv-x="164" 
d="M60 0v80h44v-80h-44z" />
    <glyph glyph-name="ellipsis" unicode="&#x2026;" horiz-adv-x="358" 
d="M60 0v80h40v-80h-40zM159 0v80h40v-80h-40zM258 0v80h40v-80h-40z" />
    <glyph glyph-name="perthousand" unicode="&#x2030;" horiz-adv-x="1029" 
d="M649 716l-531 -733h-46l533 733h44zM177 700q116 0 116 -137q0 -77 -25 -111.5t-91 -34.5t-91.5 33t-25.5 114q0 73 28.5 104.5t88.5 31.5zM177 450q50 0 65 24.5t15 88.5q0 57 -19.5 80.5t-60.5 23.5q-47 0 -64.5 -21t-17.5 -82q0 -67 15.5 -90.5t66.5 -23.5zM551 283
q116 0 116 -137q0 -77 -25 -111.5t-91 -34.5t-91.5 33t-25.5 114q0 73 28.5 104.5t88.5 31.5zM854 282q116 0 116 -137q0 -77 -25 -111.5t-91 -34.5t-91.5 33t-25.5 114q0 73 28.5 104.5t88.5 31.5zM551 33q50 0 65 24.5t15 88.5q0 57 -19.5 80.5t-60.5 23.5
q-47 0 -64.5 -21t-17.5 -82q0 -67 15.5 -90.5t66.5 -23.5zM854 32q50 0 65 24.5t15 88.5q0 57 -19.5 80.5t-60.5 23.5q-47 0 -64.5 -21t-17.5 -82q0 -67 15.5 -90.5t66.5 -23.5z" />
    <glyph glyph-name="guilsinglleft" unicode="&#x2039;" horiz-adv-x="303" 
d="M244 380l-149 -106l149 -117v-41l-184 138v36l184 129v-39z" />
    <glyph glyph-name="guilsinglright" unicode="&#x203a;" horiz-adv-x="303" 
d="M60 157l148 117l-148 106v39l184 -129v-36l-184 -138v41z" />
    <glyph glyph-name="fraction" unicode="&#x2044;" horiz-adv-x="371" 
d="M312 716h45l-296 -733h-46z" />
    <glyph glyph-name="Euro" unicode="&#x20ac;" horiz-adv-x="653" 
d="M60 427h70q6 63 21 107t45.5 77.5t81 49.5t123.5 16q46 0 94 -4.5t73 -9.5l25 -5l-3 -35q-100 20 -189 20q-64 0 -107 -13.5t-68 -43t-37.5 -67t-16.5 -93.5h342v-33h-344q-1 -20 -1 -62q0 -36 1 -53h344v-33h-343q4 -57 16.5 -95.5t38 -68t68.5 -43t107 -13.5
q34 0 81.5 5t77.5 10l30 5l3 -34q-106 -20 -192 -20q-73 0 -123 16t-81 49t-46.5 78.5t-20.5 110.5h-70v34h68q-1 16 -1 52q0 42 1 62h-68v34z" />
    <glyph glyph-name="trademark" unicode="&#x2122;" horiz-adv-x="796" 
d="M60 672v28h281v-28h-125v-326h-31v326h-125zM378 346v354h51l128 -305l128 305h51v-354h-31v320l-131 -309h-35l-130 309v-320h-31z" />
    <glyph glyph-name="emptyset" unicode="&#x2205;" horiz-adv-x="720" 
 />
    <glyph glyph-name="minus" unicode="&#x2212;" horiz-adv-x="654" 
d="M60 298v34h534v-34h-534z" />
    <glyph glyph-name="notequal" unicode="&#x2260;" horiz-adv-x="588" 
d="M60 340v34h272l79 163h45l-79 -163h151v-34h-168l-72 -151h241v-34h-258l-74 -155h-45l74 155h-165v34h182l72 151h-255z" />
    <glyph glyph-name="lessequal" unicode="&#x2264;" horiz-adv-x="514" 
d="M455 630v-39l-347 -206l347 -217v-41l-382 238v36zM60 34h395v-34h-395v34z" />
    <glyph glyph-name="greaterequal" unicode="&#x2265;" horiz-adv-x="514" 
d="M406 385l-346 206v39l382 -229v-36l-382 -238v41zM60 0v34h395v-34h-395z" />
    <glyph glyph-name="nonbreakingspace" unicode="&#xa0;" horiz-adv-x="365" 
 />
    </font>
</defs>
</svg>
